<?xml version="1.0" encoding="UTF-8"?>
<svg id="_Слой_2" data-name="Слой 2" xmlns="http://www.w3.org/2000/svg" xmlns:xlink="http://www.w3.org/1999/xlink" viewBox="0 0 102.34 102.34">
  <defs>
    <style>
      .cls-1 {
        stroke: #fff;
        stroke-miterlimit: 6.71;
        stroke-width: .67px;
      }

      .cls-1, .cls-2 {
        fill: none;
      }

      .cls-2 {
        stroke-width: 0px;
      }

      .cls-3 {
        clip-path: url(#clippath);
      }
    </style>
    <clipPath id="clippath">
      <circle class="cls-2" cx="51.17" cy="51.17" r="50.83"/>
    </clipPath>
  </defs>
  <g id="_Слой_1-2" data-name="Слой 1">
    <g>
      <g class="cls-3">
        <g>
          <path class="cls-1" d="M29.58,50.72c.07-6.33,2.52-12.63,7.35-17.45,9.8-9.8,25.71-9.8,35.51,0,4.9,4.9,7.35,11.33,7.35,17.75"/>
          <path class="cls-1" d="M17.87,121.84c12.51-15.61,25.3-25.05,34-30.46,14.45-9.01,23.35-10.58,25.99-10.99,11.5-1.78,22.56-1.1,28.15.72"/>
          <path class="cls-1" d="M15.94,104.1c13.04-15.18,26.16-24.15,35.02-29.28,14.76-8.52,23.7-9.77,26.34-10.09,11.56-1.37,22.58-.33,28.11,1.68"/>
          <path class="cls-1" d="M45.18,64.23c-5.05-1.88-11.66-3.86-22.25-3.67-10.3.19-21.89,4.09-26.85,6.09"/>
          <path class="cls-1" d="M32.57,73.18c-2.54-.23-5.36-.35-8.53-.28-10.8.23-22.97,4.19-28.17,6.2"/>
          <path class="cls-1" d="M57.08,57.59c-5.84-2.78-14.41-6.09-27.07-6.96-12.34-.86-24.7,1.86-30.83,3.72"/>
          <path class="cls-1" d="M100.75,54.67c-5.19-1.98-14.37-4.68-25.5-3.23-5.58.74-10.99,2.41-18.34,6.17-8.4,4.27-25.99,14.31-41.76,32l36.02,53.61,61.11-84.95-11.52-3.6h0Z"/>
        </g>
      </g>
      <circle class="cls-1" cx="51.17" cy="51.17" r="50.83"/>
    </g>
  </g>
</svg>