<?xml version="1.0" encoding="UTF-8"?>
<svg id="_Слой_2" data-name="Слой 2" xmlns="http://www.w3.org/2000/svg" xmlns:xlink="http://www.w3.org/1999/xlink" viewBox="0 0 94.83 93.92">
  <defs>
    <style>
      .cls-1 {
        font-family: FruitsandVegetables-Display, 'Fruits and Vegetables';
      }

      .cls-1, .cls-2, .cls-3, .cls-4 {
        isolation: isolate;
      }

      .cls-1, .cls-3 {
        font-size: 4.42px;
      }

      .cls-5 {
        clip-path: url(#clippath-2);
      }

      .cls-6 {
        clip-path: url(#clippath-6);
      }

      .cls-7 {
        stroke-miterlimit: 1.71;
      }

      .cls-7, .cls-8, .cls-9, .cls-10, .cls-11 {
        fill: none;
      }

      .cls-7, .cls-9 {
        stroke-width: .17px;
      }

      .cls-7, .cls-9, .cls-12, .cls-10, .cls-11, .cls-13, .cls-14 {
        stroke: #000;
      }

      .cls-8, .cls-15 {
        stroke-width: 0px;
      }

      .cls-16 {
        clip-path: url(#clippath-7);
      }

      .cls-17 {
        clip-path: url(#clippath-1);
      }

      .cls-18 {
        clip-path: url(#clippath-4);
      }

      .cls-3, .cls-4 {
        font-family: MyriadPro-Regular, 'Myriad Pro';
      }

      .cls-15 {
        fill: #ffe492;
      }

      .cls-9 {
        stroke-miterlimit: 6.71;
      }

      .cls-12 {
        fill: #dee6e9;
        stroke-miterlimit: 6.71;
        stroke-width: .17px;
      }

      .cls-19 {
        clip-path: url(#clippath-9);
      }

      .cls-10, .cls-11, .cls-14 {
        stroke-width: .17px;
      }

      .cls-10, .cls-14 {
        stroke-miterlimit: 6.71;
      }

      .cls-20 {
        clip-path: url(#clippath);
      }

      .cls-11 {
        stroke-miterlimit: 1.71;
      }

      .cls-4 {
        font-size: 4.42px;
      }

      .cls-21 {
        clip-path: url(#clippath-3);
      }

      .cls-22 {
        clip-path: url(#clippath-8);
      }

      .cls-13 {
        fill: #eac5b3;
        stroke-miterlimit: 6.71;
        stroke-width: .17px;
      }

      .cls-23 {
        clip-path: url(#clippath-5);
      }

      .cls-24 {
        clip-path: url(#clippath-10);
      }

      .cls-14 {
        fill: #92a581;
      }
    </style>
    <clipPath id="clippath">
      <circle class="cls-8" cx="29.29" cy="60.73" r="29.21" transform="translate(-32.38 87.98) rotate(-88.09)"/>
    </clipPath>
    <clipPath id="clippath-1">
      <circle class="cls-8" cx="29.71" cy="62.1" r="29.21" transform="translate(-35.21 39.2) rotate(-45)"/>
    </clipPath>
    <clipPath id="clippath-2">
      <circle class="cls-8" cx="29.29" cy="60.73" r="29.21" transform="translate(-32.38 87.98) rotate(-88.09)"/>
    </clipPath>
    <clipPath id="clippath-3">
      <circle class="cls-8" cx="29.29" cy="60.73" r="29.21" transform="translate(-32.38 87.98) rotate(-88.09)"/>
    </clipPath>
    <clipPath id="clippath-4">
      <circle class="cls-8" cx="29.29" cy="60.73" r="29.21" transform="translate(-32.38 87.98) rotate(-88.09)"/>
    </clipPath>
    <clipPath id="clippath-5">
      <circle class="cls-8" cx="29.29" cy="60.73" r="29.21" transform="translate(-32.38 87.98) rotate(-88.09)"/>
    </clipPath>
    <clipPath id="clippath-6">
      <circle class="cls-8" cx="29.29" cy="60.73" r="29.21" transform="translate(-32.38 87.98) rotate(-88.09)"/>
    </clipPath>
    <clipPath id="clippath-7">
      <circle class="cls-8" cx="29.29" cy="60.73" r="29.21" transform="translate(-32.38 87.98) rotate(-88.09)"/>
    </clipPath>
    <clipPath id="clippath-8">
      <circle class="cls-8" cx="29.29" cy="60.73" r="29.21" transform="translate(-32.38 87.98) rotate(-88.09)"/>
    </clipPath>
    <clipPath id="clippath-9">
      <circle class="cls-8" cx="29.29" cy="60.73" r="29.21" transform="translate(-32.38 87.98) rotate(-88.09)"/>
    </clipPath>
    <clipPath id="clippath-10">
      <circle class="cls-8" cx="29.29" cy="60.73" r="29.21" transform="translate(-32.38 87.98) rotate(-88.09)"/>
    </clipPath>
  </defs>
  <g id="_Слой_1-2" data-name="Слой 1">
    <g>
      <path class="cls-15" d="M83.74,83.56c-.13-.09-.23-.2-.39-.28-.09-.05-.05-.14-.03-.23,0-.03.01-.07-.01-.07-.11-.11-.23-.2-.38-.28-.09.01-.2.07-.27.03s-.13-.09-.19-.14c-.08-.07-.17-.13-.25-.19-.03-.05-.09-.05-.17,0,0,0-.01.05-.01.08-.01.08-.03.17-.03.27.01.08.11.09.11.19-.02.22-.01.21.08.3.08.07.16.13.23.2.02,0,.01.05.01.07.01.07-.06.19.03.23.08.03.13.09.19.14,0,.08-.02.19-.03.27.01.07-.01.11-.07.13-.08.02-.13,0-.16-.03-.03-.05-.08-.07-.13-.09-.01-.02-.03-.05-.06-.05-.05-.04-.08-.14-.08-.3,0-.09-.11-.11-.11-.19,0-.06.02-.13.01-.17,0-.02-.01-.05-.03-.07-.07-.05-.11-.11-.19-.14-.05-.02-.11-.02-.15.02-.01.01-.02.07-.01.08.03.03.08.07.09.11.03.03.01.11,0,.16-.03.11.08.13.11.2.01.08-.01.17-.01.25,0,.02.05.02.06.05.06.05.11.11.17.15,0,.08-.01.17-.03.27-.03.16,0,.28.13.35.08.03.11.11.09.2-.03.11.02.15.08.2.05.06.14.08.14.17,0,.21-.01.22.15.34.05.03.08.07.06.14,0,.06-.01.11-.01.17.06.05.11.11.17.15.09.05.09.11.02.21-.05.06-.11.11-.11.16-.03.08.01.11.05.15.05.03.09.05.19.01.02-.01.06-.01.09-.01.02,0,.07-.01.08,0,0,.03,0,.07-.02.09-.1.15-.16.26-.16.33-.02.13-.02.25-.06.36-.01.11.06.13.11.19.03.05.01.11-.03.14-.03.02-.07.03-.11.03-.13-.09-.25-.19-.36-.3-.02,0-.01-.05-.01-.07,0-.06.03-.14.01-.17-.01-.05-.08-.07-.11-.11-.05-.02-.09-.06-.11-.11-.02-.03.01-.11.01-.17,0-.02,0-.06-.01-.07-.11-.05-.11-.16-.08-.3,0-.02,0-.06-.01-.08-.14-.11-.3-.22-.44-.34-.06-.05-.03-.14.06-.23.06-.06.09-.11.15-.15.11-.08.11-.2.06-.23-.08-.07-.16-.14-.25-.19-.07-.05-.09-.11-.07-.21.03-.11-.02-.15-.09-.2-.05-.03-.11.01-.25.11-.11.11-.16.11-.25.05-.09-.08-.21-.16-.3-.25-.01-.02,0-.06,0-.08,0-.06.02-.13.01-.17-.01-.05-.08-.07-.13-.09-.03-.05-.09-.06-.11-.11-.01-.05.01-.11.01-.17,0-.02.01-.07,0-.08-.08-.07-.17-.11-.25-.19s-.08-.07-.08-.3c0-.09-.09-.11-.15-.16-.05-.06-.11-.11-.07-.21.02-.07.01-.11-.02-.15-.11-.07-.21-.16-.32-.23-.01-.02-.02-.06-.01-.08.02-.13.01-.22-.08-.3-.09-.06-.16-.14-.25-.19-.05-.02-.13,0-.16.05-.01.02-.02.07-.01.08.03.03.09.06.11.11.05.09-.07.25.05.3.06.05.13.09.17.15.01.02,0,.06,0,.08,0,.08-.03.17.06.22.08.03.13.09.19.14.11.07.09.08.09.28-.01.11.08.13.14.17.03.05.08.07.09.11,0,.09-.05.19,0,.25.06.05.13.09.19.14.03.03.02.09.01.16-.02.07-.01.11.02.15.06.05.14.08.19.14.01.01.01.05.01.08,0,.06-.01.11-.01.17.05.06.11.11.17.15.05.03.08.06.06.14-.01.08-.06.19.03.23.06.01.08.07.13.09.07.02.08.06.06.14-.06.15,0,.22.11.27.11.05.11.16.08.3s-.02.13-.16.33c-.05.06-.05.13,0,.16.07.05.09.11.07.21s.02.15.08.2c.09.06.19.11.13.25-.02.07-.01.11.05.14.13.09.23.2.38.28.07.06.05.15.03.23-.01.11-.01.23-.15.35-.01.01-.03.06-.03.08-.01.06-.01.11-.02.19,0,.08-.01.17.07.21.07.03.13.09.19.14s.11.09.09.2c-.02.13-.03.23-.03.35,0,.08.11.09.11.2,0,.06-.01.11-.01.17,0,.02.02.03.05.06.03.05.08.07.13.09.05.03.08.07.06.14,0,.06-.02.13-.01.17.03.07.14.08.11.2-.01.06-.02.13-.01.17.01.05.08.07.11.11.01.02,0,.06-.01.08s-.05.03-.07.03c-.03.01-.08.02-.09.01-.13-.09-.25-.19-.36-.3-.05-.03-.08-.13-.08-.3-.01-.05-.05-.08-.09-.11-.06-.05-.14-.08-.15-.16.06-.17,0-.28-.13-.35-.06-.01-.09-.06-.07-.13.01-.11.01-.23.03-.35.02-.09.01-.11-.08-.07-.03.02-.07.03-.08.06-.08.08-.15.15-.23.23-.02.02-.07.05-.08.05-.09.05-.11.01-.08-.07.02-.09.03-.17-.06-.22-.08-.03-.11-.11-.19-.14-.11-.06-.11-.16-.08-.3,0-.02,0-.06-.03-.07-.17-.15-.36-.3-.56-.44-.03-.03-.05-.08-.02-.15s.02-.13-.02-.15c-.16-.14-.32-.27-.49-.4-.07-.05-.09-.11-.07-.21.02-.07.01-.11-.02-.15-.06-.03-.09-.06-.16-.03-.06.01-.08.06-.09.14.01.08-.01.17-.01.25.03.03.08.07.11.11.01.02,0,.06,0,.08,0,.08-.03.17.06.22.07.03.13.09.19.14.05.04.08.14.08.3,0,.06.05.08.09.11.03.03.05.09.01.16,0,.02-.03.05-.17.11-.08.06-.02.06.05.02.09-.05.09-.09.01-.11-.06-.01-.11.01-.15.06-.01.02-.01.06.11.03.19.02.27.09.36.14.06.03.06.08.05.15-.01.08-.03.17.06.22s.16.13.25.19c.07.06.02.16.02.25,0,.09.11.11.11.19.01.08-.03.17,0,.25.11.05.07.19.07.3.01.08.09.11.15.16.08.03.09.11.07.21s.03.14.11.19c.14.11.14.11.11.27-.01.11.06.14.11.19,0,.08-.01.17-.01.25,0,.02.05.02.06.05.06.05.13.09.19.14.03.05.09.06.11.11.01.05-.01.11-.01.17s-.01.11-.02.19c0,.08-.01.16.07.21.06.05.13.09.19.14.08.06.07.06.08.3,0,.13.14.14.2.22.03.03.05.09.02.15-.02.03-.06.06-.08.08-.21-.16-.4-.34-.62-.49-.09-.05-.06-.14-.03-.23.02-.13-.17-.11-.11-.27.05-.11.03-.17-.06-.22-.05-.02-.08-.07-.13-.09-.13-.07-.2-.16-.15-.34.02-.07.01-.11.02-.19.01-.07.01-.11-.02-.15-.19-.14-.39-.28-.58-.44-.01-.01-.06,0-.08-.01-.07,0-.09.03-.09.13.01.01,0,.06,0,.08,0,.06-.02.13-.01.17.01.05.08.06.11.11.05.02.09.06.13.09.01.05-.01.11-.01.17,0,.02-.01.07,0,.08.08.07.16.13.23.2,0,.08-.05.19-.01.25.03.03.08.07.11.11.01.02,0,.06-.02.09,0,.01-.06.02-.08.02-.09,0-.13-.07-.21-.11-.07-.05-.11-.11-.07-.21.02-.07.01-.11-.02-.15-.11-.08-.22-.15-.32-.23-.01-.02-.01-.05-.01-.08,0-.14-.03-.24-.08-.3-.05-.06-.1-.14-.13-.25.01-.05.03-.08.02-.09-.14-.11-.3-.23-.44-.33-.03-.05-.06-.08-.06-.14.02-.07.03-.14.01-.17-.01-.05-.08-.07-.11-.11-.05-.02-.09-.06-.11-.11-.01-.05.01-.11.01-.17.02-.07-.02-.09-.07-.13-.09-.08-.15-.19-.15-.34,0-.03,0-.06-.01-.08-.11-.07-.21-.16-.32-.23-.03-.03-.05-.09-.01-.16,0-.02.03-.05.11-.11.01-.02-.01.01-.05.03.01.02.03.05.06.03.06.01.11-.01.14-.05.02-.03.02-.07.01-.08-.02-.02-.07-.02-.16.05-.11-.02-.2-.09-.3-.15-.06-.03-.06-.08-.05-.15.01-.08.03-.17-.05-.22-.09-.06-.16-.14-.25-.19-.11-.07.01-.23-.05-.3-.06-.08-.16-.13-.23-.2-.05-.03-.08-.13-.08-.3,0-.09-.11-.11-.11-.19,0-.06.02-.13.02-.19,0-.02-.01-.05-.03-.07-.11-.07-.21-.16-.32-.23-.13-.07-.15-.2-.11-.36-.11-.07-.19-.17-.3-.25-.09-.05-.06-.14-.06-.22,0-.03.02-.07,0-.08-.01-.02-.03-.05-.07-.05-.08-.07-.16-.14-.25-.19-.11-.07,0-.22-.05-.3-.11.01-.25.08-.35,0-.07-.08-.16-.14-.23-.2-.05-.02-.08-.07-.13-.09-.07-.05-.15-.03-.25.07-.06.06-.11.11-.15.15-.09.09-.21.14-.27.11-.14-.11-.28-.23-.44-.34-.05-.02-.05-.08-.02-.15.03-.08.02-.13-.02-.15-.14-.11-.28-.23-.44-.34-.01-.01-.01-.05-.01-.08,0-.06.01-.11.01-.17-.08-.07-.14-.14-.23-.2-.08-.07-.12-.16-.11-.27.01-.05.03-.08.02-.09-.07-.05-.13-.09-.19-.14-.13-.09-.19-.17-.19-.23.02-.09.03-.17-.03-.23-.09-.05-.17-.13-.25-.19-.06-.05-.13-.09-.17-.15-.01-.01,0-.06,0-.08.02-.09.01-.16-.07-.21-.05-.02-.08-.07-.11-.11-.08-.05-.13-.17-.15-.34-.04-.26-.01-.05-.02-.07-.14-.11-.3-.23-.44-.35-.02,0-.03-.03-.02-.07-.04-.18-.13-.32-.27-.44-.08-.07-.09-.06-.07-.21.01-.07.01-.11-.02-.15-.17-.13-.34-.25-.52-.39-.08-.05-.06-.14-.06-.22,0-.03.01-.07,0-.08-.16-.13-.34-.25-.49-.4-.01-.01,0-.06.01-.08,0-.06.02-.13.01-.17s-.08-.07-.13-.09c-.06-.05-.09-.15-.08-.3.01-.21,0-.06-.01-.07-.17-.13-.32-.27-.52-.39-.11-.07-.09-.17-.08-.3.02-.03,0-.06-.01-.08-.19-.14-.39-.28-.56-.44-.05-.02-.05-.08-.02-.15.03-.11-.02-.15-.09-.2-.09-.08-.14-.16-.13-.25,0-.03.02-.07,0-.08,0-.03-.01-.05-.05-.06-.08-.07-.16-.14-.23-.2-.09-.06-.16-.14-.25-.19-.13-.06-.03-.21-.05-.3-.09-.08-.2-.17-.32-.23-.08-.06-.02-.16-.03-.23,0-.02.01-.07,0-.08-.19-.14-.36-.3-.56-.44-.05-.03-.06-.07-.05-.15.02-.15.01-.14-.13-.25-.06-.05-.11-.09-.09-.2.02-.09,0-.16-.07-.21-.09-.05-.17-.11-.25-.19s-.17-.13-.25-.19c-.05-.07-.01-.16,0-.25,0-.02-.01-.05-.03-.07-.08-.07-.16-.14-.25-.19-.11-.07-.06-.2-.06-.3,0-.02-.02-.06-.05-.06-.14-.11-.28-.23-.44-.34,0-.08.01-.17.01-.25-.08-.07-.16-.13-.23-.2-.07-.05-.13-.09-.19-.14-.11-.03-.05-.14-.05-.22,0-.03.01-.07,0-.08-.09-.09-.21-.16-.32-.25-.11-.07.03-.25-.05-.3-.07-.08-.15-.15-.23-.2-.11-.06-.11-.16-.08-.3,0-.02,0-.06-.02-.07-.09-.09-.21-.16-.3-.25-.01-.01-.03-.03-.03-.07-.03-.19-.08-.3-.14-.34-.07-.05-.13-.09-.17-.15-.01-.01-.01-.05-.02-.07,0-.21.02-.22-.08-.3-.08-.07-.16-.14-.25-.19,0-.08.01-.17.03-.27-.11-.07-.21-.16-.32-.23-.06-.03-.08-.06-.06-.14.02-.09.05-.19-.03-.23-.09-.05-.17-.13-.25-.19-.11-.07.01-.23-.05-.3-.06-.08-.16-.14-.25-.19-.11-.06-.11-.16-.08-.3,0-.02,0-.06-.01-.08-.23-.17-.46-.35-.69-.54-.1-.07-.19-.22-.25-.44-.1-.34-.02-.03-.05-.06-.08-.07-.16-.14-.25-.19-.11-.07-.06-.2-.05-.32,0-.02-.03-.03-.05-.06-.06-.05-.13-.09-.19-.14-.08-.07-.16-.14-.23-.2,0-.08.01-.17.01-.25-.11-.07-.21-.16-.32-.23-.09-.05-.05-.15-.03-.23-.01-.01,0-.06-.01-.07-.17-.15-.38-.3-.56-.44-.07-.06-.02-.15-.03-.23,0-.03.01-.07-.01-.08-.11-.11-.23-.2-.36-.3-.04-.04-.07-.14-.08-.3-.01-.23-.01-.05-.02-.07-.39-.32-.78-.62-1.19-.93-.05-.02-.05-.08-.02-.15s.02-.13-.02-.15c-.16-.14-.32-.27-.49-.4-.08-.03-.09-.11-.07-.21.01-.07.01-.11-.05-.14-.08-.07-.16-.14-.23-.2-.09-.06-.17-.11-.25-.19s-.16-.14-.25-.19c-.11-.07-.03-.21-.05-.3-.13-.09-.23-.2-.36-.3-.17-.11-.34-.25-.49-.4-.02,0-.01-.05-.01-.07.01-.08.03-.17-.03-.23-.38-.28-.75-.58-1.14-.87-.08-.06-.02-.15-.03-.23,0-.02.01-.07-.01-.07-.2-.17-.42-.33-.62-.49-.05-.04-.08-.14-.08-.3,0-.23,0-.06-.01-.08-.27-.21-.54-.42-.81-.63-.05-.02-.05-.09-.02-.15.02-.07.02-.13-.02-.15-.25-.19-.49-.4-.75-.58-.07-.05-.09-.11-.07-.21.02-.07.01-.11-.05-.14-.36-.3-.75-.58-1.11-.88-.08-.05-.08-.13-.07-.21.01-.07.01-.11-.05-.14-.03-.05-.07-.06-.15-.03-.08.01-.2.07-.25-.01-.08-.07-.16-.14-.25-.19-.09-.05-.05-.15-.03-.23.01-.07-.01-.11-.06-.14-.05-.02-.09-.02-.17,0-.1.02-.15,0-.13-.09,0-.06.01-.11-.02-.15-.16-.13-.34-.25-.5-.38-.06-.05-.08-.12-.07-.21.02-.07.02-.13-.02-.15-.46-.35-.93-.7-1.38-1.05-.07-.06-.06-.14-.06-.22,0-.02.02-.07,0-.08,0-.03-.03-.03-.05-.06-.34-.25-.67-.52-1.01-.77-.07-.06-.06-.14-.06-.22,0-.03.02-.07,0-.08,0-.03-.03-.03-.05-.06-.34-.25-.67-.52-1.01-.77-.09-.05-.05-.15-.03-.23-.01-.01,0-.06-.01-.07-.09-.08-.21-.16-.3-.25-.25-.19-.52-.39-.77-.58-.09-.08.03-.25-.03-.32-.09-.09-.21-.16-.32-.23-.08-.07-.16-.14-.25-.19-.05-.04-.1-.16-.13-.35-.05-.28-.01-.05-.02-.07-.3-.23-.6-.46-.88-.68-.07-.05-.11-.11-.07-.21.02-.07.01-.11-.03-.14-.44-.34-.88-.68-1.32-1.03-.01-.01-.01-.05-.01-.08,0-.06.01-.11.02-.19-.07.01-.11.01-.17.02-.08.02-.13.02-.16-.02-.06-.03-.08-.06-.06-.14.02-.09.03-.17-.03-.23-.48-.34-.93-.72-1.4-1.07-.07-.06-.02-.15-.03-.23,0-.03,0-.06-.01-.08-.17-.15-.36-.3-.56-.44-.53-.4-1.03-.82-1.56-1.22-.11-.07-.11-.16-.08-.3,0-.02,0-.06-.02-.07-.72-.58-1.46-1.14-2.19-1.71-.05-.02-.05-.08-.02-.15.02-.07.02-.13-.02-.15-.34-.25-.67-.52-1.01-.77-.05-.04-.07-.12-.06-.22,0-.03.01-.07,0-.08-.03-.01-.11-.01-.17.02-.08.02-.11.01-.16-.02-.03-.05-.06-.08-.05-.15.01-.08.02-.16-.06-.22-.96-.75-1.91-1.49-2.89-2.23-.07-.06-.02-.15-.03-.23v-.09s-.05-.02-.06-.05c-1.57-1.22-3.13-2.43-4.72-3.64-.09-.08-.08-.07-.32-.05-.03.01-.07.01-.09,0-.48-.38-.96-.75-1.44-1.13-.21-.16-.41-.33-.62-.49-.04-.04-.17-.07-.39-.08-.32-.02-.07,0-.08-.01-.83-.66-1.68-1.29-2.51-1.95-.07-.05-.14-.07-.23-.05-.08.02-.15.03-.17,0-.58-.44-1.19-.91-1.76-1.36-.07-.06-.15-.06-.25-.03-.03.01-.06.01-.11.02-.02,0-.05-.02-.06-.05-.52-.39-1.01-.77-1.5-1.17-.07-.06-.17-.02-.25-.01-.02,0-.06.01-.11.02-.01-.01-.03-.03-.06-.05-.41-.33-.83-.66-1.24-.97-.06-.08-.16-.02-.25-.01-.05.01-.07.01-.09.01s-.05-.02-.06-.05c-.34-.25-.67-.52-1.01-.77-.07-.06-.17,0-.27.01-.02,0-.07.01-.08-.01-.22-.15-.44-.32-.63-.48-.04-.04-.15-.05-.33-.03-.26.03-.06,0-.08-.01-.32-.23-.62-.49-.94-.72-.03-.03-.09-.02-.17,0s-.13.02-.17,0c-.25-.19-.49-.4-.75-.58-.07-.06-.15-.06-.25-.03-.08.02-.13.02-.16-.01-.25-.19-.5-.38-.75-.58-.07-.06-.16-.05-.27-.01-.07.01-.11.01-.15-.03-.46-.35-.93-.72-1.38-1.05-.07-.06-.05-.15-.03-.23.01-.11.01-.23.15-.34.01-.01.02-.06.03-.08.02-.14.08-.25.17-.35.07-.07.15-.15.22-.22.14-.14.14-.2.02-.3-.03-.05-.08-.07-.11-.11-.06-.05-.03-.14.05-.22.06-.06.11-.11.16-.16.07.05.06.05.35,0,.08-.02.14-.08.15-.19,0-.06.02-.13.02-.19,0-.03-.01-.05-.03-.07-.09-.08-.21-.16-.32-.23-.11-.08-.15-.23-.13-.44.03-.31.02-.07.03-.08.07-.03.13-.03.16.01.07.05.13.09.19.14.05.02.08.07.13.09.09-.01.2-.03.3-.05.15-.02.15-.03.16-.16.01-.08.01-.17.01-.25-.06-.05-.13-.09-.19-.14-.08-.06-.07-.11.03-.23.08-.09.19-.14.25-.09.06.05.11.09.23.05s.19-.02.23.05c.05.02.08.07.13.09.06.03.17-.01.25-.09.06-.06.11-.11.08-.17-.07-.17-.1-.32-.09-.46.01-.2.03-.06.05-.06.03-.02.07-.03.11-.03.14.11.3.21.44.34.06.03.09.06.16.02.11-.05.17-.11.2-.21,0-.02.01-.07,0-.08-.16-.13-.34-.25-.49-.39-.01-.01,0-.07.01-.08.03-.05.11-.08.16-.05.06.05.11.09.23.07.16-.05.34-.08.49-.11.03-.01.08-.02.09-.03,0-.06.01-.11.01-.17.02-.11.11-.17.2-.22.08-.05.13-.02.16.01.01.02.03.05.07.05.08,0,.13-.02.15-.07.02-.03.03-.08.02-.09-.27-.21-.54-.42-.81-.63-.09-.05-.06-.14-.03-.23,0-.06-.01-.11-.07-.13-.05-.02-.08-.07-.05-.14.02-.06.11-.06.23,0,.01.02.05.02.07.02.2,0,.33.01.41.07.06.05.14.07.23.05.07-.01.13-.02.2-.03.03-.01.08-.02.09-.05.02-.06.01-.11-.03-.14-.11-.07-.16-.21-.38-.11-.08.02-.11.01-.16-.02-.46-.35-.93-.7-1.38-1.07-.07-.06-.16-.05-.25-.01-.08.02-.11.01-.16-.02-.03-.05-.08-.07-.05-.14.01-.05.09-.08.16-.08.11,0,.19-.08.25-.16.05-.06.05-.13.02-.16-.05-.06-.11-.11-.08-.2.02-.07.01-.11.02-.19.01-.11.03-.23-.08-.3-.03-.07-.01-.16.01-.25.01-.14.02-.16.14-.16.14-.01.25-.17.36-.21.13-.03.25-.06.39-.08.03-.01.07-.01.11-.02.01-.06.03-.11.03-.17,0-.07.01-.11.11-.2.01-.02-.02.01-.02.03s.03.03.06.03c.06.01.11-.01.14-.05.01-.02.02-.07.01-.08-.02-.02-.08-.01-.19.06-.17-.08-.33-.19-.47-.3-.01-.01,0-.06.02-.09,0-.06-.04-.16-.11-.28-.11-.19-.02-.06.01-.08.08-.11.19-.21.3-.33.11-.03.19-.05.3-.07.19-.05.4-.07.58-.14.08-.08.15-.16.27-.16.2.09.2.08.32.06.33-.07.66-.15,1-.21.08-.01.11-.05.11-.13-.01-.02-.03-.03-.05-.06-.07-.05-.14-.08-.17-.15-.05-.06-.01-.16,0-.25,0-.08.02-.19.03-.27-.05-.06-.15-.07-.11-.2.02-.09.01-.17.03-.27.15-.06.32-.08.48-.11.15-.03.13-.02.33.03.08.03.3-.11.32-.2.01-.11.03-.25.03-.36-.05-.06-.15-.07-.11-.19.01-.08.02-.16-.06-.22-.14-.08-.25-.19-.39-.28-.05-.02-.07-.09-.03-.14.03-.05.13-.06.17-.03.06.05.11.09.23.05s.17,0,.25.05c.01.02.06.01.08.01.14-.05.25-.06.34.03.06.01.13,0,.16-.05.01-.02.01-.07.01-.08-.09-.09-.2-.17-.3-.25-.05-.03-.08-.07-.06-.13.01-.05.07-.07.16-.08.07,0,.13-.03.19-.08.13-.11.13-.17.03-.3-.08-.07-.07-.11.03-.23.01-.02.05-.07.07-.07.16-.05.33-.13.47-.07.05.02.08.07.14.06.07-.01.14-.03.21-.05s.13-.02.15-.06c.05-.07.01-.11-.05-.14-.05-.02-.08-.07-.13-.09-.07-.06-.07-.15,0-.22.17-.19.36-.36.54-.55.02-.02.06-.05.09-.05.11-.03.21-.06.3-.07.13-.03.16.05.22.08.05.04.16.06.33.03.09-.01.14.07.22.08.03-.01.08-.01.11-.03.01-.02.01-.06.01-.08,0-.03-.01-.05-.03-.07-.22-.19-.46-.35-.69-.54-.05-.02-.03-.11,0-.15.05-.06.11-.11.15-.15.11-.02.2-.03.3-.07.08-.02.13-.02.16.02.05.06.13.09.2.15.35-.07.72-.17,1.08-.23.15-.03.25-.13.36-.21.11-.07.16.01.25.05.05.03.13,0,.14-.05.02-.03.03-.08.02-.09-.03-.03-.09-.06-.13-.09-.05-.02-.07-.09-.13-.09-.06-.01-.13.02-.2.03-.08.02-.11.01-.15-.03-.06-.05-.13-.09-.17-.15.01-.11.01-.23.03-.35,0-.02.05-.06.06-.08.08-.06.09-.11.11-.17-.01-.05.01-.11.01-.16.07-.01.13-.02.21-.06.14-.05.25-.05.32.05.11-.02.21-.06.3-.05s.09.11.23.07c.06-.02.14-.05.17-.02.09.01.11.11.25.05.06-.01.14-.03.19-.01.05.02.08.07.13.07.02,0,.07,0,.11-.02.01-.01.01-.05.01-.08,0-.02-.01-.05-.02-.07-.07-.05-.13-.09-.19-.14-.01-.01-.01-.05-.01-.08-.02-.07.02-.09.11-.11.09,0,.2-.03.3-.06.03.03.07.09.11.09.09,0,.2-.03.3-.05.05.02.08.07.13.09.02,0,.07-.01.11-.02.07-.01.14-.03.19-.02.07.02.11.11.25.05.06-.02.14-.03.17-.01.09.08.21.05.35.02.09-.01.11.08.23.07.05,0,.13-.02.2-.03.02,0,.05.02.07.02.09.08.21.16.32.23.01.01.06,0,.08,0,.07-.01.14-.05.2-.03s.09.05.11.09c.13.11.14.11.33.06.15-.06.17.11.33.06.09-.05.19-.05.25.01.09.08.21.16.3.25.07.04.18.05.33.03.11-.02.15.06.21.11.07.05.14.08.25.05.11-.05.19-.01.23.05.06.05.11.11.21.11.17-.01.28,0,.33.03.13.09.25.19.39.28.08.07.15.15.25.19.07.03.19-.02.3-.05.09.08.21.16.32.23.14.11.3.23.44.34.11.01.27-.11.35,0,.06.05.13.09.19.14.11.08.22.15.3.25.08.06.17,0,.27-.01.02,0,.07-.01.09-.01.17.11.3.28.5.38.02,0,.07-.01.11-.03.02-.01.01-.05.02-.07,0-.03,0-.06-.01-.08-.53-.4-1.05-.8-1.57-1.22-.04-.04-.18-.06-.41-.07-.34,0-.06-.01-.07-.02-.09-.06-.16-.14-.25-.19-.08-.03-.09-.11-.07-.21.02-.07.01-.11-.02-.15-.06-.03-.09-.05-.16-.05-.09.01-.2.07-.27.01-.35-.28-.7-.56-1.05-.83-.02-.06-.01-.11.05-.13.03-.01.08-.02.11-.02.14.11.28.23.44.34.02,0,.03.05.06.05.13-.02.27-.09.35,0,.06.05.14.08.2.13.03,0,.07,0,.11-.02.01-.01.01-.05.02-.07,0-.09-.11-.11-.11-.2-.01-.02,0-.07.01-.08s.06-.02.11-.03c.02,0,.06.01.07.02.17.13.34.25.49.4.07.05.15.06.25.03.08-.02.13-.02.17,0,.3.23.58.44.87.69.07.06.16.05.27.01.08-.02.11-.01.16.02.42.33.83.66,1.24.97.08.06.16.02.25.01.03-.01.08-.02.09-.01.03,0,.05.02.06.05.34.25.69.5,1.01.77.08.06.17,0,.27-.01.02,0,.07-.01.08,0,.25.19.52.39.77.58.16.13.34.25.49.39.05.04.17.06.34.03.26-.03.07-.01.08.01.48.38.96.75,1.46,1.11.03.03.09.02.17,0s.13-.02.17,0c.36.3.75.58,1.11.88.07.05.15.06.25.03.08-.02.13-.02.17,0,.36.3.75.58,1.11.88.07.06.16.03.25.02.03-.01.09-.05.11-.02.19.14.38.28.58.44.06.07.15.03.25,0,.07-.01.11-.01.15.03.09.08.21.16.32.23.01.01.07,0,.09-.01.05-.03.06-.09.03-.14-.49-.4-1-.79-1.5-1.17-.05-.04-.16-.06-.33-.03-.25.03-.07.01-.08-.01-.48-.38-.96-.75-1.44-1.13-.05-.02-.09-.02-.17,0s-.14.03-.17,0c-.46-.35-.93-.7-1.4-1.07-.05-.07-.14-.07-.23-.05-.08.02-.13.02-.17,0-.44-.35-.88-.68-1.32-1.03-.05-.03-.01-.11.03-.15.02-.01.08-.02.09-.01.23.17.48.34.7.52.07.06.16.02.25.01.02,0,.06-.01.09-.01.02,0,.05.02.06.05.54.42,1.08.85,1.63,1.27.08.06.17,0,.27-.01.02,0,.07-.01.08,0,.17.13.34.25.52.39.28.23.58.46.88.68.05.04.16.06.33.03.25-.03.06,0,.08.01.77.61,1.55,1.19,2.32,1.8.05.02.11.03.17,0,.08-.02.14-.03.17,0,1.05.81,2.1,1.62,3.13,2.44.07.05.15.06.25.03.08-.02.13-.02.17,0,1.15.89,2.3,1.78,3.45,2.68.77.6,1.55,1.19,2.32,1.8.07.06.14.06.25.02.03-.01.08-.02.09-.01.17.11.35.25.5.38,0,.08-.01.17-.02.25.11-.02.2-.03.3-.05.25.19.53.36.74.6.02,0,0,.06,0,.08-.01.2.05.25.25.21.08-.02.14-.03.17,0,.13.09.25.19.38.28.07.05.09.11.07.21-.02.07-.01.11.05.14.22.19.44.36.69.54.01.01.06,0,.08,0,.07-.01.14-.03.21-.05,0,.06-.01.11-.01.16-.01.07.01.11.06.14.91.72,1.85,1.43,2.77,2.13.08.06.02.15.02.25.01.02,0,.06.01.08s.05.02.06.05c.69.54,1.38,1.08,2.08,1.6.05.04.08.14.08.3,0,.23,0,.06.01.08.32.25.63.48.94.72.05.02.05.08.02.15-.02.13-.01.14.14.08.07-.01.11-.01.16.01.05.03.08.07.07.13,0,.08-.06.19.03.23.34.25.66.53,1.01.77.07.06.05.15.03.23v.08s.05.02.07.05c.41.33.83.66,1.25.96.07.06.02.15.03.23,0,.03-.01.07.01.08.23.2.49.4.75.58.05.04.08.14.08.3,0,.23,0,.06.01.08.3.22.58.44.88.68.06.04.13.17.21.39,0,.03.01.05.03.07.34.25.66.53,1.01.77.07.05.09.11.07.21-.01.07-.02.13.02.15.39.28.75.58,1.14.87.07.06.08.13.06.22,0,.02-.01.06-.01.08.01.02.03.05.05.06.39.28.75.58,1.14.87.08.05.06.14.05.22,0,.03-.01.07,0,.08.14.11.3.23.44.35.09.05.03.14.03.23,0,.03,0,.06.01.07.3.25.62.49.95.72.05.02.05.08.03.14-.02.09-.01.17.06.22.15.11.3.21.44.33.05.04.12.18.2.4.12.33.01.05.03.07.25.19.49.4.75.58.08.03.09.11.07.21-.02.07-.01.11.03.14.22.19.46.35.69.54.08.07.19.11.25.19.03.07-.01.17-.01.25,0,.02.03.03.06.05.3.23.58.46.88.68.07.06.05.15.03.23,0,.03-.01.07,0,.08.11.07.21.16.32.25.13.09.23.2.36.3.13.06,0,.22.05.3.05.06.13.09.19.14.13.09.25.19.36.3.05.03.11.03.17,0,.02-.01.01-.05.02-.07.03-.2-.01-.35-.13-.44-.09-.08-.21-.16-.3-.25-.01-.01-.03-.03-.02-.07-.01-.07.02-.09.11-.11.11-.02.21-.05.3-.06-.01.08-.01.17-.02.25.05.02.09.06.13.09.21.16.41.33.62.49.01.01,0,.06,0,.08-.02.09-.01.16.06.22.19.14.39.28.56.44.06.04.09.13.09.28,0,.22,0,.06.01.08.19.14.39.28.56.44.05.02.05.09.02.15,0,.02-.06.06-.3.33-.11.33-.01.41.09.49.03.05.08.07.13.07.02,0,.07,0,.11-.02.01-.01.02-.07.01-.08-.07-.14-.23-.2-.34-.3-.05-.06-.02-.15.06-.23.02-.02.06-.06.08-.08s.06-.06.07-.07c-.02-.06-.07-.06-.15-.03-.06.02-.14.05-.19.02-.06-.01-.09-.05-.14-.08-.03-.03-.09-.06-.11-.11-.01-.05.01-.11.01-.17,0-.02.01-.07,0-.08-.14-.11-.28-.23-.44-.33-.07-.06-.02-.15-.02-.25,0-.06-.05-.08-.13-.03-.2.13-.25.25-.09.35.11.08.19.16.15.34-.02.03,0,.06.01.07.11.07.21.16.32.23.01.01.01.05.02.07.07.21.13.34.19.4.05.02.08.07.35-.15.34-.14.44-.03.58.05.09.05.05.14.03.23,0,.03,0,.06.01.08.27.21.53.44.81.63.03.05.06.08.05.15-.02.09-.02.16.06.22.15.11.28.23.44.33.04.04.07.14.08.3,0,.03,0,.06.01.08.14.11.3.22.44.33.03.05.05.09.02.15-.03.08-.02.13.01.16.16.11.3.22.44.34.01.01.01.05.01.08,0,.16.04.25.09.28.09.08.2.17.3.25.13.06.06.2.05.3.19.14.36.3.56.44.09.05.06.14.05.22,0,.03-.01.07,0,.08.05.06.13.09.19.14.05.06.11.11.17.15.01.11-.08.25.05.3.06.05.13.09.19.14.07.05.13.09.17.15.05.02.08.07.13.09.09.05.02.15.03.23,0,.03,0,.06.01.08.13.09.23.2.38.28.11.07.09.17.07.3,0,.02.01.05.03.07.14.11.28.23.44.34.05.02.05.08.02.15-.02.07-.01.11.02.15.14.11.3.22.44.33.01.02.01.05.01.08,0,.15.03.25.08.3.08.07.05.02.06.05.11.07.2.17.32.23.14.07.14.21.11.36.09.08.19.17.3.25.09.05.06.14.06.22,0,.03-.01.07,0,.08.14.11.3.23.44.34.09.05.05.14.03.23,0,.03,0,.06.01.08.08.07.16.13.25.19.06.05.09.15.08.3,0,.09.08.13.14.17.07.05.13.09.09.2-.02.07-.02.13.02.15.08.07.16.14.23.2.08.03.11.11.08.2-.02.07-.02.13.02.15.19.14.38.28.56.44.01.01.01.05.01.07,0,.06-.01.11-.01.17.08.07.14.15.23.2.08.07.16.13.11.27-.02.03-.03.08-.02.09.07.05.13.09.19.14s.13.09.19.14c.01.11-.08.25.03.32.08.03.13.09.19.14s.13.09.19.14c.01.02.05.02.05.06.01.01,0,.06-.01.08,0,.08-.03.17.06.22.08.03.13.09.19.14.06.04.09.14.08.3,0,.09.11.11.11.17,0,.06-.02.13-.02.19.01.01.01.05.03.07.08.07.16.14.25.19.08.03.09.11.07.21-.02.07-.01.11.03.14.21.16.4.34.62.49.07.06.08.14.06.22-.06.15.14.14.11.27-.02.09-.06.17.03.23.15.11.28.23.44.34,0,.08-.01.17-.01.25.09.06.17.13.25.19.06.05.13.09.19.14.01.02.03.05.05.06v.08c-.01.11.02.2.11.27.06.05.11.09.08.2-.02.09.01.16.08.2.13.09.25.19.36.3.05.02.05.08.02.15-.03.11.02.15.09.2.08.06.17.11.13.25-.02.03-.03.08-.01.08.08.11.17.19.28.25s.05.21.05.3c.09.08.21.16.3.25.03.01.07.02.07.05.02.09-.08.25.05.3.06.05.13.09.17.15.01.01,0,.06,0,.08-.01.02-.05.03-.07.03-.06.01-.13.02-.21.06,0,0-.01.05-.02.07,0,.06.02.09.08.13.05.02.05.09.02.15,0,.02-.06.06-.17.11-.09.07-.02.06.02.03.11-.06.09-.09.01-.11-.06-.01-.11.01-.14.05-.01.01-.02.06.11.03.19.02.27.09.35.15.01.02.07.02.06.05,0,.09-.01.17-.01.25.05.06.11.08.11.2-.01.1,0,.18.06.22.05.02.09.06.13.09.05.02.05.08.02.15-.02.13-.01.14.13.11.09-.03.13-.02.13.03,0,.13.02.23.09.28.09.06.16.13.11.27-.05.11-.01.11.08.07.25-.06.28-.02.28.25,0,.13.13.15.2.22.06.07.06.14-.05.22-.07.07-.11.11-.11.19.01.01.01.05.02.07.11.08.21.16.32.23.06.03.15,0,.25-.09.11-.11.15-.11.25-.07.07.02.08.07.08.13s-.03.08-.13.09c-.22.05-.3.13-.33.32,0,.06-.02.13-.06.17-.02.03-.06.05-.08.08-.06.14-.07.3-.06.44.11.05.09.17.08.3,0,.09.09.11.15.16.07.05.09.11.07.21-.02.07-.01.11.02.15.08.07.16.14.25.19.08.05.08.13.06.22-.02.11.07.13.11.19.05.09-.07.25.05.3.08.03.13.09.19.14.01.01,0,.06-.02.09-.03.14.02.21.11.27.07.03.14.07.11.19-.03.17-.05.35-.07.54-.06.08-.16.14-.15.25,0,.06,0,.11-.02.19s-.01.11.05.14c.08.07.16.14.25.19.09.05.06.14.03.23,0,.06-.01.11.06.13.07.02.08.06.06.14-.02.09-.02.11.11.28.01.01,0,.06-.01.08-.01.01-.05.03-.09.05-.02,0-.07.01-.08-.01-.19-.14-.39-.28-.56-.44-.03,0-.06-.01-.09-.01-.02,0-.07,0-.08.01s-.02.06-.02.09c.01.08.13.09.11.19,0,.06-.02.13-.02.19.01.01.03.03.05.06.06.05.13.09.19.14.01.02,0,.06.01.08,0,.13.02.23.08.3.05.02.11.05.13.09.01.05-.01.11-.01.17-.01.11-.01.23-.15.35-.05.03-.06.11-.02.15.01.05.08.07.11.11.07.04.1.14.09.28,0,.06.02.09.08.13.01.02.03.03.03.07.01.08-.01.11-.11.11-.14.02-.13.02-.11.25.03.07.01.16,0,.25,0,.09-.06.15-.16.17-.03.01-.06.01-.11.02-.09.01-.19.05-.25-.02-.08-.07-.17-.11-.25-.19-.08-.06-.14-.05-.25.06-.13.11-.13.15-.02.3.03.05.05.09.02.15-.06.02-.13.03-.17.01-.11-.07-.21-.16-.32-.23-.08-.07-.16-.14-.23-.2-.06-.03-.17,0-.27.11-.05.05-.09.09-.15.15-.09.11-.11.15-.03.23.01.02.05.02.06.05.05.09-.07.25.03.32.09.06.16.14.25.19.08.05.06.14.06.22,0,.03-.01.07,0,.08.09.08.19.17.32.23.06.03.06.07.05.14-.01.11.02.2.11.27.11.07.09.08.08.3,0,.06.02.09.08.13.06.05.14.08.17.15,0,.03,0,.07-.02.09-.01.01-.06.02-.08.02-.17-.03-.25-.16-.39-.25-.05-.02-.05-.08-.02-.15.02-.07.02-.13-.02-.15-.08-.07-.16-.14-.25-.19-.07-.06-.08-.13-.06-.22,0-.02.02-.07,0-.08-.17-.15-.36-.3-.55-.44-.07-.06-.06-.14-.06-.22.01-.05.03-.08.02-.09-.07-.05-.13-.09-.19-.14-.22-.19-.46-.35-.69-.54-.01-.01,0-.06,0-.08,0-.06.01-.11.01-.17-.07-.05-.13-.09-.19-.14-.03-.05-.09-.06-.16-.01-.05.03-.06.11-.01.14.03.05.08.07.09.11.02.25.01.27.13.35.09.08.09.06.07.21-.01.07-.01.11.03.14.09.08.21.16.3.25.01.01.01.05.01.07,0,.14.02.23.09.28.14.11.15.09.11.27-.02.13.06.14.11.2-.01.11-.01.23-.03.35-.03.14.03.21.13.25.06.05.11.11.09.2-.03.11,0,.16.07.21.06.05.14.08.15.16,0,.03-.01.08-.02.09-.02.01-.06.02-.09.01-.16-.05-.25-.16-.39-.25-.01-.02-.01-.05-.01-.08,0-.06.01-.11.02-.19-.06-.05-.11-.11-.19-.14-.05-.03-.08-.07-.06-.14.02-.07.05-.14.01-.17-.01-.05-.06-.08-.11-.11s-.07-.09-.13-.09c-.06-.01-.13.02-.2.03-.08.02-.11.01-.15-.03-.05-.03-.06-.08-.05-.14v-.08s0-.06-.01-.08c-.17-.15-.36-.3-.56-.44-.09-.08-.08-.07-.15-.34,0-.03,0-.06-.02-.07-.09-.09-.2-.17-.3-.25-.11-.08-.09-.08-.13-.35-.01-.05-.08-.07-.11-.11-.05-.09.07-.25-.03-.32-.09-.06-.16-.14-.25-.19-.08-.05-.06-.14-.06-.22,0-.03.01-.07,0-.08-.17-.15-.36-.3-.58-.53-.05-.06-.06-.01-.05.05.03.07.07.06.13-.03.02-.06.03-.11,0-.13-.02,0-.07,0-.08.11-.01.11-.05.13-.07.16-.02.07-.01.11.02.15.06.05.13.09.19.14.01.01.01.05.01.08,0,.15.05.26.16.33.03.05.06.08.06.14,0,.08-.06.19.03.23.11.07.21.16.3.25.02,0,.01.05.01.07,0,.08-.05.19.03.23.07.03.13.09.19.14.01.01,0,.07-.02.09-.02.03-.08.06-.15.06-.01-.02-.03-.05-.06-.05-.08-.07-.16-.14-.23-.2-.05-.03-.09-.06-.17,0-.03.02-.05.11-.01.14.06.05.11.11.19.14.11.08.19.16.15.34-.02.11-.01.11-.17.34-.05.06-.01.11.02.15.08.11.11.16.03.2-.07.03-.13.02-.16-.01-.08-.07-.16-.14-.25-.19-.01-.02-.05-.02-.06-.05v-.09c0-.06.05-.14.01-.17-.01-.05-.08-.07-.11-.11-.05-.02-.11-.05-.13-.09-.01-.05.01-.11.02-.19,0-.03,0-.06-.01-.08-.08-.07-.16-.13-.25-.19-.06-.05-.09-.15-.08-.3,0-.06-.02-.09-.07-.13-.11-.07-.09-.08-.15-.34,0-.03,0-.06-.03-.07-.17-.15-.36-.3-.56-.44-.1-.08-.24-.11-.41-.07-.12.02-.18.07-.19.14,0,.08-.05.19-.01.25.01.07.14.08.11.2-.02.06-.03.14-.01.17.03.07.14.08.11.19-.02.06-.02.13-.01.17.05.06.13.09.19.14.01.02.03.05.03.07.01.02,0,.06,0,.08-.02.09.01.16.08.2.13.07.17.19.13.35,0,.02.01.05.03.07.05.03.08.07.08.13,0,.02,0,.06-.02.07-.03.02-.07.03-.11.02-.15-.07-.25-.19-.38-.28-.01-.02-.01-.05-.01-.08,0-.06.05-.14.01-.17-.01-.05-.06-.08-.11-.11-.03-.05-.09-.06-.11-.11-.02-.03-.01-.11.01-.17.02-.07-.01-.11-.06-.14-.07-.03-.13-.09-.19-.14,0-.06.02-.13.02-.19,0-.03,0-.06-.01-.08-.08-.07-.16-.14-.25-.19-.05-.04-.08-.14-.08-.3,0-.03,0-.06-.01-.08-.11-.07-.21-.16-.32-.23-.03-.03-.05-.08-.02-.15s.02-.13-.01-.16c-.17-.11-.34-.25-.5-.38-.07-.05-.09-.11-.07-.21.03-.11-.02-.15-.09-.2-.15-.09-.14-.11-.13-.25,0-.03.03-.08,0-.08-.13-.13-.27-.25-.44-.34-.07-.06-.05-.15-.03-.23,0-.02.01-.07,0-.08-.09-.08-.21-.16-.32-.23s.02-.25-.05-.3c-.08-.11-.19-.17-.3-.25-.08-.07-.16-.14-.25-.19-.08-.07-.16-.14-.23-.2-.05-.02-.06-.07-.05-.14.01-.08.01-.17.03-.27,0-.09-.02-.16-.08-.2-.09-.06-.03-.05-.06-.05-.1-.08-.17-.21-.2-.4-.05-.28-.03-.01-.06-.01-.07.01-.13.02-.2.03,0-.06-.01-.11.01-.17.06-.15-.17-.11-.11-.27.02-.06.02-.13.01-.17-.01-.05-.08-.07-.13-.09-.06-.05-.17-.07-.32-.05-.11.02-.15-.06-.21-.11-.08-.03-.13-.09-.11-.19s0-.16-.07-.21c-.09-.06-.17-.11-.25-.19-.01-.01-.01-.05-.03-.07-.03-.18-.07-.3-.13-.35-.05-.02-.08-.07-.13-.09-.08-.03-.09-.11-.07-.21,0-.03.01-.07,0-.08-.06-.08-.14-.14-.22-.21-.07-.05-.13-.09-.19-.14-.13-.06-.06-.2-.05-.3-.11-.07-.21-.16-.32-.23-.06-.03-.06-.08-.05-.15.01-.08.03-.17-.06-.22-.11-.07-.2-.16-.3-.25-.01-.11.06-.25-.05-.3-.08-.03-.13-.09-.19-.14-.08-.07-.17-.13-.25-.19-.05-.04-.08-.14-.08-.3,0-.13-.14-.14-.2-.22-.06-.05-.16-.01-.25.08-.09.11-.2.13-.25.08-.14-.11-.28-.23-.44-.34-.01-.01-.01-.05-.02-.07,0-.16-.04-.25-.08-.3-.09-.08-.19-.17-.3-.25-.08-.05-.09-.11-.07-.21.02-.07.01-.11-.05-.14-.49-.4-.99-.79-1.5-1.17-.07-.06-.06-.14-.06-.22,0-.02.02-.07.01-.08-.03-.05-.08-.07-.11-.11-.19-.14-.4-.27-.58-.44-.06-.08-.16-.02-.25-.01-.07.01-.11.01-.15-.03-.05-.03-.06-.08-.05-.15.02-.09.02-.16-.06-.22-.09-.06-.17-.11-.25-.19-.05-.03-.11-.03-.17,0-.02.01-.01.05-.01.07-.02.09-.05.19-.03.27,0,.09.09.11.15.16.01.02.05.02.07.05.01.02.01.05.01.08-.02.13-.03.23.08.3.05.08-.07.25.05.3.06.05.13.09.19.14.01.02,0,.06,0,.08,0,.08-.05.19.03.23.09.05.17.13.25.19.05.03.06.08.05.15-.01.08-.02.16.07.21.06.05.13.09.19.14.05.04.08.14.08.3,0,.03,0,.06.01.08.11.07.21.16.32.23.03.03.05.09.01.16,0,.02-.03.05-.07.07-.21-.16-.42-.33-.63-.48-.08-.06-.02-.16-.03-.23,0-.03.01-.07,0-.09-.14-.11-.28-.23-.44-.33-.03-.05-.06-.08-.05-.14.07-.2-.09-.23-.19-.32-.07-.06-.14-.05-.25.06-.13.11-.13.19-.02.3.05.02.08.07.13.09.03.03.05.08.02.15s-.02.13.02.15c.08.07.16.14.23.2.08.03.11.11.07.21-.02.09.03.14.11.19.09.08.13.17.11.27,0,.03-.02.07,0,.08.14.11.27.25.44.34.07.06.06.14.06.22,0,.02-.03.08,0,.08.09.08.19.17.3.25.05.03.07.06.06.14-.02.12.02.21.11.27.03.05.09.06.11.11.01.05-.02.13-.02.19.01.01,0,.06.01.08.08.07.17.13.25.19s.08.06.08.3c0,.09.09.11.15.16.07.05.11.11.07.21-.02.09.02.15.08.2s.14.08.14.17c0,.15.03.25.08.3.13.09.25.19.39.28.01.01.01.05.01.07,0,.06-.03.14-.01.17.01.05.06.08.11.11.13.11.15.09.09.28-.03.14.17.11.11.27-.03.08-.03.17.06.22.06.05.13.09.19.14.06.05.09.15.08.3-.01.21,0,.06.01.08.08.07.16.14.25.19.11.07.09.17.08.3,0,.09.08.13.14.17.08.03.11.11.08.2-.03.11.02.15.09.2.06.05.14.08.14.17,0,.14.02.24.08.3.09.06.17.13.25.19.01.01.01.05.01.07-.01.07-.03.14-.02.19.01.05.08.07.13.09.03.03.09.06.11.11.01.05.01.11-.01.17-.01.07.01.11.06.14.06.05.13.09.19.14-.02.07-.02.13-.02.19-.01.07.02.09.06.14.11.08.16.19.16.33,0,.09.08.13.14.17.07.05.11.11.08.2-.03.11.01.16.07.21.05.02.09.06.13.09.01.02.03.03.02.07-.02.13-.03.23.08.3.05.09-.06.23.03.32.09.06.16.14.25.19.08.05.08.13.05.22-.06.15.17.11.11.27-.03.08-.06.19.03.23.09.06.08.11-.01.22-.05.06-.11.09-.16.11-.07.01-.08-.01-.06-.11.02-.09,0-.16-.07-.21-.07-.05-.01-.16-.01-.23,0-.09-.11-.11-.11-.2,0-.14-.03-.23-.09-.28-.05-.06-.11-.11-.17-.15-.08-.05-.07-.13-.07-.21,0-.02.03-.08.01-.08-.13-.13-.27-.25-.44-.34-.07-.06-.05-.15-.03-.23,0-.03.01-.07,0-.08-.13-.09-.25-.19-.39-.28-.06.01-.13.02-.19.05-.08.02-.11.01-.16-.03-.06-.08-.2-.08-.16-.25.03-.15.02-.15-.05-.22-.11-.07-.2-.17-.33-.22-.02,0-.07,0-.11.03-.01.01-.01.05-.01.08,0,.09.11.11.11.19,0,.06-.01.11-.01.17,0,.02.01.05.03.07.01.02.05.02.06.05s.01.05.01.08c-.01.11-.01.23-.03.35s.06.14.11.2c.04.22.12.37.23.46.03.03.08.07.11.11.01.01,0,.06,0,.08-.02.09-.03.17.06.22.08.03.13.09.19.14.05.04.08.14.08.3,0,.06.02.09.08.13.05.02.05.09.02.15-.01.02-.06.06-.07.07-.13-.09-.25-.19-.38-.28-.09-.05-.05-.14-.03-.23-.01-.01,0-.06-.01-.07-.13-.09-.23-.2-.38-.28-.01-.01-.07,0-.08.01-.05.03-.07.11-.03.14.05.06.13.09.11.19-.03.11-.01.17.06.22.05.02.08.07.13.09.13.07.2.16.15.34.01.08.09.11.15.16.03.05.08.07.08.13-.01.11-.03.23.08.3.03.13-.01.3-.03.44-.01.07-.01.11.05.15.03,0,.05.02.06.05.05.02.11.05.13.09.01.05-.01.11-.01.17,0,.02-.02.07,0,.08.06.05.13.09.19.14s.11.11.17.15c0,.08-.01.17-.01.25.09.06.17.11.25.19s.08.07.08.3c0,.09.08.13.15.15.11.07.09.17.07.3,0,.02.01.05.02.07.08.03.09.11.07.21-.02.07-.01.11.02.15.16.11.3.22.44.33.01.01.01.05.01.07,0,.14.03.23.09.28.08.07.15.13.11.27-.02.03-.03.08-.02.09.11.07.21.16.32.23.06.03.06.08.06.14-.02.09-.06.19.03.23.22.15.21.16.3.49,0,.02.03.03.05.06.06.01.06.07.05.14-.02.15-.01.14.07.21.06.05.11.11.19.14.11.06.09.17.08.3,0,.09.08.13.14.17.07.05.11.11.08.2-.02.07-.02.13.02.15.14.11.28.23.44.34.01.01.01.05.03.07,0,.22-.01.23.14.34.05.03.08.07.08.13-.02.07-.02.13-.02.19.07.05.11.11.17.15.05.03.08.06.07.13-.02.09-.07.2.03.23.05.02.08.07.13.09.06.03.06.08.05.15-.01.08-.03.17.05.22.09.06.16.14.25.19.05.02.06.07.05.14-.02.09-.01.16.06.22.1.07.16.18.16.32,0,.06.02.09.08.13.05.02.05.09.02.15-.11.08-.15.11-.17.13l-.09.03ZM90.64,60.09s-.08-.07.02-.25c.01-.01.05-.03.07-.07.02-.06.03-.11.01-.15-.03-.08-.16-.11-.21-.07-.03.02-.06.08-.06.15.01.01-.01.06-.01.08,0,.07-.03.16.05.21.09-.09.06-.06,0,0-.07.05-.09.11-.08.15,0,.02.01.05.03.05.08,0,.13-.03.25-.17-.02,0-.07.05-.07.07.01.01.03.05.06.03.06.01.11-.01.14-.05.02-.03.02-.07.01-.08-.02-.03-.07-.01-.21.09h0ZM78.45,86.17c-.11-.06-.19-.16-.32-.2-.03,0-.07,0-.11.03-.02.01-.01.05-.01.07,0,.06.05.08.09.11.05.07.01.16,0,.25.01.01.01.05.02.07.11.07.2.16.32.23.01.02.05.02.07.02.08.01.11-.02.11-.11,0-.09.03-.17.02-.25-.02-.12-.15-.15-.21-.23h.01ZM71.61,80.32c-.06-.05-.13-.09-.19-.14-.01-.02-.03-.05-.06-.05-.05-.02-.09-.02-.17,0-.02.06-.01.11.02.15.06.05.13.09.17.15.07.05.02.15.01.23,0,.02.01.05.02.07.07.09.21.07.32-.05.08-.08.11-.19.05-.22-.05-.07-.11-.12-.17-.15h0ZM81.35,84.52s.07-.01.11-.02c.11-.06.16-.11.19-.2.05-.13-.06-.13-.11-.19-.01-.01-.07.01-.09.01-.02.01-.06.05-.06.05-.01.13-.02.23-.03.35h0ZM77.96,69.84c-.06-.05-.13-.09-.19-.14-.02,0-.07.01-.09.01-.06.02-.11.08-.07.14.03.07.11.11.17.15.08.06.19.05.21-.01.05-.09.02-.13-.03-.15ZM29.98,2.96s.08.07.13.09c.05.02.11.01.17,0,.02-.07.02-.13-.01-.16-.06-.05-.13-.09-.19-.14-.05-.02-.11-.03-.17.01-.06.02-.02.13.07.2h0ZM77.78,61.49s-.02.07-.01.08c.03.05.08.07.13.09.01.01.05,0,.09-.01.01-.01.05-.03.06-.06.05-.09-.09-.21-.2-.16-.03.01-.06.05-.07.06ZM84.18,49.98l-.07.07s-.06.11-.06.17c.07-.01.13-.02.19-.08.03-.02.05-.03.07-.07.06-.06.06-.11.06-.17-.07.01-.13.03-.19.08ZM79.48,90.67s-.06.01-.08.01c-.03.08-.02.13.02.11.02,0,.07-.01.09-.01.02-.07.01-.11-.03-.11ZM78.62,90.12s0,.06-.01.08c.01.05.06.05.14.01,0-.02.02-.07.01-.08,0-.06-.05-.06-.14-.01ZM79.33,90.33s-.07.07-.06.14c.03-.01.07-.01.11-.02.03-.01.07-.07.06-.14-.03.01-.06.01-.11.02ZM79.14,86.25c-.06.02-.07.07-.06.14.02,0,.07-.01.08-.01.06-.02.07-.07.06-.14-.02-.01-.06,0-.08.01ZM88.59,72.83s-.07.01-.09.01c-.02.07-.01.11.02.13.03-.01.06-.01.11-.03.02-.06.01-.11-.03-.11h0ZM92.4,64.21s.06.03.14.01c0-.02.01-.06.01-.08-.01-.03-.06-.03-.14-.01-.01.03-.01.06-.01.08ZM91.37,62.1s-.06.01-.11.03c-.02.07-.01.11.03.11.02,0,.07-.01.09-.01.03-.07.01-.11-.02-.13h0ZM83.23,48.77s-.06.01-.11.03c-.02.07-.01.11.03.11.02,0,.07-.01.09-.01.02-.07.01-.11-.02-.13h0ZM20.6.25s0-.06.01-.08c-.07,0-.13.03-.14.07-.02.03,0,.06-.01.08.07,0,.11-.02.14-.07Z"/>
      <g id="_Слой_3-3" data-name=" Слой 3-3">
        <g class="cls-20">
          <circle class="cls-12" cx="29.29" cy="60.73" r="29.21" transform="translate(-32.38 87.98) rotate(-88.09)"/>
        </g>
        <g class="cls-17">
          <circle class="cls-13" cx="31.21" cy="60.78" r="14.43"/>
        </g>
        <g class="cls-5">
          <path class="cls-14" d="M32.87,64.53c-3.35-1.6-8.27-3.5-15.55-4.01-7.09-.49-14.19,1.07-17.71,2.13l-3.78,19.84,13.12,6.52,23.42-24.22.5-.27Z"/>
        </g>
        <g class="cls-21">
          <path class="cls-14" d="M57.56,62.7c-2.98-1.14-8.25-2.69-14.65-1.85-3.21.42-6.31,1.38-10.54,3.54-4.82,2.46-14.93,8.22-23.99,18.38l20.69,30.8,35.11-48.81-6.62-2.07h0Z"/>
        </g>
        <g class="cls-18">
          <path class="cls-10" d="M27.61,67c-2.79-1.33-6.48-2.79-12.55-3.21-5.9-.41-12.74,1.24-15.67,2.13"/>
        </g>
        <g class="cls-23">
          <path class="cls-11" d="M20.5,71.7c-1.93-.91-4.2-1.76-8.38-2.05-4.07-.28-10.26,1.16-12.28,1.78"/>
        </g>
        <g class="cls-6">
          <path class="cls-11" d="M14.69,76.46c-.99-.47-1.8-.76-3.95-.91-2.08-.14-6.45,1.01-7.49,1.32"/>
        </g>
        <g class="cls-16">
          <path class="cls-11" d="M8.93,85.64c7.49-8.72,15.02-13.88,20.12-16.82,8.47-4.9,13.61-5.61,15.13-5.8,6.64-.79,12.11.69,15.3,1.85"/>
        </g>
        <g class="cls-22">
          <path class="cls-11" d="M10.17,89.9c7.49-8.72,15.02-13.88,20.12-16.82,8.47-4.9,13.61-5.61,15.13-5.8,6.64-.79,12.97-.19,16.15.96"/>
        </g>
        <g class="cls-19">
          <path class="cls-11" d="M13.41,95.2c7.31-8.88,14.73-14.18,19.78-17.23,8.37-5.06,13.5-5.89,15.02-6.11,6.62-.93,12.97-.46,16.18.63"/>
        </g>
        <g>
          <g class="cls-24">
            <path class="cls-10" d="M16.84,101.29c7.19-8.97,14.53-14.39,19.53-17.5,8.3-5.18,13.42-6.08,14.93-6.31,6.61-1.02,12.96-.63,16.18.41"/>
          </g>
          <circle class="cls-9" cx="29.29" cy="60.73" r="29.21" transform="translate(-32.38 87.98) rotate(-88.09)"/>
        </g>
        <circle id="SVGID-3" class="cls-7" cx="29.29" cy="60.73" r="29.21" transform="translate(-32.38 87.98) rotate(-88.09)"/>
      </g>
      <g>
        <g class="cls-2">
          <text class="cls-1" transform="translate(29.79 29.95) rotate(.49)"><tspan x="0" y="0">О</tspan></text>
        </g>
        <g class="cls-2">
          <text class="cls-3" transform="translate(33.21 30.02) rotate(6.23)"><tspan x="0" y="0">т</tspan></text>
        </g>
        <g class="cls-2">
          <text class="cls-3" transform="translate(35.66 30.3) rotate(11.19)"><tspan x="0" y="0">к</tspan></text>
        </g>
        <g class="cls-2">
          <text class="cls-3" transform="translate(38.21 30.82) rotate(16.23)"><tspan x="0" y="0">р</tspan></text>
        </g>
        <g class="cls-2">
          <text class="cls-3" transform="translate(40.68 31.55) rotate(21.68)"><tspan x="0" y="0">ы</tspan></text>
        </g>
        <g class="cls-2">
          <text class="cls-3" transform="translate(43.47 32.68) rotate(27.3)"><tspan x="0" y="0">в</tspan></text>
        </g>
        <g class="cls-2">
          <text class="cls-3" transform="translate(45.86 33.94) rotate(32.62)"><tspan x="0" y="0">а</tspan></text>
        </g>
        <g class="cls-2">
          <text class="cls-4" transform="translate(48.14 35.42) rotate(37.88)"><tspan x="0" y="0">я</tspan></text>
        </g>
        <g class="cls-2">
          <text class="cls-3" transform="translate(51.59 38.34) rotate(46.6)"><tspan x="0" y="0">г</tspan></text>
        </g>
        <g class="cls-2">
          <text class="cls-3" transform="translate(53.23 40.1) rotate(51.21)"><tspan x="0" y="0">о</tspan></text>
        </g>
        <g class="cls-2">
          <text class="cls-3" transform="translate(54.67 41.89) rotate(56.26)"><tspan x="0" y="0">р</tspan></text>
        </g>
        <g class="cls-2">
          <text class="cls-3" transform="translate(56.1 44.04) rotate(60.95)"><tspan x="0" y="0">и</tspan></text>
        </g>
        <g class="cls-2">
          <text class="cls-3" transform="translate(57.35 46.32) rotate(65.82)"><tspan x="0" y="0">з</tspan></text>
        </g>
        <g class="cls-2">
          <text class="cls-3" transform="translate(58.3 48.49) rotate(70.43)"><tspan x="0" y="0">о</tspan></text>
        </g>
        <g class="cls-2">
          <text class="cls-3" transform="translate(59.06 50.67) rotate(75.27)"><tspan x="0" y="0">н</tspan></text>
        </g>
        <g class="cls-2">
          <text class="cls-3" transform="translate(59.7 53.17) rotate(80.23)"><tspan x="0" y="0">т</tspan></text>
        </g>
        <g class="cls-2">
          <text class="cls-3" transform="translate(60.11 55.58) rotate(85.58)"><tspan x="0" y="0">ы</tspan></text>
        </g>
      </g>
    </g>
  </g>
</svg>