<?xml version="1.0" encoding="UTF-8"?>
<svg id="_Слой_2" data-name="Слой 2" xmlns="http://www.w3.org/2000/svg" viewBox="0 0 1154.55 326.7">
  <defs>
    <style>
      .cls-1 {
        opacity: .3;
      }

      .cls-2 {
        fill: none;
        stroke: #004000;
        stroke-miterlimit: 4.28;
        stroke-width: 5.13px;
      }
    </style>
  </defs>
  <g id="_Слой_1-2" data-name="Слой 1">
    <g id="_линии" data-name=" линии" class="cls-1">
      <path class="cls-2" d="M203.6,209.81c-25.11,0-51.46-9.29-74.82-17.5-7.19-2.52-13.94-4.92-20.4-6.93L4.34,152.88l.34-.43,104.04,32.56c6.46,2.01,13.26,4.41,20.45,6.93,24.26,8.51,51.76,18.22,77.6,17.37,28.06-.9,42.82-15.74,52.58-28.62,3.17-4.19,6.25-8.47,9.24-12.62,8.13-11.29,16.55-22.97,27.77-33.88,8.9-8.64,19.93-17.71,31.96-26.18,13.18-9.33,27.25-17.88,41.92-25.41,16.13-8.3,32.56-15.18,48.77-20.45,17.92-5.82,35.64-9.58,52.53-11.25,33.88-3.33,64.72,1.71,91.64,15.1,22.37,11.12,41.37,24.85,59.76,38.12,16,11.55,32.56,23.53,51.25,33.75,21.65,11.81,45.05,22.71,69.6,32.38,20.71,8.17,46.42,18.31,72.94,16.04,22.42-1.93,35.38-10.95,39.61-27.55,3.6-14.12.17-30.89-2.57-44.32-.94-4.58-1.84-8.94-2.27-12.45-2.4-19.38-.86-35.38,4.7-48.89,3.46-8.43,8.6-15.96,15.18-22.37,7.4-7.15,16.9-13.09,28.24-17.71,9.8-3.98,20.83-6.88,32.85-8.6,11.42-1.62,23.44-2.18,35.72-1.62,24.17,1.11,47.79,6.41,66.56,15.02,10.01,4.58,19.12,10.1,27.03,16.39,7.53,5.94,14.03,12.66,19.34,19.93,10.01,13.65,15.79,29.22,16.64,44.96h-.77c-1.84-33.54-25.28-63.78-62.76-80.89C994.5,0,938.03-2.01,900.04,13.43c-37.65,15.27-53.26,44.23-47.79,88.51.43,3.51,1.33,7.83,2.27,12.41,2.78,13.47,6.2,30.29,2.57,44.45-1.97,7.74-5.94,13.94-11.81,18.44-3.29,2.52-7.27,4.62-11.81,6.16-4.83,1.67-10.44,2.78-16.68,3.29-2.57.21-5.13.34-7.78.34-9.63,0-19.85-1.46-31.06-4.41-12.66-3.33-24.85-8.13-34.65-12.02-24.6-9.71-48.04-20.62-69.69-32.43-18.78-10.23-35.33-22.2-51.34-33.8-18.35-13.26-37.35-26.99-59.64-38.07-26.74-13.26-57.32-18.31-90.99-15.02-68.19,6.8-138.3,47.91-174.67,83.21-11.17,10.86-19.55,22.5-27.68,33.8-2.99,4.15-6.07,8.43-9.24,12.62-6.46,8.51-12.84,14.63-20.11,19.21-4.54,2.87-9.41,5.09-14.59,6.72-5.73,1.75-11.98,2.78-18.57,2.99h-3.21.01Z"/>
      <path class="cls-2" d="M257.63,324.12c-25.11,0-51.46-9.29-74.82-17.5-7.19-2.52-13.94-4.92-20.4-6.93l-104.04-32.56.34-.43,104.08,32.56c6.46,2.01,13.26,4.41,20.45,6.93,24.26,8.51,51.76,18.22,77.6,17.37,28.06-.9,42.82-15.74,52.58-28.62,3.17-4.19,6.25-8.47,9.24-12.62,8.13-11.29,16.55-22.97,27.77-33.88,8.9-8.64,19.93-17.71,31.96-26.18,13.18-9.33,27.25-17.88,41.92-25.41,16.13-8.3,32.56-15.18,48.77-20.45,17.92-5.82,35.64-9.58,52.53-11.25,33.88-3.33,64.72,1.71,91.64,15.1,22.37,11.12,41.37,24.85,59.76,38.12,16,11.55,32.56,23.53,51.25,33.75,21.65,11.81,45.05,22.71,69.6,32.38,20.71,8.17,46.42,18.31,72.94,16.04,22.42-1.93,35.38-10.95,39.61-27.55,3.6-14.12.17-30.89-2.57-44.32-.94-4.58-1.84-8.94-2.27-12.45-2.4-19.38-.86-35.38,4.7-48.89,3.46-8.43,8.6-15.96,15.18-22.37,7.4-7.15,16.9-13.09,28.24-17.71,9.8-3.98,20.83-6.88,32.85-8.6,11.42-1.62,23.44-2.18,35.72-1.62,24.17,1.11,47.79,6.41,66.56,15.02,10.01,4.58,19.12,10.1,27.03,16.39,7.53,5.94,14.03,12.66,19.34,19.93,10.01,13.65,15.79,29.22,16.64,44.96h-.77c-1.84-33.54-25.28-63.78-62.76-80.89-39.74-18.18-96.21-20.19-134.2-4.75-37.65,15.27-53.26,44.23-47.79,88.51.43,3.51,1.33,7.83,2.27,12.41,2.78,13.47,6.2,30.29,2.57,44.45-1.97,7.74-5.94,13.94-11.81,18.44-3.29,2.52-7.27,4.62-11.81,6.16-4.83,1.67-10.44,2.78-16.68,3.29-2.57.21-5.13.34-7.78.34-9.63,0-19.85-1.46-31.06-4.41-12.66-3.33-24.85-8.13-34.65-12.02-24.6-9.71-48.04-20.62-69.69-32.43-18.78-10.23-35.33-22.2-51.34-33.8-18.35-13.26-37.35-26.99-59.64-38.07-26.74-13.26-57.32-18.31-90.99-15.02-68.1,6.72-138.26,47.79-174.62,83.12-11.17,10.86-19.55,22.5-27.68,33.8-2.99,4.15-6.03,8.43-9.24,12.62-6.46,8.51-12.84,14.63-20.11,19.21-4.54,2.87-9.41,5.09-14.59,6.72-5.73,1.75-11.98,2.78-18.57,2.99-1.11.09-2.18.13-3.29.13h0Z"/>
    </g>
  </g>
</svg>