<?xml version="1.0" encoding="UTF-8"?>
<svg id="_Слой_2" data-name="Слой 2" xmlns="http://www.w3.org/2000/svg" viewBox="0 0 54.18 97.9">
  <defs>
    <style>
      .cls-1 {
        stroke-linejoin: round;
      }

      .cls-1, .cls-2 {
        fill: none;
      }

      .cls-1, .cls-2, .cls-3 {
        stroke: #000;
        stroke-width: .34px;
      }

      .cls-2, .cls-3 {
        stroke-miterlimit: 6.71;
      }

      .cls-3 {
        fill: #fff;
      }
    </style>
  </defs>
  <g id="_Слой_1-2" data-name="Слой 1">
    <g>
      <path class="cls-1" d="M22.11,64.99c-.21,1.33-1.25,2.16-2.19,2.06-.69-.07-1.36-.66-1.44-1.28-.12-.94,1.08-2.15,3.16-2.58-.46.07-2.34.3-3.46-.87-.07-.07-.94-1-.64-1.6.21-.42.91-.46,1.2-.48,1.4-.07,2.5.89,2.96,1.33-.77-1.4-.75-2.53-.68-3.09.03-.22.18-1.58.72-1.68.56-.1,1.18,1.21,1.24,1.34.43.93.39,1.8.32,2.29.56-1.32,1.38-1.93,1.79-2.18.4-.25,1.11-.68,1.56-.41.5.3.44,1.31.2,1.94-.33.86-1.09,1.24-1.31,1.34.32-.19,1.17-.64,2.22-.48.54.09,1.54.41,1.59.94.06.58-1.06,1.12-1.6,1.38-.81.39-1.56.51-2.05.56.44.23,1.35.79,1.75,1.85.1.27.42,1.09.06,1.45-.42.42-1.52-.03-2.07-.38-.82-.51-1.21-1.26-1.37-1.64.11.76.15,2.01-.56,3.1-.17.25-.68,1.04-1.19.94-.46-.09-.66-.85-.72-1.11-.3-1.16.21-2.23.5-2.74h0Z"/>
      <path class="cls-2" d="M19.49,16.77c-1.82,1.08-1.08,3.24-2.89,4.5-1.4.98-3.16.6-3.45.53-1.65-.36-2.6-1.5-2.88-1.88-.82-1.09-.4-1.5-1.2-2.6-.97-1.33-1.77-1.01-2.62-2.28-.19-.29-.94-1.49-.67-3.03.03-.21.28-1.46,1.33-2.34,1-.83,1.59-.4,2.34-1.12,1-.97.28-2.11,1.17-3.21.78-.98,2.35-1.34,3.56-1.09,1.81.36,1.78,1.89,4.27,3.1,1.48.72,1.75.3,2.85,1.03.4.27,2.54,1.78,2.45,4.25-.05,1.28-.7,2.62-1.77,3.35-1.02.69-1.47.19-2.46.78h-.02Z"/>
      <path class="cls-2" d="M11.72,78.89c-.66.4-.4,1.19-1.05,1.65-.51.36-1.15.21-1.26.19-.6-.13-.95-.55-1.05-.69-.3-.4-.15-.55-.44-.95-.36-.48-.65-.37-.96-.83-.07-.11-.34-.54-.25-1.11.01-.07.1-.53.48-.85.36-.3.58-.15.85-.41.36-.36.1-.77.43-1.17.29-.36.86-.49,1.3-.4.66.13.65.69,1.56,1.13.54.26.64.11,1.04.38.15.1.93.65.9,1.56-.02.47-.25.96-.65,1.23-.38.25-.54.07-.9.28h0Z"/>
      <path class="cls-2" d="M27.23,85.63c.76-.46,1.68-1.03,2.83-1.06,1.46-.04,1.56.83,3.44,1.24,1.59.35,1.84-.2,3.95.2,1.82.35,2.26.88,2.44,1.16.03.05.59.95.17,1.8-.35.72-1.2,1.01-1.82.99-.72-.02-.89-.46-1.3-.32-.71.23-.37,1.6-1.19,2.13-.8.52-1.72-.42-2.45.11-.7.5-.21,1.6-.91,2.06-.68.45-1.44-.45-2.31-.05-.97.44-.63,1.85-1.6,2.29-.85.4-1.42-.54-2.48-.2-1.1.35-1.06,1.52-2.09,1.72-.71.13-1.56-.27-1.83-.87-.23-.52.04-1.03.67-2.29,1.05-2.09,1.57-3.13,1.66-3.4.64-1.97.01-2.55.83-3.8.54-.83,1.27-1.27,1.97-1.7h0Z"/>
      <path class="cls-2" d="M11.13,35.99c.87.58,2.23,1.41,3.97,2.19,3.03,1.36,8.14,3.65,13.37,1.89,1.24-.42,3.5-1.4,5.72-3.92-2.63.46-5.86.81-9.55.7-2.56-.07-4.87-.36-6.87-.71,1.59-.53,3.27-1.16,5.04-1.93,1.34-.58,2.6-1.18,3.77-1.78.32.09,4.56,1.23,7.92-1.64,2.73-2.34,2.89-5.62,2.91-6.17-.98,1.07-2.37,2.38-4.23,3.6-1.69,1.11-3.29,1.83-4.57,2.3,1.46-1.97,2.95-4.17,4.42-6.59.9-1.49,1.71-2.95,2.46-4.35.18.31.81,1.29,2.06,1.73,1.4.5,2.93.09,3.85-.74.89-.81.45-1.33,1.43-2.93,1.14-1.86,2.18-1.89,2.4-3.21.15-.89-.16-1.85-.71-2.49-.8-.92-1.53-.48-2.95-1.33-1.74-1.04-1.52-2.23-2.97-2.68-.89-.28-2.09-.17-2.86.45-.76.61-.52,1.21-1.44,2.2-.79.84-1.17.61-1.84,1.32-.79.83-1.38,2.34-.93,3.83.5,1.68,2.03,2.38,2.27,2.49-1.53,3.74-3.44,6.41-4.82,8.09-2.06,2.49-5.48,6.62-11.02,7.78-1.01.21-1.87.28-2.43.3-2.35-.32-4.7-.63-7.05-.94-.09.3-.17.64-.24,1.01-.07.37-.11.72-.14,1.03,1.02.17,2.03.34,3.05.5h0Z"/>
      <circle class="cls-2" cx=".75" cy="81.97" r=".58"/>
      <circle class="cls-3" cx="35.18" cy="79.36" r=".21"/>
      <circle class="cls-3" cx="30.76" cy="48.91" r=".21"/>
      <circle class="cls-3" cx="19.23" cy="84.72" r=".21"/>
      <circle class="cls-2" cx="52.5" cy="86.58" r="1.51"/>
      <circle class="cls-3" cx="25.37" cy=".38" r=".21"/>
      <circle class="cls-2" cx="8.38" cy="65.56" r=".29"/>
      <circle class="cls-3" cx="27.56" cy="22.38" r=".21"/>
      <circle class="cls-2" cx="8.62" cy="46.65" r=".29"/>
    </g>
  </g>
</svg>