<?xml version="1.0" encoding="UTF-8"?>
<svg id="_Слой_2" data-name="Слой 2" xmlns="http://www.w3.org/2000/svg" viewBox="0 0 96.8 60.46">
  <defs>
    <style>
      .cls-1 {
        stroke-linejoin: round;
      }

      .cls-1, .cls-2 {
        fill: none;
      }

      .cls-1, .cls-2, .cls-3 {
        stroke: #000;
        stroke-width: .34px;
      }

      .cls-2, .cls-3 {
        stroke-miterlimit: 6.71;
      }

      .cls-3 {
        fill: #fff;
      }
    </style>
  </defs>
  <g id="_Слой_1-2" data-name="Слой 1">
    <g>
      <path class="cls-1" d="M32.19,25.2c-1.35.01-2.34-.87-2.4-1.8-.05-.7.42-1.45,1.02-1.63.91-.28,2.3.7,3.07,2.68-.15-.45-.69-2.25.27-3.56.05-.07.83-1.09,1.47-.9.46.14.6.81.67,1.1.31,1.37-.45,2.62-.81,3.14,1.25-.99,2.37-1.17,2.93-1.2.22-.01,1.59-.09,1.77.43.19.54-1,1.37-1.11,1.45-.84.58-1.72.68-2.2.7,1.39.33,2.13,1.03,2.45,1.4.32.36.86.97.67,1.47-.21.54-1.21.66-1.88.52-.9-.18-1.4-.87-1.54-1.07.24.28.83,1.04.85,2.11,0,.55-.14,1.58-.66,1.72-.57.15-1.28-.85-1.63-1.34-.52-.73-.76-1.45-.89-1.93-.15.48-.55,1.46-1.53,2.03-.25.15-1,.59-1.42.3-.49-.34-.22-1.5.02-2.1.37-.89,1.04-1.4,1.39-1.62-.74.23-1.96.48-3.15-.03-.28-.12-1.14-.5-1.13-1.01,0-.47.73-.79.97-.9,1.09-.49,2.23-.17,2.78.03h0Z"/>
      <path class="cls-2" d="M79.27,14.49c-1.38-1.61-3.38-.52-4.92-2.09-1.2-1.21-1.12-3.01-1.11-3.31.08-1.69,1.05-2.82,1.37-3.16.93-.99,1.41-.64,2.37-1.62,1.15-1.17.7-1.92,1.81-2.96.25-.23,1.32-1.18,2.86-1.17.21,0,1.48.03,2.53.92.99.85.66,1.5,1.5,2.11,1.13.82,2.12-.07,3.35.61,1.09.61,1.71,2.09,1.68,3.32-.05,1.85-1.56,2.07-2.34,4.73-.46,1.58,0,1.77-.54,2.98-.19.44-1.33,2.81-3.78,3.13-1.28.17-2.7-.25-3.6-1.18-.86-.89-.43-1.42-1.18-2.29h0Z"/>
      <path class="cls-2" d="M16.73,17.3c-.5-.59-1.23-.19-1.81-.76-.44-.44-.41-1.1-.4-1.21.03-.62.38-1.03.5-1.15.34-.36.52-.23.87-.6.42-.43.25-.7.66-1.09.09-.09.48-.43,1.05-.43.08,0,.54,0,.93.34.36.31.24.55.55.77.41.3.78-.03,1.23.22.4.22.62.76.61,1.21-.02.68-.57.76-.85,1.73-.17.58,0,.65-.19,1.09-.07.16-.49,1.03-1.38,1.15-.46.06-.99-.09-1.32-.43-.32-.33-.15-.52-.43-.84h-.01Z"/>
      <path class="cls-2" d="M12.71,33.72c.58.67,1.29,1.48,1.52,2.61.28,1.43-.56,1.67-.64,3.59-.07,1.62.51,1.78.47,3.92-.03,1.85-.48,2.38-.73,2.6-.05.05-.84.74-1.75.48-.76-.22-1.19-1.01-1.28-1.62-.1-.71.3-.96.1-1.34-.35-.66-1.64-.09-2.29-.81-.64-.7.12-1.76-.52-2.4-.62-.61-1.62.06-2.18-.54-.56-.6.2-1.49-.34-2.28-.6-.89-1.93-.31-2.53-1.19-.53-.77.29-1.48-.22-2.48-.53-1.02-1.68-.79-2.04-1.76-.25-.68,0-1.59.55-1.95.47-.32,1.02-.13,2.37.28,2.23.68,3.35,1.02,3.64,1.06,2.05.31,2.52-.42,3.89.18.9.4,1.46,1.03,2,1.65h0Z"/>
      <path class="cls-2" d="M58.92,9.49c-.43.96-1.01,2.43-1.5,4.28-.83,3.21-2.23,8.64.39,13.5.62,1.15,1.97,3.21,4.82,4.98-.9-2.52-1.78-5.65-2.3-9.3-.36-2.54-.48-4.86-.46-6.89.79,1.48,1.7,3.03,2.75,4.64.8,1.23,1.6,2.37,2.4,3.42-.04.34-.45,4.7,2.96,7.52,2.76,2.29,6.03,1.9,6.56,1.83-1.21-.79-2.74-1.93-4.25-3.56-1.38-1.48-2.36-2.93-3.04-4.12,2.19,1.11,4.6,2.21,7.23,3.24,1.62.64,3.19,1.19,4.7,1.68-.28.23-1.13,1.01-1.36,2.32-.25,1.46.4,2.91,1.37,3.66.94.74,1.38.22,3.13.92,2.03.81,2.23,1.83,3.58,1.83.91,0,1.8-.47,2.33-1.11.77-.94.22-1.59.81-3.13.73-1.89,1.94-1.87,2.15-3.38.13-.93-.17-2.09-.93-2.75-.72-.64-1.29-.3-2.41-1.05-.97-.64-.8-1.05-1.6-1.59-.96-.64-2.54-.96-3.93-.27-1.58.78-2.01,2.4-2.07,2.66-3.95-.88-6.9-2.3-8.79-3.39-2.8-1.61-7.45-4.28-9.53-9.55-.38-.96-.59-1.79-.7-2.35-.09-2.37-.17-4.74-.26-7.11-.32-.03-.66-.06-1.03-.07-.38,0-.72.01-1.04.04,0,1.03.01,2.06.02,3.09h0Z"/>
      <circle class="cls-2" cx="11.84" cy="7" r=".58"/>
      <circle class="cls-3" cx="20.22" cy="40.51" r=".21"/>
      <circle class="cls-3" cx="49.49" cy="31.02" r=".21"/>
      <circle class="cls-3" cx="12.26" cy="25.69" r=".21"/>
      <circle class="cls-2" cx="16.03" cy="58.78" r="1.51"/>
      <circle class="cls-3" cx="96.42" cy="17.52" r=".21"/>
      <circle class="cls-2" cx="29.31" cy="11.76" r=".29"/>
      <circle class="cls-3" cx="75.11" cy="23.39" r=".21"/>
      <circle class="cls-2" cx="47.99" cy="8.82" r=".29"/>
    </g>
  </g>
</svg>