<?xml version="1.0" encoding="UTF-8"?>
<svg id="_Слой_2" data-name="Слой 2" xmlns="http://www.w3.org/2000/svg" viewBox="0 0 68.44 85.03">
  <defs>
    <style>
      .cls-1 {
        stroke-linejoin: round;
      }

      .cls-1, .cls-2 {
        fill: none;
      }

      .cls-1, .cls-2, .cls-3 {
        stroke: #000;
        stroke-width: .34px;
      }

      .cls-2, .cls-3 {
        stroke-miterlimit: 6.71;
      }

      .cls-3 {
        fill: #fff;
      }
    </style>
  </defs>
  <g id="_Слой_1-2" data-name="Слой 1">
    <g>
      <path class="cls-1" d="M43,32.87c.81-.93,2.01-1.08,2.68-.56.5.39.74,1.17.5,1.68-.36.78-1.87,1.15-3.69.49.4.17,1.97.89,2.27,2.33.02.09.25,1.23-.28,1.55-.37.23-.93-.07-1.16-.2-1.12-.61-1.52-1.89-1.66-2.45-.07,1.46-.63,2.33-.95,2.73-.13.16-.89,1.14-1.36.96-.48-.19-.34-1.51-.32-1.64.11-.93.56-1.59.84-1.93-1.07.75-1.99.83-2.44.84-.43,0-1.19,0-1.41-.43-.25-.48.28-1.23.77-1.6.67-.51,1.44-.44,1.66-.41-.34,0-1.21-.05-1.95-.69-.38-.33-1-1.05-.78-1.49.23-.48,1.36-.36,1.9-.31.82.09,1.46.35,1.86.55-.23-.39-.67-1.25-.48-2.27.05-.25.2-1.04.64-1.15.53-.13,1.16.75,1.42,1.28.39.79.34,1.56.28,1.93.28-.64.85-1.64,1.92-2.13.25-.12,1.03-.48,1.38-.16.32.29.11.98.03,1.21-.32,1.05-1.23,1.63-1.7,1.89h.02Z"/>
      <path class="cls-2" d="M21.96,71.6c1.93.03,2.4-2,4.4-2.12,1.56-.09,2.74,1.05,2.94,1.24,1.11,1.07,1.3,2.42,1.34,2.84.11,1.23-.41,1.36-.32,2.6.11,1.49.89,1.64.94,3.03.01.32.02,1.61-.93,2.67-.13.15-.91,1-2.15,1.18-1.17.17-1.43-.45-2.35-.25-1.24.28-1.23,1.5-2.44,1.93-1.08.38-2.47-.09-3.29-.85-1.23-1.15-.48-2.33-1.83-4.46-.81-1.27-1.21-1.07-1.71-2.17-.18-.4-1.12-2.6.13-4.48.65-.97,1.8-1.7,2.99-1.76,1.13-.05,1.23.56,2.29.58h-.01Z"/>
      <path class="cls-2" d="M57.73,27.03c.7.01.88-.73,1.61-.78.57-.03,1,.38,1.07.46.41.39.48.89.49,1.04.04.45-.15.5-.11.95.04.54.33.6.34,1.11,0,.11,0,.59-.34.98-.05.05-.34.36-.78.43-.43.06-.52-.17-.86-.09-.46.1-.45.55-.89.7-.4.14-.91-.03-1.2-.31-.45-.42-.17-.85-.67-1.63-.3-.46-.44-.39-.62-.79-.07-.15-.41-.95.05-1.64.24-.36.66-.62,1.09-.64.41-.02.45.21.84.21h-.01Z"/>
      <path class="cls-2" d="M48.91,14.38c-.81,0-1.8,0-2.7-.54-1.15-.67-.81-1.39-2.07-2.6-1.07-1.03-1.53-.72-2.97-2.05-1.25-1.14-1.34-1.76-1.34-2.07,0-.06,0-1.03.72-1.49.62-.39,1.42-.21,1.89.1.54.36.48.78.86.87.66.16,1.05-1.07,1.94-1.09.87-.02,1.13,1.14,1.96,1.09.78-.05.93-1.14,1.69-1.17.75-.02.9,1.04,1.76,1.15.97.12,1.38-1.13,2.34-1.02.85.1.85,1.09,1.83,1.34,1.02.25,1.56-.67,2.44-.34.62.23,1.09.96,1.01,1.55-.07.51-.52.78-1.62,1.46-1.81,1.12-2.72,1.68-2.92,1.85-1.44,1.22-1.23,1.97-2.47,2.56-.81.38-1.59.38-2.34.38h0Z"/>
      <path class="cls-2" d="M37.65,60.66c-.4-.87-1.05-2.16-2.03-3.61-1.7-2.51-4.58-6.74-9.49-7.87-1.17-.27-3.39-.58-6.32.3,2.27.9,4.95,2.18,7.76,4.03,1.96,1.29,3.62,2.61,5,3.84-1.49-.35-3.11-.66-4.84-.92-1.32-.19-2.59-.33-3.79-.42-.21-.23-2.95-3.14-6.94-2.51-3.24.51-4.93,2.99-5.21,3.4,1.28-.36,2.98-.71,5.01-.77,1.85-.05,3.44.15,4.66.4-2.08.83-4.29,1.83-6.59,3.01-1.41.72-2.74,1.47-3.99,2.21,0-.33-.01-1.39-.77-2.33-.85-1.06-2.23-1.48-3.34-1.27-1.07.2-.99.82-2.52,1.59-1.78.9-2.6.42-3.41,1.35-.54.62-.76,1.52-.64,2.27.18,1.1.96,1.11,1.65,2.44.85,1.64.11,2.46,1.02,3.51.56.64,1.54,1.13,2.44,1.03.88-.11.98-.7,2.17-1.02,1.02-.28,1.2.09,2.06-.14,1.01-.27,2.19-1.15,2.56-2.53.42-1.55-.44-2.82-.57-3.02,2.98-2.17,5.74-3.34,7.62-3.98,2.79-.95,7.43-2.52,12.29-.77.89.32,1.58.68,2.03.93,1.68,1.37,3.35,2.74,5.03,4.11.21-.19.44-.42.67-.67.23-.25.43-.5.6-.74-.71-.62-1.42-1.23-2.13-1.85h0Z"/>
      <circle class="cls-2" cx="67.74" cy="29.9" r=".52"/>
      <circle class="cls-3" cx="39.73" cy="15.44" r=".2"/>
      <circle class="cls-3" cx="28.58" cy="41.22" r=".2"/>
      <circle class="cls-3" cx="54.69" cy="18.92" r=".2"/>
      <circle class="cls-2" cx="29.73" cy="1.54" r="1.38"/>
      <circle class="cls-3" cx="9.53" cy="81.52" r=".2"/>
      <circle class="cls-2" cx="53.95" cy="39" r=".26"/>
      <circle class="cls-3" cx="18.36" cy="63.38" r=".2"/>
      <circle class="cls-2" cx="44.7" cy="53.58" r=".26"/>
    </g>
  </g>
</svg>