<?xml version="1.0" encoding="UTF-8"?>
<svg id="_Слой_2" data-name="Слой 2" xmlns="http://www.w3.org/2000/svg" viewBox="0 0 315.98 197.18">
  <defs>
    <style>
      .cls-1, .cls-2 {
        stroke-miterlimit: 6.71;
      }

      .cls-1, .cls-2, .cls-3 {
        stroke: #000;
        stroke-width: .67px;
      }

      .cls-1, .cls-3 {
        fill: none;
      }

      .cls-2 {
        fill: #fff;
      }

      .cls-3 {
        stroke-linejoin: round;
      }
    </style>
  </defs>
  <g id="_Слой_1-2" data-name="Слой 1">
    <g>
      <path class="cls-3" d="M105,82.14c-4.41.04-7.64-2.85-7.84-5.9-.14-2.27,1.39-4.74,3.34-5.33,2.95-.9,7.52,2.3,10.04,8.76-.48-1.46-2.27-7.37.87-11.62.18-.25,2.7-3.58,4.8-2.93,1.48.46,1.99,2.66,2.19,3.6,1.01,4.46-1.46,8.56-2.65,10.26,4.09-3.25,7.74-3.81,9.59-3.92.72-.04,5.19-.3,5.8,1.41.62,1.76-3.26,4.48-3.63,4.73-2.75,1.89-5.61,2.24-7.19,2.31,4.55,1.08,6.96,3.39,8,4.56,1.02,1.15,2.81,3.18,2.18,4.8-.69,1.78-3.97,2.16-6.13,1.72-2.95-.59-4.59-2.85-5.03-3.48.79.91,2.72,3.4,2.76,6.89.01,1.8-.46,5.18-2.15,5.64-1.86.51-4.19-2.79-5.32-4.38-1.7-2.4-2.5-4.73-2.91-6.29-.5,1.55-1.8,4.77-4.99,6.66-.81.48-3.27,1.93-4.64.99-1.6-1.11-.73-4.9.07-6.86,1.2-2.93,3.39-4.58,4.54-5.32-2.4.77-6.41,1.58-10.29-.11-.91-.4-3.72-1.63-3.69-3.32.03-1.54,2.38-2.6,3.17-2.95,3.57-1.6,7.29-.56,9.09.1h0Z"/>
      <path class="cls-1" d="M258.88,47.12c-4.49-5.26-11.04-1.7-16.1-6.82-3.93-3.97-3.66-9.85-3.61-10.82.25-5.52,3.42-9.21,4.47-10.32,3.05-3.23,4.6-2.1,7.73-5.31,3.74-3.84,2.29-6.27,5.91-9.68.82-.78,4.29-3.86,9.37-3.84.7,0,4.83.08,8.26,2.99,3.23,2.75,2.17,4.9,4.9,6.9,3.68,2.68,6.94-.25,10.97,1.99,3.58,1.99,5.6,6.85,5.48,10.84-.17,6.04-5.11,6.79-7.64,15.47-1.5,5.17,0,5.8-1.76,9.73-.64,1.44-4.35,9.18-12.35,10.23-4.16.54-8.84-.81-11.78-3.86-2.8-2.91-1.4-4.64-3.86-7.51h0Z"/>
      <path class="cls-1" d="M54.48,56.34c-1.64-1.93-4.04-.62-5.89-2.5-1.44-1.46-1.34-3.6-1.32-3.96.09-2.02,1.25-3.37,1.64-3.78,1.11-1.18,1.68-.77,2.83-1.94,1.37-1.4.84-2.29,2.16-3.54.3-.28,1.57-1.41,3.43-1.4.25,0,1.77.03,3.03,1.09,1.18,1.01.79,1.8,1.79,2.52,1.34.98,2.54-.09,4.01.72,1.31.73,2.05,2.51,2.01,3.97-.07,2.21-1.87,2.48-2.79,5.66-.55,1.89,0,2.12-.64,3.56-.23.53-1.59,3.36-4.52,3.74-1.52.2-3.23-.3-4.31-1.42-1.03-1.07-.52-1.7-1.41-2.74h-.01Z"/>
      <path class="cls-1" d="M41.33,110c1.91,2.19,4.23,4.85,4.97,8.54.93,4.68-1.81,5.46-2.1,11.74-.24,5.31,1.66,5.82,1.53,12.82-.11,6.05-1.58,7.76-2.39,8.5-.16.15-2.75,2.43-5.71,1.56-2.5-.73-3.9-3.31-4.18-5.31-.32-2.32.97-3.13.32-4.37-1.13-2.15-5.36-.3-7.51-2.65-2.1-2.29.38-5.75-1.72-7.83-2.01-1.99-5.28.19-7.13-1.78-1.82-1.96.66-4.88-1.09-7.46-1.97-2.9-6.29-1.01-8.27-3.89-1.74-2.51.95-4.85-.72-8.09-1.72-3.34-5.48-2.59-6.68-5.78-.83-2.21,0-5.19,1.79-6.37,1.53-1.02,3.33-.44,7.74.9,7.29,2.22,10.94,3.33,11.88,3.47,6.7,1,8.22-1.37,12.72.59,2.95,1.28,4.78,3.38,6.55,5.4h0Z"/>
      <path class="cls-1" d="M192.38,30.8c-1.4,3.14-3.32,7.94-4.88,14-2.71,10.51-7.28,28.24,1.28,44.12,2.03,3.78,6.45,10.49,15.77,16.28-2.95-8.22-5.83-18.45-7.52-30.4-1.17-8.3-1.55-15.89-1.5-22.53,2.58,4.82,5.56,9.92,8.98,15.18,2.62,4.01,5.24,7.74,7.82,11.18-.12,1.1-1.48,15.35,9.67,24.59,9.05,7.5,19.69,6.2,21.46,5.96-3.98-2.56-8.96-6.31-13.91-11.63-4.52-4.84-7.71-9.59-9.93-13.46,7.15,3.62,15.04,7.22,23.65,10.59,5.29,2.07,10.43,3.9,15.37,5.5-.91.77-3.7,3.32-4.44,7.58-.83,4.78,1.32,9.49,4.48,11.97,3.07,2.42,4.53.72,10.23,3,6.63,2.65,7.29,5.99,11.68,5.98,2.95-.01,5.88-1.54,7.62-3.65,2.53-3.08.72-5.2,2.66-10.21,2.39-6.16,6.35-6.11,7.01-11.04.41-3.03-.58-6.82-3.03-8.99-2.38-2.11-4.2-.99-7.88-3.42-3.15-2.08-2.62-3.44-5.25-5.2-3.13-2.09-8.28-3.14-12.84-.88-5.15,2.56-6.56,7.84-6.76,8.68-12.9-2.87-22.54-7.54-28.72-11.08-9.16-5.26-24.35-14-31.15-31.22-1.24-3.14-1.92-5.86-2.3-7.67-.28-7.74-.57-15.49-.85-23.23-1.03-.11-2.15-.19-3.38-.21-1.23-.01-2.38.03-3.41.13.03,3.37.05,6.74.07,10.11h0Z"/>
      <circle class="cls-1" cx="38.51" cy="22.66" r="1.88"/>
      <circle class="cls-2" cx="65.88" cy="132.16" r=".71"/>
      <circle class="cls-2" cx="161.55" cy="101.16" r=".71"/>
      <circle class="cls-2" cx="39.85" cy="83.73" r=".71"/>
      <circle class="cls-1" cx="52.19" cy="191.92" r="4.93"/>
      <circle class="cls-2" cx="314.93" cy="57.05" r=".71"/>
      <circle class="cls-1" cx="95.61" cy="38.22" r=".94"/>
      <circle class="cls-2" cx="245.28" cy="76.22" r=".71"/>
      <circle class="cls-1" cx="156.65" cy="28.59" r=".94"/>
    </g>
  </g>
</svg>