<?xml version="1.0" encoding="UTF-8"?>
<svg id="_Слой_2" data-name="Слой 2" xmlns="http://www.w3.org/2000/svg" xmlns:xlink="http://www.w3.org/1999/xlink" viewBox="0 0 17.55 17.55">
  <defs>
    <style>
      .cls-1 {
        stroke: #fff;
        stroke-miterlimit: 6.71;
        stroke-width: .5px;
      }

      .cls-1, .cls-2 {
        fill: none;
      }

      .cls-2 {
        stroke-width: 0px;
      }

      .cls-3 {
        clip-path: url(#clippath);
      }
    </style>
    <clipPath id="clippath">
      <circle class="cls-2" cx="8.77" cy="8.77" r="8.52"/>
    </clipPath>
  </defs>
  <g id="_Слой_1-2" data-name="Слой 1">
    <g>
      <g class="cls-3">
        <g>
          <path class="cls-1" d="M5.16,8.7c.01-1.06.42-2.12,1.23-2.93,1.64-1.64,4.31-1.64,5.96,0,.83.83,1.23,1.9,1.23,2.98"/>
          <path class="cls-1" d="M3.19,20.62c2.1-2.62,4.24-4.2,5.7-5.11,2.42-1.51,3.92-1.78,4.36-1.85,1.93-.3,3.78-.19,4.72.12"/>
          <path class="cls-1" d="M2.87,17.64c2.19-2.54,4.39-4.05,5.87-4.91,2.48-1.43,3.97-1.64,4.42-1.69,1.94-.23,3.78-.05,4.72.28"/>
          <path class="cls-1" d="M7.71,10.93c-.85-.32-1.95-.64-3.73-.62-1.72.03-3.67.68-4.5,1.02"/>
          <path class="cls-1" d="M5.65,12.46c-.43-.04-.9-.06-1.43-.05-1.81.04-3.85.7-4.72,1.04"/>
          <path class="cls-1" d="M9.89,9.89c-.98-.46-2.42-1.02-4.54-1.17-2.07-.14-4.14.31-5.17.62"/>
          <path class="cls-1" d="M17.09,9.36c-.87-.34-2.41-.79-4.27-.54-.93.12-1.85.4-3.08,1.03-1.41.72-4.36,2.4-7.01,5.37l6.04,8.99,10.25-14.24-1.93-.6h0Z"/>
        </g>
      </g>
      <circle class="cls-1" cx="8.77" cy="8.77" r="8.52"/>
    </g>
  </g>
</svg>