<svg width="32" height="27" viewBox="0 0 32 27" fill="none" xmlns="http://www.w3.org/2000/svg">
<path d="M29.9303 0.790086L2.08994 11.3301C0.549941 11.7901 0.599863 13.2799 1.75986 13.6499L8.73008 15.8101L11.3902 23.98C11.7202 24.89 11.9699 25.2203 12.5499 25.2203C13.1299 25.2203 13.3401 25.0103 13.9601 24.4703C14.6701 23.8103 15.7403 22.7699 17.4503 21.1099L24.7101 26.46C26.0401 27.21 26.9899 26.8303 27.3199 25.2203L31.88 2.68999C32.38 0.779988 31.2203 0.199832 29.9303 0.779832V0.790086ZM9.81016 15.3101L25.6603 5.35014C26.4503 4.81014 26.6999 5.39011 26.3199 5.81011L13.17 17.6802L12.5099 23.6099L9.81016 15.3101Z" fill="white"/>
</svg>
