<svg width="38" height="22" viewBox="0 0 38 22" fill="none" xmlns="http://www.w3.org/2000/svg">
<path fill-rule="evenodd" clip-rule="evenodd" d="M18.5 21.7598H20.7402C20.7402 21.7598 21.4002 21.6798 21.7402 21.2998C22.0702 20.9698 22.0298 20.2998 22.0298 20.2998C22.0298 20.2998 21.9898 17.3099 23.3598 16.8999C24.7298 16.4899 26.4698 19.7598 28.3398 21.0498C29.7498 21.9998 30.8301 21.7998 30.8301 21.7998L35.81 21.7202C35.81 21.7202 38.4202 21.55 37.1802 19.52C37.1002 19.35 36.4702 18.03 33.4902 15.25C30.3802 12.35 30.7898 12.8398 34.5298 7.81982C36.8098 4.78982 37.7202 2.92014 37.4302 2.14014C37.1402 1.39014 35.48 1.6001 35.48 1.6001L29.8799 1.64014C29.8799 1.64014 29.4699 1.59977 29.1699 1.75977C28.8799 1.92977 28.6699 2.33984 28.6699 2.33984C28.6699 2.33984 27.8001 4.7102 26.6001 6.7002C24.1101 10.9302 23.1102 11.1401 22.7002 10.8901C21.7502 10.2701 21.9902 8.43986 21.9902 7.10986C21.9902 2.99986 22.61 1.29984 20.79 0.839844C20.17 0.669844 19.7502 0.589844 18.1802 0.589844C16.1902 0.589844 14.4898 0.589805 13.5298 1.0498C12.9098 1.3798 12.4102 2.04984 12.7002 2.08984C13.0702 2.12984 13.8998 2.29992 14.3598 2.91992C14.9398 3.70992 14.8999 5.4502 14.8999 5.4502C14.8999 5.4502 15.2298 10.2601 14.1098 10.8901C13.3598 11.3001 12.3298 10.4801 10.0898 6.62012C8.96982 4.67012 8.10007 2.47021 8.10007 2.47021C8.10007 2.47021 7.93011 2.0601 7.64011 1.8501C7.27011 1.6001 6.76999 1.52002 6.76999 1.52002L1.45994 1.56006C1.45994 1.56006 0.669858 1.60018 0.379858 1.93018C0.129858 2.22018 0.339819 2.87988 0.339819 2.87988C0.339819 2.87988 4.49019 12.6298 9.22019 17.5298C13.5802 22.0498 18.5097 21.7598 18.5097 21.7598H18.5Z" fill="white"/>
</svg>
