<svg width="31" height="31" viewBox="0 0 31 31" fill="none" xmlns="http://www.w3.org/2000/svg">
<path fill-rule="evenodd" clip-rule="evenodd" d="M15.4702 0.850098C7.38021 0.850098 0.859863 7.40996 0.859863 15.46C0.859863 18.24 1.60998 20.8098 2.97998 23.0098L0.319824 30.8501L8.41016 28.2798C10.5302 29.4398 12.93 30.1099 15.46 30.1099C23.55 30.1099 30.1099 23.55 30.1099 15.5C30.1099 7.41 23.55 0.850098 15.46 0.850098H15.4702ZM15.4702 27.6499C12.9802 27.6499 10.7 26.9001 8.79004 25.6201L4.1001 27.1099L5.64014 22.5898C4.19014 20.5998 3.31982 18.1102 3.31982 15.4502C3.31982 8.7302 8.79998 3.29004 15.48 3.29004C22.16 3.29004 27.6401 8.7702 27.6401 15.4502C27.6801 22.1702 22.2 27.6499 15.48 27.6499H15.4702ZM22.3599 18.77C21.9899 18.56 20.2001 17.6099 19.8701 17.4399C19.5401 17.3199 19.29 17.2299 19.04 17.6099C18.79 17.9899 18.0398 18.77 17.7998 19.02C17.5898 19.27 17.3402 19.2701 16.9702 19.1001C16.6002 18.8901 15.43 18.4799 14.02 17.1499C12.94 16.1099 12.2398 14.8702 12.0298 14.4902C11.8198 14.1102 12.0302 13.9102 12.2402 13.7402C12.4102 13.5702 12.6098 13.3301 12.8198 13.1201C13.0298 12.9101 13.07 12.75 13.23 12.5C13.35 12.25 13.31 12.0398 13.23 11.8398C13.15 11.6398 12.4799 9.77002 12.1899 9.02002C11.8999 8.27002 11.6099 8.35986 11.3599 8.35986C11.1499 8.35986 10.8999 8.31982 10.6499 8.31982C10.3999 8.31982 9.9899 8.39998 9.6499 8.72998C9.2799 9.09998 8.28023 9.9698 8.24023 11.7998C8.16023 13.6298 9.43986 15.4502 9.60986 15.7002C9.77986 15.9502 12.02 19.9298 15.79 21.5898C19.52 23.2098 19.57 22.71 20.23 22.71C20.94 22.67 22.4698 21.8798 22.7998 21.0498C23.1298 20.1798 23.1698 19.43 23.0898 19.27C22.9198 19.1 22.6798 18.98 22.3398 18.77H22.3599Z" fill="white"/>
</svg>
