<?xml version="1.0" encoding="UTF-8"?>
<svg id="_Слой_2" data-name="Слой 2" xmlns="http://www.w3.org/2000/svg" xmlns:xlink="http://www.w3.org/1999/xlink" viewBox="0 0 189.24 191.78">
  <defs>
    <style>
      .cls-1 {
        font-size: 12.94px;
      }

      .cls-1, .cls-2, .cls-3, .cls-4, .cls-5, .cls-6, .cls-7, .cls-8, .cls-9, .cls-10, .cls-11, .cls-12, .cls-13, .cls-14, .cls-15, .cls-16, .cls-17, .cls-18 {
        isolation: isolate;
      }

      .cls-1, .cls-2, .cls-4, .cls-5, .cls-6, .cls-7, .cls-8, .cls-9, .cls-10, .cls-11, .cls-13, .cls-14, .cls-15, .cls-16, .cls-17, .cls-18 {
        font-family: MyriadPro-Regular, 'Myriad Pro';
      }

      .cls-2 {
        font-size: 12.94px;
      }

      .cls-19 {
        clip-path: url(#clippath-2);
      }

      .cls-4 {
        font-size: 12.94px;
      }

      .cls-20 {
        clip-path: url(#clippath-6);
      }

      .cls-21, .cls-22 {
        fill: none;
      }

      .cls-21, .cls-23 {
        stroke-width: 0px;
      }

      .cls-24 {
        clip-path: url(#clippath-7);
      }

      .cls-25 {
        clip-path: url(#clippath-1);
      }

      .cls-26 {
        clip-path: url(#clippath-4);
      }

      .cls-5 {
        font-size: 12.94px;
      }

      .cls-6 {
        font-size: 12.94px;
      }

      .cls-22, .cls-27, .cls-28 {
        stroke: #000;
        stroke-miterlimit: 1.71;
        stroke-width: .43px;
      }

      .cls-7 {
        font-size: 12.94px;
      }

      .cls-27 {
        fill: #92a581;
      }

      .cls-23 {
        fill: #dee6e9;
      }

      .cls-29 {
        clip-path: url(#clippath-9);
      }

      .cls-8 {
        font-size: 12.94px;
      }

      .cls-30 {
        clip-path: url(#clippath);
      }

      .cls-9 {
        font-size: 12.94px;
      }

      .cls-31 {
        clip-path: url(#clippath-3);
      }

      .cls-10 {
        font-size: 12.94px;
      }

      .cls-11 {
        font-size: 12.94px;
      }

      .cls-12 {
        font-family: FruitsandVegetables-Display, 'Fruits and Vegetables';
        font-size: 12.94px;
      }

      .cls-32 {
        clip-path: url(#clippath-8);
      }

      .cls-33 {
        clip-path: url(#clippath-5);
      }

      .cls-13 {
        font-size: 12.94px;
      }

      .cls-34 {
        clip-path: url(#clippath-10);
      }

      .cls-14 {
        font-size: 12.94px;
      }

      .cls-15 {
        font-size: 12.94px;
      }

      .cls-16 {
        font-size: 12.94px;
      }

      .cls-17 {
        font-size: 12.94px;
      }

      .cls-28 {
        fill: #eac5b3;
      }

      .cls-18 {
        font-size: 12.94px;
      }
    </style>
    <clipPath id="clippath">
      <ellipse class="cls-21" cx="86.27" cy="102.45" rx="86.06" ry="85.22"/>
    </clipPath>
    <clipPath id="clippath-1">
      <ellipse class="cls-21" cx="88.18" cy="106.56" rx="86.06" ry="85.22"/>
    </clipPath>
    <clipPath id="clippath-2">
      <ellipse class="cls-21" cx="86.27" cy="102.45" rx="86.06" ry="85.22"/>
    </clipPath>
    <clipPath id="clippath-3">
      <ellipse class="cls-21" cx="86.27" cy="102.45" rx="86.06" ry="85.22"/>
    </clipPath>
    <clipPath id="clippath-4">
      <ellipse class="cls-21" cx="86.27" cy="102.45" rx="86.06" ry="85.22"/>
    </clipPath>
    <clipPath id="clippath-5">
      <ellipse class="cls-21" cx="86.27" cy="102.45" rx="86.06" ry="85.22"/>
    </clipPath>
    <clipPath id="clippath-6">
      <ellipse class="cls-21" cx="86.27" cy="102.45" rx="86.06" ry="85.22"/>
    </clipPath>
    <clipPath id="clippath-7">
      <ellipse class="cls-21" cx="86.27" cy="102.45" rx="86.06" ry="85.22"/>
    </clipPath>
    <clipPath id="clippath-8">
      <ellipse class="cls-21" cx="86.27" cy="102.45" rx="86.06" ry="85.22"/>
    </clipPath>
    <clipPath id="clippath-9">
      <ellipse class="cls-21" cx="86.27" cy="102.45" rx="86.06" ry="85.22"/>
    </clipPath>
    <clipPath id="clippath-10">
      <ellipse class="cls-21" cx="86.27" cy="102.45" rx="86.06" ry="85.22"/>
    </clipPath>
  </defs>
  <g id="_Слой_1-2" data-name="Слой 1">
    <g>
      <g id="_Слой_3-2" data-name=" Слой 3-2">
        <g class="cls-30">
          <ellipse class="cls-23" cx="86.27" cy="102.45" rx="86.06" ry="85.22"/>
        </g>
        <g class="cls-25">
          <ellipse class="cls-28" cx="92.25" cy="102.2" rx="42.51" ry="42.1"/>
        </g>
        <g class="cls-19">
          <path class="cls-27" d="M97.48,113.64c-9.89-4.66-24.38-10.21-45.83-11.68-20.89-1.44-41.82,3.12-52.2,6.23l-11.14,57.89,38.67,19.01,69-70.66,1.49-.78h0Z"/>
        </g>
        <g class="cls-31">
          <path class="cls-27" d="M170.22,108.3c-8.78-3.32-24.32-7.84-43.17-5.41-9.44,1.23-18.61,4.04-31.06,10.35-14.22,7.16-44,23.97-70.7,53.64l60.98,89.88,103.46-142.42-19.51-6.03h0Z"/>
        </g>
        <g class="cls-26">
          <path class="cls-22" d="M81.98,120.88c-8.23-3.87-19.1-8.15-36.98-9.39-17.4-1.2-37.53,3.63-46.18,6.23"/>
        </g>
        <g class="cls-33">
          <path class="cls-22" d="M61.02,134.58c-5.67-2.67-12.39-5.14-24.7-5.99-12-.83-30.23,3.39-36.18,5.21"/>
        </g>
        <g class="cls-20">
          <path class="cls-22" d="M43.9,148.48c-2.91-1.37-5.33-2.23-11.62-2.67-6.12-.41-19.02,2.95-22.07,3.84"/>
        </g>
        <g class="cls-24">
          <path class="cls-22" d="M26.95,175.27c22.07-25.45,44.28-40.49,59.29-49.08,24.97-14.29,40.12-16.37,44.59-16.92,19.58-2.29,35.7,2.02,45.07,5.41"/>
        </g>
        <g class="cls-32">
          <path class="cls-22" d="M30.58,187.7c22.07-25.45,44.28-40.49,59.29-49.08,24.97-14.29,40.12-16.37,44.59-16.92,19.58-2.29,38.22-.55,47.59,2.81"/>
        </g>
        <g class="cls-29">
          <path class="cls-22" d="M40.13,203.15c21.55-25.89,43.41-41.38,58.28-50.28,24.67-14.76,39.78-17.2,44.24-17.81,19.51-2.7,38.22-1.34,47.67,1.85"/>
        </g>
        <g class="cls-34">
          <path class="cls-22" d="M50.23,220.93c21.17-26.17,42.82-42,57.56-51.07,24.46-15.1,39.53-17.74,44-18.43,19.47-2.98,38.19-1.85,47.67,1.2"/>
        </g>
        <ellipse id="SVGID-2" class="cls-22" cx="86.27" cy="102.45" rx="86.06" ry="85.22"/>
      </g>
      <g>
        <g class="cls-3">
          <text class="cls-12" transform="translate(88.45 12.76) rotate(.5) skewX(.18)"><tspan x="0" y="0">О</tspan></text>
        </g>
        <g class="cls-3">
          <text class="cls-1" transform="translate(98.47 12.96) rotate(6.15) skewX(.08)"><tspan x="0" y="0">т</tspan></text>
        </g>
        <g class="cls-3">
          <text class="cls-14" transform="translate(105.67 13.77) rotate(11.06) skewX(-.01)"><tspan x="0" y="0">к</tspan></text>
        </g>
        <g class="cls-3">
          <text class="cls-10" transform="translate(113.21 15.3) rotate(16.08) skewX(-.1)"><tspan x="0" y="0">р</tspan></text>
        </g>
        <g class="cls-3">
          <text class="cls-8" transform="translate(120.51 17.43) rotate(21.48) skewX(-.2)"><tspan x="0" y="0">ы</tspan></text>
        </g>
        <g class="cls-3">
          <text class="cls-7" transform="translate(128.68 20.72) rotate(27.05) skewX(-.29)"><tspan x="0" y="0">в</tspan></text>
        </g>
        <g class="cls-3">
          <text class="cls-6" transform="translate(135.77 24.4) rotate(32.36) skewX(-.36)"><tspan x="0" y="0">а</tspan></text>
        </g>
        <g class="cls-3">
          <text class="cls-9" transform="translate(142.46 28.7) rotate(37.58) skewX(-.43)"><tspan x="0" y="0">я</tspan></text>
        </g>
        <g class="cls-3">
          <text class="cls-17" transform="translate(152.68 37.25) rotate(46.33) skewX(-.5)"><tspan x="0" y="0">г</tspan></text>
        </g>
        <g class="cls-3">
          <text class="cls-13" transform="translate(157.49 42.36) rotate(50.93) skewX(-.52)"><tspan x="0" y="0">о</tspan></text>
        </g>
        <g class="cls-3">
          <text class="cls-4" transform="translate(161.73 47.59) rotate(56) skewX(-.52)"><tspan x="0" y="0">р</tspan></text>
        </g>
        <g class="cls-3">
          <text class="cls-16" transform="translate(165.96 53.91) rotate(60.73) skewX(-.51)"><tspan x="0" y="0">и</tspan></text>
        </g>
        <g class="cls-3">
          <text class="cls-5" transform="translate(169.62 60.56) rotate(65.64) skewX(-.49)"><tspan x="0" y="0">з</tspan></text>
        </g>
        <g class="cls-3">
          <text class="cls-15" transform="translate(172.45 66.92) rotate(70.3) skewX(-.45)"><tspan x="0" y="0">о</tspan></text>
        </g>
        <g class="cls-3">
          <text class="cls-18" transform="translate(174.7 73.28) rotate(75.17) skewX(-.4)"><tspan x="0" y="0">н</tspan></text>
        </g>
        <g class="cls-3">
          <text class="cls-2" transform="translate(176.56 80.56) rotate(80.18) skewX(-.34)"><tspan x="0" y="0">т</tspan></text>
        </g>
        <g class="cls-3">
          <text class="cls-11" transform="translate(177.78 87.63) rotate(85.6) skewX(-.26)"><tspan x="0" y="0">ы</tspan></text>
        </g>
      </g>
    </g>
  </g>
</svg>