<?xml version="1.0" encoding="UTF-8"?>
<svg id="_Слой_2" data-name="Слой 2" xmlns="http://www.w3.org/2000/svg" viewBox="0 0 257.92 191.82">
  <defs>
    <style>
      .cls-1 {
        fill: #92a581;
        stroke-width: 0px;
      }

      .cls-2 {
        opacity: .2;
      }
    </style>
  </defs>
  <g id="_Слой_1-2" data-name="Слой 1">
    <g class="cls-2">
      <path class="cls-1" d="M133.57,191.82c-2.35,0-5.13-.6-8.86-1.93-9.88-3.64-20.06-14.55-30.76-26.05-5.9-6.33-11.98-12.88-18.1-18.26-8.94-9.71-24.08-16.39-38.76-22.85-10.74-4.75-20.83-9.2-28.66-14.71h0C2.53,103.73-.2,99.59.01,95.35c.43-8.25,12.19-15.61,25.79-24.13l1.33-.81c10.1-6.33,22.8-14.84,41.15-27.51l1.54-1.03c16.43-10.95,36.88-24.6,63.4-32.85,53.09-19.12,99.55-4.32,114.22,11.76,15.31,18.78,13.99,38.72-5.05,76.23-19.89,39.1-64,69.35-82.05,80.51-7.4,3.68-12.02,6.97-15.36,9.33-4.36,2.99-7.15,4.97-11.42,4.97h0ZM9.77,106.86c7.66,5.39,17.67,9.84,28.28,14.5,14.84,6.54,30.2,13.35,39.31,23.23,6.12,5.35,12.28,11.94,18.18,18.31,10.57,11.38,20.58,22.12,29.99,25.54,9.29,3.33,11.51,1.75,17.97-2.82,3.42-2.44,8.13-5.73,15.57-9.45,17.79-11.04,61.6-41.07,81.32-79.83,18.74-36.96,20.11-56.56,5.22-74.78-14.25-15.57-59.59-29.95-111.7-11.17-26.22,8.17-46.55,21.73-62.88,32.6l-1.54,1.03c-18.4,12.71-31.1,21.18-41.2,27.55l-1.33.81c-13.26,8.25-24.69,15.45-25.07,22.97-.13,3.76,2.44,7.53,7.87,11.51h0Z"/>
      <path class="cls-1" d="M127.84,171.8c-4.15,0-8-1.15-12.75-3.08-8-3.68-14.42-11.34-21.22-19.38-4.02-4.79-8.21-9.76-13-14.29-6.68-7.15-14.63-13.26-22.29-19.16-6.29-4.83-12.19-9.41-16.9-14.12l-.04-.09c-9.45-12.23.3-17.92,18.1-28.28l.21-.13,3.29-1.71c18.74-9.8,44.36-23.19,79.52-32.9,41.49-10.14,67.89.17,77.9,12.1,10.74,12.71,8.09,29.77-9.07,58.91-12.49,20.28-32.9,38.54-60.62,54.24-10.7,5.52-17.2,7.87-23.14,7.87h0ZM43.4,100.83c4.58,4.62,10.48,9.15,16.68,13.94,7.7,5.94,15.7,12.1,22.46,19.29,4.83,4.58,9.02,9.58,13.09,14.42,6.68,7.91,12.96,15.4,20.49,18.87,10.91,4.41,16.3,4.32,33.75-4.75,27.42-15.53,47.57-33.58,59.93-53.6,16.81-28.58,19.51-45.22,9.2-57.41-10.39-12.37-37.78-20.71-75.55-11.47-34.86,9.63-60.4,22.97-79.01,32.72l-3.42,1.8c-17.92,10.39-26.13,15.18-17.63,26.18h0Z"/>
      <path class="cls-1" d="M125.4,155.93c-4.92,0-9.41-1.28-14.12-3.89l-.13-.09c-17.97-13.94-39.19-45.81-43.25-52.06l-.04-.13c-3.17-8.94,3.98-14.2,18.35-20.79,13.52-5.82,34.82-13.47,59.8-17.07,23.01-2.78,40.25.94,48.55,10.52,9.24,10.61,6.41,26.78-7.7,44.32-12.45,16.9-30.76,29.09-43.76,34.82-6.84,2.91-12.49,4.36-17.71,4.36h0ZM112.56,150.8c8.98,4.92,16.98,4.75,29.52-.64,12.75-5.65,30.76-17.58,42.99-34.27,13.52-16.77,16.39-32.68,7.78-42.65-7.83-9.02-24.34-12.53-46.5-9.84-24.69,3.55-45.77,11.12-59.12,16.9-13.73,6.29-20.19,10.95-17.41,18.95,11.63,17.97,29.01,40.9,42.74,51.55h0Z"/>
      <path class="cls-1" d="M125.1,142.28c-4.88,0-9.15-1.2-12.53-3.55-11.98-8.3-23.01-25.88-23.66-37.6v-.04c-.09-10.78,23.36-19.68,55.66-21.05,13.78-.25,24,3.25,28.79,9.97,5.52,7.66,3.25,18.26-6.2,29.17-11.68,13.22-26.31,21.82-39.19,22.97-.99.09-1.93.13-2.86.13h0ZM90.96,101.13c.64,11.38,11.38,28.4,22.97,36.49,3.55,2.48,8.3,3.51,13.78,3.04,12.28-1.11,26.35-9.45,37.73-22.29,9.02-10.35,11.25-20.4,6.12-27.55-4.41-6.12-13.94-9.41-26.91-9.15-30.63,1.28-53.73,9.67-53.69,19.47h0Z"/>
      <path class="cls-1" d="M126.42,130c-3.42,0-6.54-.77-9.15-2.23-9.07-5.13-14.12-15.53-11.34-23.1,2.86-7.49,17.63-12.02,33.67-10.27,7.1.81,12.32,3.51,14.67,7.62,2.7,4.62,1.37,10.52-3.64,16.17-5.73,6.41-13.39,10.66-21,11.63-1.11.09-2.18.17-3.21.17h0ZM107.9,105.1c-2.57,6.88,2.31,16.68,10.57,21.39,2.95,1.67,6.68,2.27,10.78,1.75,7.02-.9,14.37-5.01,19.68-11,4.58-5.17,5.82-10.48,3.42-14.63-2.05-3.6-6.72-5.99-13.09-6.68-14.76-1.62-28.83,2.48-31.36,9.15h0Z"/>
      <path class="cls-1" d="M127.79,118.5c-1.28,0-2.57-.21-3.68-.72-3.94-1.67-5.52-5.44-3.51-8.47,1.97-2.99,7.36-4.41,12.02-3.21,2.23.6,3.89,1.75,4.58,3.33.77,1.67.38,3.6-1.03,5.31-2.01,2.4-5.26,3.76-8.39,3.76h0ZM129.08,107.24c-2.86,0-5.52,1.03-6.68,2.78-1.5,2.27-.3,5.13,2.7,6.37,2.99,1.24,7.19.13,9.37-2.52,1.07-1.33,1.37-2.7.81-3.94-.52-1.11-1.67-1.97-3.33-2.4-.99-.21-1.93-.3-2.86-.3h0Z"/>
    </g>
  </g>
</svg>