<?xml version="1.0" encoding="UTF-8"?>
<svg id="_Слой_2" data-name="Слой 2" xmlns="http://www.w3.org/2000/svg" viewBox="0 0 206.13 12.72">
  <defs>
    <style>
      .cls-1 {
        fill: #ffe492;
        stroke-width: 0px;
      }
    </style>
  </defs>
  <g id="_Слой_1-2" data-name="Слой 1">
    <path class="cls-1" d="M194.13,6.28c-.3,0-.56,0-.86.04-.17,0-.25,0-.38-.04h-.13c-.3,0-.56.04-.86.04-.09.04-.13.04-.25.09h-.99c-.09,0-.17,0-.21.04h.09c.13.04.21.04.34.04h.38c.2.03.37.04.52.04h.68c.13,0,.21.04.38.04h.43c.13,0,.21.04.34.04s.17.04.09.04c-.04,0-.13.04-.25.04h-.43c-.12,0-.29-.01-.52-.04h-.38c-.09,0-.17-.04-.21-.04h-.56c-.09,0-.17.04-.13.04h.38c.09,0,.17,0,.25.04.13.04.25,0,.38,0s.21.04.34.04h.56c.13.04.25.04.34.04.17.04.38.04.64.04h.38c.13.04.25.04.38,0h.43c.2.03.42.04.64.04h.25c.09,0,.17.04.21.04h.43c.17,0,.3,0,.34.04s.04.04.09.04h.25c.09,0,.17,0,.21-.04,0,0,.04,0,.09-.04h.21c.09.06.19.09.3.09.17.04.34.04.47.09s.25,0,.38,0c.09,0,.17,0,.17.04,0,0-.04.04-.09.04-.3,0-.56.04-.86.04h-.13c-.09,0-.17-.04-.25-.04h-.6c-.09,0-.17,0-.21-.04h-.13c-.21,0-.34,0-.52-.04h-.13c-.34,0-.64.04-.99.04-.13,0-.25,0-.25-.04,0,0-.04-.04-.04-.09s-.17-.04-.25-.04h-.94c-.13-.04-.25-.04-.38,0-.09,0-.13.04-.13.09s-.04.04-.21.09c-.21,0-.47,0-.72.04h-.13c-.09,0-.17-.04-.25-.04h-.6c-.09,0-.17-.04-.21-.04h-.13c-.17,0-.38,0-.56.04-.14,0-.32-.01-.52-.04h-.81c-.09,0-.17-.04-.25-.04-.25,0-.47.04-.72.04h-.13c-.17-.04-.3-.04-.52-.04-.17,0-.38,0-.56.04-.09,0-.13.04-.13.04h.38c.17,0,.25.04.52.04h.56c.13,0,.21.04.38.04h.43c.14,0,.32.01.52.04h.68c.13,0,.21.04.34.04h.43c.09,0,.17,0,.25.04.09,0,.17.04.25.04h.56c.09,0,.17.04.21.04h.68c.13,0,.21.04.38.04h.56c.13.04.34.04.52.04.21,0,.34,0,.52.04s.17.04.3.09c.04,0,.13.04.21.04.13,0,.25,0,.38.04s.25,0,.38,0h.52c.09,0,.17.04.25,0,.3,0,.56-.04.86-.04.17,0,.25,0,.38.04.17,0,.34.04.34.09,0,0,.04,0,.09.04.09,0,.17.04.21.04.13.04.21.04.38.04h.81c.13.04.3.04.47.09h.38c.09,0,.17.04.21.04h.68c.09,0,.13.04.21.04.13,0,.25-.04.38,0,.09,0,.13.04.21.04h.34s-.04.04-.09.04c-.3,0-.56,0-.86.04-.12,0-.29-.01-.52-.04h-.68c-.17-.04-.43-.04-.64-.04h-.25c-.17-.04-.34-.04-.47-.09s-.17-.04-.21,0c0,0-.04,0-.04.04s.04.09.09.09c0,0,0,.04-.04.04-.04.04-.09.04-.21,0-.09-.04-.21-.04-.38-.04h-.43c-.21,0-.34,0-.52-.04h-.13c-.43,0-.86.04-1.28.04-.09,0-.17,0-.25-.04-.09,0-.17-.04-.25-.04-.38,0-.77.04-1.11.04-.17,0-.25,0-.38-.04-.09,0-.17-.04-.25-.04-.13,0-.17,0-.25.04-.04,0,0,.04.09.04.13,0,.25.04.34.04h.43c.13,0,.21.04.38.04h.43c.14,0,.32.01.52.04h.25c.09,0,.17,0,.25.04.04,0,0,0-.04.04,0,.04.04,0,.09,0,.04-.04-.04-.04-.13-.04s-.13.04-.09.04h.17c.25-.04.43-.04.64-.04h.25c.09.04.21.04.38.04s.38,0,.56-.04c.17,0,.25.04.38.04h.38c.13,0,.21.04.34.04.21,0,.34,0,.52.04h.81c.13.04.25.04.38,0h.52c.13.04.25,0,.38,0s.21.04.34.04h.86c.09,0,.17.04.21.04.09,0,.17.04.21.04.13,0,.21.04.38.04h.43c.12,0,.29.01.52.04.17.04.38,0,.56,0,.09,0,.17,0,.25.04.04,0,0,0,.04.04-.47,0-.94.04-1.41.04-.17,0-.25,0-.38-.04-.17-.04-.38,0-.52-.04-.09,0-.21-.04-.38-.04h-.3c-.25,0-.47,0-.64-.04-.09,0-.17-.04-.21-.04-.09,0-.17-.04-.25-.04-.43,0-.86.04-1.28.04h-.09c-.09,0-.04.04.09.04h.13c.09,0,.13.04.21.04h.6c.09,0,.17.04.25.04h.68c.13,0,.21.04.34.04h.38s-.04,0-.04.04c-.13.04-.25.04-.38.04h-.38c-.09,0-.17-.04-.25-.04-.25,0-.47.04-.72.04h-.13c-.2-.03-.37-.04-.52-.04h-.52s-.09-.04-.13-.04c-.34,0-.64.04-.99.04h-.25c-.09,0-.13-.04-.21-.04h-.56c-.09,0-.17,0-.21-.04h-.25c-.23,0-.44-.01-.64-.04h-.13c-.25,0-.47,0-.72.04-.09,0-.17,0-.25-.04-.04,0,0,0-.04-.04h.13c.09,0,.13-.04.09-.04h-.09s-.13,0-.13.04c-.17.04-.38.04-.56.04h-.25c-.09-.04-.21-.04-.38-.04s-.38,0-.56.04c-.21,0-.3-.04-.52-.04-.17,0-.38,0-.56.04-.12,0-.29-.01-.52-.04h-.38c-.09,0-.17-.04-.21-.04h-.13c-.25,0-.47,0-.68.04-.25,0-.47,0-.64-.04-.21,0-.47,0-.68.04-.17,0-.25,0-.38-.04h-.81c-.21,0-.3-.04-.47-.04-.13.04-.17.09-.43.09-.17,0-.38,0-.56.04h-.3c-.17,0-.21.04-.17.09l.04.04s-.04.09-.17.09c-.34,0-.64.04-.99.04-.09,0-.17,0-.25-.04-.09,0-.17-.04-.25-.04-.34,0-.64.04-.99.04h-.13c-.09,0-.17-.04-.21-.04h-.56c-.2,0-.37-.01-.52-.04h-.56c-.29.03-.47.03-.56,0-.13,0-.21-.04-.38-.04s-.38,0-.56.04h-.56c-.13-.04-.21-.04-.38-.04h-.3c-.17,0-.38-.01-.64-.04h-.13c-.34,0-.64.04-.99.04h-.13c-.31-.03-.63-.03-.94,0-.12,0-.24-.01-.38-.04-.09,0-.17-.04-.25,0-.38,0-.77.04-1.11.04-.17,0-.25,0-.38-.04h-.13c-.38,0-.77.04-1.11.04h-.13c-.09,0-.17-.04-.25-.04h-.3c-.17,0-.34-.01-.52-.04h-.13c-.38,0-.77.04-1.11.04-.21,0-.34,0-.52-.04h-.13c-.43,0-.86.04-1.28.04-.09,0-.17,0-.25-.04-.13-.04-.25,0-.38,0h-.77c-.17,0-.38,0-.56.04-.17,0-.38,0-.56.04-.21,0-.34-.04-.52-.04-.21,0-.47,0-.68.04-.17,0-.25,0-.38-.04h-.13c-.43,0-.86.04-1.28.04h-.25c-.17-.04-.21-.04-.52-.04h-.38c-.09-.04-.21-.04-.38-.04s-.38,0-.56.04h-.56c-.17,0-.25-.04-.34-.04h-.13c-.17,0-.38,0-.56.04-.21,0-.34-.04-.52-.04h-.13c-.34,0-.64.04-.99.04-.13-.04-.25-.04-.34-.04h-.56c-.13,0-.3,0-.43.04-.17,0-.25-.04-.38-.04h-.13c-.25,0-.47,0-.72.04-.21,0-.3-.04-.52-.04-.17,0-.38,0-.56.04-.21,0-.34,0-.52-.04h-.13c-.25,0-.47,0-.72.04h-.13c-.31-.03-.53-.04-.64-.04h-.56c-.2-.03-.37-.04-.52-.04-.17,0-.38,0-.56.04-.13,0-.25-.04-.34-.04-.21,0-.47,0-.68.04h-.25c-.09-.04-.21-.04-.38-.04s-.38,0-.56.04c-.21,0-.3-.04-.52-.04-.17,0-.38,0-.56.04-.21,0-.34,0-.52-.04h-.13c-.52,0-1.03.04-1.54.04-.2,0-.51-.01-.94-.04h-.13c-.17,0-.38,0-.56.04-.21,0-.34,0-.52-.04h-.56c-.17,0-.38,0-.56.04-.13,0-.25-.04-.34-.04-.21,0-.47,0-.68.04-.17,0-.25,0-.38-.04h-.13c-.43,0-.86.04-1.28.04-.17,0-.25,0-.38-.04h-.13c-.3,0-.56.04-.86.04-.12,0-.29-.01-.52-.04h-.13c-.9.04-1.8.09-2.7.09h-.25c-.09,0-.17-.04-.25-.04-.38,0-.77.04-1.11.04-.17,0-.25,0-.38-.04-.09,0-.17-.04-.25,0-.17,0-.38,0-.56.04h-.56c-.17,0-.38,0-.56.04-.21,0-.34-.04-.52-.04-.3,0-.56,0-.86.04-.38,0-.77.04-1.11.04h-.13c-.13,0-.21-.04-.38-.04-.86.04-1.71.09-2.52.09-.17,0-.25,0-.38-.04h-.13c-.47,0-.94.04-1.41.04-.12,0-.29-.01-.52-.04h-.13c-.6.04-1.24.04-1.84.09-.09,0-.17,0-.25-.04-.09,0-.17-.04-.25-.04-.56.04-1.15.04-1.71.09h-.38c-.09,0-.17-.04-.25-.04-.86.04-1.71.09-2.52.09-.17,0-.25,0-.38-.04-.09,0-.17-.04-.25,0-.13,0-.17,0-.21.04-.09.04-.13.04-.3.04s-.38,0-.56.04c-.17,0-.25,0-.38-.04h-.25c-.09,0-.17,0-.21.04-.08.03-.19.03-.3,0-.09,0-.17-.04-.25-.04-.38,0-.77.04-1.11.04-.14,0-.27-.01-.38-.04-.09,0-.17-.04-.25,0-1.03.04-2.05.09-3.12.13-.17,0-.25,0-.38-.04h-.25c-.77.04-1.5.04-2.27.09-.17,0-.25,0-.38-.04h-.25c-.77.04-1.5.04-2.27.09-.17,0-.25,0-.38-.04h-.13c-.25,0-.47,0-.72.04-.56.04-1.11.04-1.71.09-.21,0-.3-.04-.52-.04-.25,0-.47,0-.72.04-.17,0-.38,0-.56.04-.12,0-.33-.01-.64-.04h-.13c-.64.04-1.33.04-1.97.09h-.38c-.09,0-.17-.04-.25-.04-.99.04-1.97.09-2.95.13h-.13c-.09,0-.17-.04-.21-.04s-.13.04-.17.04-.13.04-.21.04h-.25c-.09-.04-.21-.04-.38-.04-1.03.04-2.05.09-3.12.13-.17,0-.25-.04-.38-.04h-.13c-.43,0-.86.04-1.28.04-1.2.04-2.35.09-3.55.13-.21,0-.34,0-.52-.04h-.13c-1.67.09-3.29.13-4.97.21-.09,0-.17,0-.25-.04-.09,0-.17-.04-.25-.04-.77.04-1.5.04-2.27.09-.12,0-.24-.01-.38-.04h-.13c-.09,0-.13.04-.17.04-.04.04-.13.04-.21.04h-.25c-.09,0-.21-.04-.38-.04-2.18.09-4.32.17-6.5.25-.17,0-.25-.04-.38-.04h-.25c-3.55.13-7.06.3-10.61.43-.14,0-.29.03-.43.09h-.09c-1.07.04-2.18.09-3.25.13-.47,0-.94.04-1.41.04-.12,0-.3.03-.56.09h-.13c-1.89.09-3.76.13-5.65.21-.13,0-.25,0-.34.04-.04,0-.13.04-.21.04-1.33.04-2.65.09-3.98.17-.17,0-.25.04-.34.04-.04,0-.04.04-.09.04h-.13c-1.11.04-2.27.09-3.38.13-.17,0-.25.04-.3.04s-.04,0-.09.04h-.13c-.94.04-1.89.09-2.82.13-.17,0-.21.04-.3.04-.04,0-.04.04-.09.04h-.13c-.77.04-1.5.09-2.27.09-.17,0-.21.04-.3.09h-.09c-.47,0-.94.04-1.41.04-.12,0-.26.03-.43.09h-.13c-.68.04-1.41.04-2.14.09-.09,0-.17.04-.21.04-.04.04-.13.04-.21.04-.56.04-1.11.04-1.71.09-.17,0-.25.04-.34.04-.04.04-.13.04-.21.04-.56.04-1.11.04-1.71.09-.17,0-.25.04-.3.04-.04.04-.13.04-.21.04-1.03.04-2.09.09-3.12.13-.17,0-.25,0-.38-.04-.17-.04-.3-.04-.3-.09,0,0-.04,0-.09-.04-.17-.03-.27-.06-.3-.09-.04-.04-.04-.09-.09-.09-.04-.04-.13-.09-.38-.04h-.3c-.13,0-.25,0-.25-.04s-.04-.04-.04-.09c.09,0,.21-.03.38-.09.06-.03.03-.06-.09-.09-.09,0-.17-.04-.21-.04h-.13c-.25,0-.47,0-.68.04-.25,0-.51-.01-.77-.04h-.09s.13-.04.21-.04h.72c.09-.04.17-.04.25-.09.09-.03.07-.06-.04-.09-.13,0-.25-.04-.34-.04h-.43c-.17,0-.25,0-.3-.04-.04-.04,0-.09.13-.09s.25,0,.34-.04.17-.04.34-.04h.3c.13,0,.17-.04.17-.09s-.04-.04-.17-.04c-.34-.03-.59-.06-.72-.09-.03,0-.04-.01-.04-.04,0-.04.04-.04.09-.04.34,0,.64-.04.99-.04.13,0,.17,0,.21-.04s.04-.09-.09-.09h-.13c-.38,0-.77.04-1.11.04h-.13s0-.04.13-.04.25,0,.34-.04c.13-.04.25-.09.43-.13.04,0,.04-.04.04-.04-.09,0-.17,0-.21-.04-.13,0-.13-.04-.09-.09s.13-.04.21-.04h.13c.09,0,.13-.04.09-.04h-.13c-.6,0-1.24.04-1.84.09-.17,0-.25,0-.38-.04-.09,0-.17-.04-.25,0-.09,0-.17,0-.25-.04-.04,0,.04-.04.25-.04h.13c.23-.06.41-.09.56-.09s.26-.01.34-.04c.04-.04.13-.04.17-.04l.04-.04s-.13-.04-.25,0c-.21,0-.47,0-.6.09-.04,0-.13.04-.21.04-1.03.04-2.05.09-3.12.13-.17,0-.25.04-.3.04s-.13.04-.21.04h-.25s0-.04.09-.04c.13-.04.09-.04.04-.09-.04-.04-.13-.04-.21-.04h-.38c-.09,0-.17-.04-.21-.04-.13-.04-.3-.04-.52-.04-.13,0-.25-.04-.34-.04-.17-.04-.21-.04-.09-.09.17-.04.04-.09.13-.13s.21-.09.34-.13c.03,0,.06-.01.09-.04-.09,0-.13-.04-.21-.04s-.17-.04-.13-.09h.13c.09,0,.13-.04.09-.04h-.09s-.13,0-.13.04c-.3.04-.64.04-.99.04h-.13c-.08-.03-.26-.04-.52-.04h-.13c-.09-.04-.09-.09-.13-.13.09-.04.13-.04.21-.09.17-.04.34-.09.47-.17-.04-.04-.04-.09.09-.09.23-.03.38-.06.47-.09.25-.09.56-.17.86-.25.09,0,.09-.04-.04-.04h-.56c-.13,0-.25-.04-.34-.04-.13-.04-.21-.04-.34-.04h-.38c-.09-.04-.21-.04-.34-.04.09-.04.25-.09.38-.13.09-.03.23-.06.43-.09.13,0,.21-.09.09-.09-.17-.04-.3-.04-.47-.09-.13,0-.25.04-.38,0-.09,0-.21-.04-.38-.04-.3,0-.56.04-.86.04h-.25s.04-.04.13-.04c.13,0,.25,0,.34-.04s.21-.04.34-.04h.09c.09-.04.21-.09.43-.09.09,0,.13-.04.13-.04h-.13c-.25,0-.47,0-.68.04h-.25s-.04-.04.09-.04c.09,0,.09-.04.09-.04,0-.04-.09-.09-.38-.09-.21,0-.25,0-.3-.04,0,0-.04-.04,0-.04.13-.04.21-.09.43-.13.09,0,.17,0,.25-.04.04,0,.13-.04.17-.04.09,0,.13-.04.09-.04h-.56c-.17,0-.3,0-.34-.04-.04-.09-.13-.13-.17-.21l.04-.04c.09-.04.17-.04.25-.09.09-.04.25-.04.38-.04.12,0,.26-.03.43-.09.09-.04.25,0,.38-.04.04,0,.09,0,.09-.04h-.25c-.52.04-1.03.04-1.54.04-.09,0-.17,0-.21-.04-.04,0-.04-.04-.04-.04.09-.04.17-.04.25-.09.04,0,.13-.04.21-.04h.43c.3-.09.6-.21.9-.3.13-.04.09-.09.13-.13s.21-.04.34-.04c.09,0,.13-.04.09-.04h-.72c-.09,0-.13.04-.17.04-.04.04-.13.04-.21.04h-.43c-.17-.04-.3-.04-.47-.09-.04,0-.04-.04-.04-.04,0-.04-.04-.04-.13-.04s-.13-.04-.21-.04c.04,0,.13-.04.17-.04.09-.04.21-.09.43-.09.09-.04.17-.04.25-.09.09,0,.3,0,.38-.04.04-.04.09-.04.17-.04.13,0,.3,0,.34-.04s.09-.04.17-.04h.25s.09,0,.09-.04h-.77c-.13,0-.13-.04,0-.04.09-.04.17-.04.25-.09h.25c.09,0,.17-.04.25-.09h.3s.06-.01.09-.04c.04,0,.09-.04.17-.04.13,0,.3,0,.34-.04.04,0,.13-.04.17-.04.21,0,.3-.04.43-.09.09-.04.25,0,.34-.04.04,0,.13-.04.17-.04h.13c.21,0,.47,0,.68-.04h.09s.09-.04.17-.04h.25c.2,0,.36-.01.47-.04.13-.04.38,0,.47-.09.04-.04.13-.04.3-.04.25,0,.47,0,.72-.04.14,0,.29-.03.43-.09.09-.04.25-.04.38-.04s.25,0,.34-.04.21-.04.34-.04.3,0,.38-.04c.17-.06.31-.09.43-.09.3,0,.56-.04.86-.04.17,0,.38,0,.56-.04.13,0,.17-.04.25-.09.21,0,.47,0,.68-.04.34,0,.64-.04.99-.04.13-.04.17-.09.38-.09h.43c.25,0,.47,0,.72-.04.17,0,.21-.04.3-.09h.09c.38,0,.77-.04,1.11-.04.04,0,.09,0,.09-.04h-.21c-1.2.04-2.35.09-3.55.13-.12,0-.3.03-.56.09h-.13c-.17,0-.38,0-.56.04-.17,0-.25,0-.38-.04h-.25c-.13,0-.17,0-.25.04-.09.04-.13.04-.3.09-.81.04-1.62.09-2.4.09-.13,0-.17,0-.13-.04,0,0,.04-.04.09-.04.34,0,.64-.04.99-.04h.13c.13-.04.17-.09.43-.09.13,0,.25,0,.43-.04.04,0,.09,0,.09-.04,0,0-.04,0-.09-.04h-.52s.04,0,.09-.04h.13c.38,0,.77-.04,1.11-.04.17,0,.25-.04.34-.04.04-.04.13-.04.21-.04.64-.04,1.33-.04,1.97-.09.17,0,.25-.04.3-.04s.13-.04.21-.04c.94-.04,1.89-.09,2.82-.13.17,0,.21-.04.3-.04.03,0,.06-.01.09-.04h.13c.77-.04,1.5-.04,2.27-.09.17,0,.21-.04.3-.04h.09c.56-.04,1.11-.04,1.71-.09.38,0,.77-.04,1.11-.04.12,0,.26-.03.43-.09h.09c1.07-.04,2.18-.09,3.25-.13.09,0,.17-.04.21-.04.04-.04.13-.04.21-.04.86-.04,1.71-.09,2.57-.09.17,0,.25,0,.34-.04.04,0,.13-.04.21-.04.86-.04,1.71-.09,2.57-.09.17,0,.25-.04.34-.04.04,0,.04-.04.09-.04.43,0,.86-.04,1.28-.04.17,0,.25-.04.3-.04.04-.04.13-.04.21-.04.25,0,.47,0,.68-.04.04,0,.09,0,.09-.04,0,0-.04-.04-.17-.04-1.11.04-2.27.09-3.38.13-.12,0-.26.03-.43.09h-.13c-1.07.04-2.18.09-3.25.13-.09,0-.17,0-.21.04-.04,0-.13.04-.21.04-1.03.04-2.05.09-3.12.13-.17,0-.25.04-.34.04-.04.04-.13.04-.21.04-.99.04-1.97.09-2.99.13-.09,0-.17,0-.17-.04,0,0,.04-.04.09-.04.52-.04,1.03-.04,1.54-.09.17,0,.21-.04.3-.04.04,0,.04-.04.09-.04h.13c1.24-.04,2.44-.09,3.68-.13.17,0,.21-.04.3-.04h.09c.38,0,.77-.04,1.11-.04.64-.04,1.33-.04,1.97-.09.12,0,.26-.03.43-.09h.09c1.75-.09,3.51-.13,5.22-.21.09,0,.17-.04.21-.04s.13-.04.21-.04c2.35-.09,4.7-.17,7.06-.3.17,0,.25,0,.34-.04.04,0,.13-.04.21-.04,2.61-.09,5.17-.21,7.78-.3,1.75-.09,3.51-.13,5.22-.21.17,0,.25-.04.34-.04.04,0,.04-.04.09-.04.38,0,.72-.04,1.11-.04.13,0,.21.04.34.04.09-.04.17-.04.25-.09.56,0,1.11-.04,1.71-.04h.13c.25.04.43.04.6,0,.04-.04.13-.04.21-.04.3,0,.56,0,.86-.04.17,0,.25,0,.38.04h.25c.52,0,1.03-.04,1.54-.04h.09s.13-.04.17-.04c.09,0,.17.04.21.04h.25c2.05-.09,4.15-.17,6.2-.25.17,0,.25,0,.38.04h.25c1.54-.04,3.12-.13,4.66-.17.14,0,.32.01.52.04h.13c.72-.04,1.41-.04,2.14-.09.09,0,.17,0,.25.04.12.03.22.03.3,0,.04-.04.13-.04.21-.04h.25c.13,0,.21.04.38.04.77-.04,1.5-.04,2.27-.09.17,0,.25,0,.38.04h.25c.94-.04,1.89-.09,2.82-.13.17,0,.25,0,.38.04h.13c.56-.04,1.15-.04,1.71-.09.14,0,.32.01.52.04h.13c.64-.04,1.33-.04,1.97-.09.14,0,.4.01.77.04h.13c.77-.04,1.5-.04,2.27-.09.17,0,.25,0,.38.04h.25c.86-.04,1.71-.04,2.57-.09.17,0,.25,0,.38.04h.25c.86-.04,1.71-.09,2.57-.09.17,0,.25,0,.38.04h.13c.34,0,.64,0,.99-.04.17,0,.25.04.38.04h.13c.72-.04,1.41-.04,2.14-.09h.25c.09.04.21.04.38.04.34,0,.64-.04.99-.04.14,0,.4.01.77.04h.13c.56,0,1.15-.04,1.71-.09.17,0,.25,0,.38.04.09,0,.17.04.25,0,.52,0,1.03-.04,1.54-.04.17,0,.38-.04.56-.04.13,0,.25.04.34.04h.13c.64-.04,1.33-.04,1.97-.09.17,0,.25,0,.38.04h.13c.25,0,.47,0,.72-.04.3,0,.56,0,.86-.04.21,0,.3.04.52.04h.43c.3,0,.56-.04.86-.04.09,0,.17,0,.21-.04,0,0-.04,0-.09-.04-.25-.06-.51-.07-.77-.04-.25,0-.47,0-.72.04h-.13c-.13,0-.09-.04,0-.04.09-.04.17-.04.25-.09.13,0,.21.04.34.04h.3c.47,0,.94-.04,1.41-.04h.13c.13,0,.21.04.38.04.43,0,.86-.04,1.28-.04.12,0,.29.01.52.04h.13c.43,0,.86-.04,1.28-.04.09,0,.17,0,.25.04.04,0,0,.04.13.13.34.09.56.09.81.09.09,0,.17,0,.25-.04.04,0,.09,0,.09-.04h-.9c-.13,0-.25,0-.25-.04,0,0,0-.04-.04-.04,0,0,0-.04-.04-.04-.13,0-.17,0-.21.04-.04,0-.09.04-.17.04h-.52c-.09,0-.17-.04-.21-.04h-.13c-.34,0-.64,0-.99.04-.17,0-.25-.04-.38-.04h-.17c-.04.09.09.09.38.09.25,0,.47,0,.64.04h.13c.21,0,.47,0,.68-.04h.13c.4.03.66.04.77.04.09,0,.17,0,.17-.09.17-.09.47-.13.72-.13.17,0,.25.04.38.04h.13c.6,0,1.24-.04,1.84-.09h.25c.09,0,.21.04.38.04.34,0,.64-.04.99-.04.12,0,.29.01.52.04h.13c.34,0,.64-.04.99-.04h.25c.09.04.17.04.25.04.34,0,.64-.04.99-.04h.13c.23.03.4.04.52.04.21,0,.47,0,.68-.04.21,0,.34.04.52.04.43,0,.86-.04,1.28-.04.17,0,.25,0,.38.04h.99c.17,0,.25.04.52.04h1.15c.17,0,.25.04.38.04h.13c.3,0,.56,0,.86-.04.21,0,.34,0,.52.04h.13c.34,0,.64-.04.99-.04.09,0,.17,0,.25.04.09,0,.17.04.25.04.34,0,.64-.04.99-.04h.13c.2.03.37.04.52.04h.13c.21,0,.47,0,.72-.04.25,0,.47,0,.64.04.21,0,.47,0,.68-.04.17,0,.25,0,.38.04h.13c.34,0,.64,0,.99-.04.17,0,.25,0,.38.04h.68c.14,0,.32.01.52.04.13.04.25,0,.43,0h.38c.09,0,.17.04.25.04.17,0,.38,0,.56-.04h.38c.09,0,.17.04.25.04.43,0,.86-.04,1.28-.04h.13c.09,0,.17.04.21.04.17,0,.38,0,.56-.04.21,0,.38,0,.52.04h.99c.17,0,.25.04.52.04h1.11c.13,0,.21.04.38.04h.43c.12,0,.29.01.52.04h.38c.09,0,.17.04.21.04h.13c.17,0,.38,0,.56-.04.17,0,.25,0,.38.04.09,0,.17.04.25,0,.47,0,.94-.04,1.41-.04.17,0,.3,0,.38.04.17.04.38,0,.52.04.09,0,.21.04.38.04.34-.04.64-.04.99-.04.13,0,.21.04.34.04.17,0,.38,0,.56-.04h.56s.09,0,.13.04c.14.03.32.03.52,0h.38c.13.04.25.04.38.04.3,0,.56-.04.86-.04h.25c.13.04.25.04.38,0h.64c.21,0,.47,0,.68-.04.21,0,.34.04.52.04.21,0,.47,0,.68-.04h.13c.17,0,.25.09.52.04h.56v.04s-.13.04-.17.04h.34c.09,0,.17,0,.25.04.04,0,0,0-.04.09,0,.04.04,0,.09,0,.04-.04-.04-.04-.13-.04s-.13.04-.09.04h.17c.25-.04.43-.04.64-.04h.13c.13,0,.25.04.34.04h.38c.17.04.21.04.38.04h.3c.09,0,.17,0,.25.04.12.03.22.03.3,0,.09-.04.13-.04.21,0,.17.03.34.04.52.04.21,0,.38,0,.52.04.09.04.13,0,.21,0,.21-.09.3-.09.68,0,.17.04.38,0,.56,0s.25,0,.25.04.04.04.13.04h.13c.25,0,.47,0,.72-.04.13,0,.17-.04.17-.09-.04-.04,0-.04.17-.09h.25c.09,0,.09.04,0,.04-.17.04-.17.09.09.13.09,0,.17.04.17.04,0,0,0,.04.04.04.13.04.34.09.56.09s.34,0,.52.04c.13.04.25,0,.43,0s.25,0,.38.04c.09,0,.17.04.25,0h.56c.17,0,.3,0,.38.04.13.04.25,0,.38,0,.17,0,.25.04.52.04h.56c.17.04.34.04.52.04h.38c.21.04.47.09.68.13.04.04,0,.09.17.09.09,0,.17,0,.21.04.09,0,.17.04.25,0,.17,0,.38,0,.56-.04.17,0,.25,0,.38.04.09,0,.17.04.25,0h.25c.08.03.26.04.52.04h.13l-.04.04h-.09c-.43,0-.86.04-1.28.04h-.13s-.09,0-.09.04.04,0,.09,0h.38c.09,0,.17.04.21.04h.68c.17.03.34.04.52.04h.3c.09,0,.17.04.25.04.17.04.3.04.34.09,0,0,.09.04.21.04h.3c.14,0,.32.01.52.04h.38c.09,0,.1.01.04.04-.08.03,0,.06.25.09.13,0,.25.04.34.04.12.03.13.06.04.09-.03,0-.06.01-.09.04-.09.04-.13.04-.3.04h-.56c-.17,0-.21.04-.21.09s.04.04.38.04c.09,0,.17,0,.25.04-.04,0-.09.04-.17.04-.21,0-.47,0-.68.04-.17,0-.38,0-.56.04-.13,0-.17.04-.17.09s.04.04.04.09c.04.04.09.04.3.04h.13c.17,0,.25.04.52.04h.56c.17,0,.25,0,.38.04h.13c.25,0,.47,0,.68-.04h.25c.14.03.32.04.52.04.14,0,.32.01.52.04h.81s-.04,0-.09.04c-.25.04-.56.04-.81.04-.09,0-.17,0-.25-.04-.09,0-.17-.04-.25-.04-.17,0-.38,0-.56.04-.17,0-.25,0-.38-.04h-.13c-.43,0-.86.04-1.28.04-.17,0-.25,0-.38-.04h-.56c-.52,0-1.03.04-1.54.04h-.13c-.09,0-.17-.04-.25-.04h-.43c-.09,0-.21,0-.21.04,0,0,.09.04.17.04h.25c.25.03.47.04.64.04.14,0,.27.01.38.04h.25c.21,0,.47,0,.72-.04h.13c.2.03.37.04.52.04.2,0,.37.01.52.04.13.04.25,0,.38,0,.17.04.34.04.47.09.17.04.34.04.52,0h.38c.13.04.25.04.38,0h.43s.09,0,.09.04c0,0-.04.04-.09.04-.25.04-.56.04-.81.04h-.13c-.09,0-.17-.04-.21-.04h-.68c-.09,0-.13-.04-.21-.04h-.56c-.09,0-.13.04-.17.04s-.13.04-.25.04h-.52c-.43,0-.86.04-1.28.04-.14,0-.36-.01-.64-.04h-.13c-.25,0-.47,0-.72.04-.17,0-.38-.01-.64-.04h-.25c-.17,0-.3-.04-.52-.04-.17,0-.38,0-.56.04-.17,0-.25,0-.38-.04-.04,0-.09-.04-.13,0-.43,0-.86.04-1.41.04-.13,0-.09,0,0,0,.13,0,.17,0,.09-.04-.04,0-.13-.04-.17-.04s-.09,0,.09.04c.08.03.14.04.17.04.04,0,.17.04.25,0h.56c.2.03.42.04.64.04h.25c.13,0,.21.04.38.04.21,0,.47,0,.68-.04h.13c.13,0,.21.04.38.04h.56s0,.04-.09.04h-.68c-.09,0-.21,0-.21.04,0,0,.09.04.17.04h.43c.25,0,.47,0,.64.04.13.04.13,0,.3.09.04.04.13.04.25.04.21,0,.34,0,.34.04-.04.04-.13.04-.21.04-.17,0-.38,0-.56.04h-.25c-.09,0-.13-.04-.21-.04h-.6c-.09,0-.17-.04-.21-.04h-.13c-.17,0-.38,0-.56.04-.14,0-.32-.01-.52-.04h-.25c-.14,0-.36-.01-.64-.04h-.13c-.43,0-.86.04-1.28.04-.23,0-.41.03-.56.09-.13.04-.17.04,0,.09.13,0,.21.04.34.04s.25-.04.38,0c.09,0,.17.04.21.04h.38s.17.04.25.04h.56s.09,0,.13.04c.13,0,.25.04.38,0,.25,0,.47,0,.64.04h.47s-.04.04-.09.04c-.25,0-.56.04-.81.04h-.13c-.09,0-.13-.04-.21-.04h-.6c-.09,0-.17,0-.21-.04h-.68c-.09,0-.17-.04-.21-.04h-.13c-.17,0-.38,0-.56.04-.12,0-.29-.01-.52-.04h-.13c-.25,0-.47,0-.72.04-.09,0-.17,0-.25-.04-.09,0-.17-.04-.25-.04-.38,0-.77.04-1.11.04-.17,0-.3,0-.38-.04-.13-.04-.25,0-.38,0-.2,0-.37-.01-.52-.04h-.13c-.34,0-.64.04-.99.04-.17,0-.25,0-.38-.04h-.13c-.25,0-.47,0-.72.04s-.3-.04-.52-.04c-.25,0-.47,0-.68.04-.17,0-.38,0-.56.04-.17,0-.38,0-.56.04h-.25c-.09-.04-.21-.04-.34-.04-.12-.03-.24-.03-.38,0h-.13c-.23,0-.49-.01-.77-.04h-.09s-.13.04-.17.04c-.09,0-.17,0-.21-.04-.13-.04-.38,0-.52,0-.04,0-.13-.04-.21-.04h-.3c-.17,0-.31.03-.43.09-.09.04-.25.04-.38.04h-.38c-.09-.04-.21-.04-.38-.04s-.38,0-.56.04h-.13c-.29-.03-.5-.04-.64-.04h-.3c-.17,0-.25,0-.38-.04h-1.11c-.21,0-.34-.04-.52-.04-.21,0-.47,0-.68.04h-.25c-.09,0-.21-.04-.38-.04-.21,0-.47,0-.68.04-.17-.04-.25-.04-.52-.04h-.43c-.17,0-.38,0-.56.04-.14,0-.32-.01-.52-.04-.17-.04-.38,0-.56,0-.13,0-.21.04-.17.09s-.04.09-.17.09c-.34,0-.64.04-.99.04h-.13c-.23-.03-.4-.04-.52-.04-.21,0-.47,0-.68.04-.17,0-.25,0-.38-.04-.09,0-.17-.04-.25,0-1.11.04-2.27.09-3.38.13-.17,0-.25,0-.38-.04h-.43c-.43,0-.86.04-1.28.04-.17,0-.21.04-.3.04-.04,0-.13.04-.21.04h-.25c-.09-.04-.21-.04-.38-.04s-.38,0-.56.04c-.09,0-.17,0-.21.04,0,0,.04,0,.09.04.13,0,.21.04.34.04h.68c.13.04.3.04.52.04.17,0,.25.09.52.04h.56c.13,0,.21.04.38.04s.38,0,.56-.04h.25c.09,0,.21.04.38.04h.43c.12,0,.29.01.52.04h.13c.25,0,.47,0,.72-.04.09,0,.17,0,.25.04.04,0,0,.04.04.04-.47.04-.94.04-1.41.04-.17,0-.25,0-.38-.04h-.13c-.34,0-.64.04-.99.04h-.25c-.21-.04-.43-.04-.64,0-.17,0-.21.04-.21.09.04.04.13.09.38.04h.3c.09,0,.17,0,.25.04.09,0,.17.04.25.04.17,0,.38,0,.56-.04.17,0,.25,0,.38.04s.25.04.38,0h.52s.09.04.13,0c.34,0,.64,0,.99-.04.17,0,.25,0,.38.04h.13c.25,0,.47,0,.72-.04h.25c.14.03.32.04.52.04h.25c.09,0,.17,0,.21.04h.13c.17,0,.38,0,.56-.04.12,0,.29.01.52.04h.81c.13.04.25.04.38,0h.43c.2.03.37.04.52.04.3,0,.56-.04.86-.04h.13c.09,0,.13.04.21.04h.25c.2,0,.37.01.52.04.17.04.38,0,.52.04.09.04.21.04.38.04h.43c.14,0,.32.01.52.04h.68c.21,0,.34,0,.52.04h.43c.13,0,.25,0,.38.04s.25,0,.38,0h.43c.2.03.37.04.52.04h.68c.09,0,.13.04.21.04h.6c.09,0,.17,0,.21.04h.68c.09,0,.17.04.21.04h.25c.23,0,.44.01.64.04h.43c.13,0,.25,0,.38.04.13,0,.25.04.38,0h.43c.17.04.3.04.52.04.17,0,.25.04.52.04.17,0,.38,0,.56-.04.17,0,.3,0,.38.04.17.04.38,0,.52.04.09.04.21.04.38.04s.25,0,.3.04c.03.03.01.04-.04.04h-.21c-.09-.04-.21-.04-.38-.04-.13,0-.25-.04-.34-.04h-.38c-.2-.03-.37-.04-.52-.04h-.43c-.17,0-.25,0-.38-.04h-.13c-.34,0-.64.04-.99.04-.17,0-.25,0-.38-.04h-.13c-.3,0-.56.04-.86.04-.04,0-.13.04-.17.04s-.13.04-.25.04c-.17,0-.34.04-.56,0-.17-.04-.21-.04-.38,0-.21,0-.47,0-.68.04-.04,0-.09,0-.09.04h.47c.09,0,.17.04.21.04h.38c.17.04.34.04.47.09s.25,0,.38,0c.37.03.67.04.9.04h.43c.13,0,.21.04.38.04h.43c.12,0,.29.01.52.04h.25c.09,0,.17,0,.25.04.04,0,0,0,.04.04-.3,0-.56,0-.86.04-.17,0-.25,0-.38-.04h-.13c-.3,0-.56.04-.86.04-.04,0-.09,0-.09.04,0,0,.09.04.17.04h.38c.09.04.21.04.38.04h.3c.25,0,.47,0,.64.04h.68c.17.04.3.04.52.04s.38.04.6.09c.09,0,.17.04.25,0h.43c.09,0,.17.04.21.04h.99c.13,0,.25.04.34.04.17,0,.38,0,.56-.04.14,0,.32.01.52.04h.38c.21,0,.34,0,.52.04h.13c.13,0,.25,0,.38.04.09,0,.17.04.25,0,.34,0,.64-.04.99-.04h.13c.2.03.37.04.52.04.17,0,.38,0,.52.04h.13c.21,0,.47,0,.68-.04h.25c.09,0,.21.04.38.04.47-.04.47,0,1.07.04h.38c.17.04.21.04.38.04h.43c.21,0,.34,0,.52.04h.77c.09,0,.17.04.25.04.34,0,.64-.04.99-.04h.13c.23.03.44.04.64.04h.25c.09,0,.17.04.21.04h.68c.13,0,.21.04.38.04h.56c.09,0,.21.04.38.04s.38,0,.56-.04h.25c.09.04.21.04.38.04.23,0,.44.01.64.04h.25c.09,0,.17,0,.25.04l-.04-1.07-.09.17ZM168.59.42c-.09,0-.17,0-.34-.04,0,0,0-.04-.04-.04s-.13-.04-.21-.04c-.17,0-.34.04-.34.04,0,0,.04.04.13.04h.13c.13,0,.21.04.34.04-.04-.04,0-.04,0,0s.04.04.13.04h.09c.17,0,.17-.04.13-.04t0,0h.13c.09,0,.13-.04.09-.04h-.09c-.09-.04-.13,0-.13.04ZM191.78,7.99c-.21,0-.43,0-.64.04-.04,0-.09,0-.09.04h.34c.17,0,.25.04.34.04h.13c.21,0,.47,0,.68-.04h.13c.13,0,.09-.04,0-.04-.13,0-.21-.04-.34-.04-.17-.04-.34,0-.56,0h0ZM175.57,8.51h-.56c-.09,0-.17.04-.21.04.09,0,.13.04.21.04h.43c.17,0,.25.04.34.04h.13c.21,0,.34-.04.3-.09s-.13-.04-.25-.04h-.39ZM192.77,7.01s.09,0,.09-.04c.03-.03.01-.06-.04-.09-.13-.04-.25,0-.38,0h-.09v.04c.13.04.25.09.43.09h0ZM167.96,5.13h-.43s-.09,0-.09.04c-.04,0,0,.04.13.04h.43c.17,0,.3-.04.21-.04-.09-.04-.17-.09-.25-.04ZM17.5,3.97h.25c.09,0,.17,0,.21-.04-.09,0-.17-.04-.25-.04h-.43c-.09,0-.17.04-.17.04,0,.04.17.04.38.04h0ZM155.85,3.63h.38s.09,0,.09-.04v-.04c-.09,0-.43.04-.47.09-.04,0,0,0,0,0h0ZM146.78.03s0,.04,0,0c.04.04.13.04.21.09.09,0,.13-.04.09-.04l-.04-.04s-.09-.04-.17-.04c-.04,0-.09.04-.09.04h0ZM199.4,8.55s-.06.01-.09.04c.09,0,.13.04.21,0,.03,0,.06-.01.09-.04h-.21ZM197.6,8.68h.13c.09,0,.13,0,.17-.04h-.13s-.13,0-.17.04ZM198.72,8.55s0,.04.13.04c.03,0,.06-.01.09-.04.04,0,0-.04-.13-.04,0,0-.04,0-.09.04ZM192.68,7.82s0,.04.13.04c.03,0,.06-.01.09-.04.04,0,0-.04-.13-.04-.03.03-.06.04-.09.04ZM184.43,3.2h-.09c.09.04.13.04.21,0,.03,0,.06-.01.09-.04-.09.04-.17.04-.21.04ZM176.52.76c.09,0,.13,0,.17-.04h-.13c-.09,0-.13,0-.17.04.04-.04.09,0,.13,0ZM172.33.59s-.06.01-.09.04c.09,0,.13.04.21,0,.03,0,.06-.01.09-.04h-.21ZM143.96.03s-.06.01-.09.04c.09,0,.13.04.21,0,.03,0,.06-.01.09-.04h-.21ZM2.87,5.64h-.13c-.09,0-.13.04-.04.04h.13s.09-.04.04-.04Z"/>
  </g>
</svg>