<svg width="552" height="237" viewBox="0 0 552 237" fill="none" xmlns="http://www.w3.org/2000/svg">
<g opacity="0.3">
<path d="M97.6299 152.41C85.6499 152.41 73.0702 145.67 61.9302 139.7C58.5002 137.87 55.2799 136.13 52.1899 134.66L2.54004 111.04L2.7002 110.73L52.3501 134.38C55.4301 135.84 58.6799 137.58 62.1099 139.42C73.6799 145.61 86.8101 152.66 99.1401 152.04C112.53 151.39 119.57 140.6 124.23 131.25C125.74 128.2 127.21 125.1 128.64 122.08C132.52 113.87 136.54 105.39 141.89 97.46C146.14 91.18 151.4 84.59 157.14 78.44C163.43 71.66 170.14 65.45 177.15 59.98C184.85 53.95 192.68 48.95 200.42 45.12C208.97 40.89 217.42 38.16 225.49 36.95C241.66 34.53 256.38 38.19 269.22 47.92C279.9 56 288.96 65.98 297.74 75.61C305.37 84 313.27 92.7 322.2 100.13C332.53 108.71 343.7 116.63 355.41 123.66C365.29 129.6 377.56 136.96 390.21 135.32C400.91 133.92 407.09 127.36 409.11 115.3C410.82 105.04 409.19 92.86 407.89 83.1C407.44 79.77 407.01 76.6 406.81 74.06C405.67 59.98 406.4 48.36 409.06 38.53C410.71 32.41 413.16 26.94 416.31 22.27C419.84 17.08 424.37 12.76 429.78 9.39997C434.45 6.50997 439.72 4.39997 445.46 3.14997C450.91 1.96997 456.65 1.55997 462.51 1.96997C474.04 2.77997 485.31 6.62997 494.27 12.88C499.05 16.21 503.39 20.22 507.17 24.78C510.76 29.1 513.87 33.98 516.4 39.26C521.18 49.17 523.93 60.49 524.34 71.93H523.97C523.09 47.56 511.91 25.59 494.02 13.15C475.06 -0.06003 448.11 -1.52003 429.98 9.69997C412.02 20.8 404.57 41.84 407.18 74.01C407.38 76.56 407.81 79.7 408.26 83.02C409.59 92.81 411.22 105.03 409.48 115.31C408.54 120.94 406.64 125.44 403.85 128.71C402.28 130.54 400.38 132.07 398.22 133.19C395.91 134.4 393.24 135.21 390.26 135.58C389.04 135.74 387.81 135.83 386.54 135.83C381.95 135.83 377.07 134.77 371.72 132.63C365.68 130.21 359.86 126.72 355.19 123.9C343.45 116.84 332.27 108.92 321.94 100.34C312.98 92.91 305.08 84.21 297.44 75.79C288.68 66.15 279.62 56.18 268.98 48.13C256.22 38.49 241.63 34.83 225.56 37.22C193.02 42.16 159.56 72.03 142.21 97.67C136.88 105.56 132.88 114.02 129 122.22C127.57 125.23 126.1 128.34 124.59 131.39C121.51 137.58 118.47 142.02 115 145.35C112.84 147.43 110.51 149.05 108.04 150.23C105.3 151.5 102.32 152.25 99.1802 152.41C98.6702 152.41 98.1599 152.41 97.6499 152.41H97.6299Z" stroke="#004000" stroke-width="3" stroke-miterlimit="6.38"/>
<path d="M123.41 235.46C111.43 235.46 98.85 228.72 87.71 222.75C84.28 220.92 81.0602 219.18 77.9702 217.71L28.3198 194.06L28.48 193.75L78.1499 217.4C81.2299 218.86 84.4802 220.6 87.9102 222.44C99.4802 228.63 112.61 235.68 124.94 235.06C138.33 234.41 145.37 223.62 150.03 214.27C151.54 211.22 153.01 208.12 154.44 205.1C158.32 196.89 162.34 188.41 167.69 180.48C171.94 174.2 177.2 167.61 182.94 161.46C189.23 154.68 195.94 148.47 202.95 143C210.65 136.97 218.48 131.97 226.22 128.14C234.77 123.91 243.22 121.18 251.29 119.97C267.46 117.55 282.18 121.21 295.02 130.94C305.7 139.02 314.76 149 323.54 158.63C331.17 167.02 339.07 175.72 348 183.15C358.33 191.73 369.5 199.65 381.21 206.68C391.09 212.62 403.36 219.98 416.01 218.34C426.71 216.94 432.89 210.38 434.91 198.32C436.62 188.06 434.99 175.88 433.69 166.12C433.24 162.79 432.81 159.62 432.61 157.08C431.47 143 432.2 131.38 434.86 121.55C436.51 115.43 438.96 109.96 442.11 105.29C445.64 100.1 450.17 95.78 455.58 92.42C460.25 89.53 465.52 87.42 471.26 86.17C476.71 84.99 482.45 84.58 488.31 84.99C499.84 85.8 511.11 89.65 520.07 95.9C524.85 99.23 529.19 103.24 532.97 107.8C536.56 112.12 539.67 117 542.2 122.28C546.98 132.19 549.73 143.51 550.14 154.95H549.77C548.89 130.58 537.71 108.61 519.82 96.17C500.86 82.96 473.91 81.5 455.78 92.72C437.82 103.82 430.37 124.86 432.98 157.03C433.18 159.58 433.61 162.72 434.06 166.04C435.39 175.83 437.02 188.05 435.28 198.33C434.34 203.96 432.44 208.46 429.65 211.73C428.08 213.56 426.18 215.09 424.02 216.21C421.71 217.42 419.04 218.23 416.06 218.6C414.84 218.76 413.61 218.85 412.34 218.85C407.75 218.85 402.87 217.79 397.52 215.65C391.48 213.23 385.66 209.74 380.99 206.92C369.25 199.86 358.07 191.94 347.74 183.36C338.78 175.93 330.88 167.23 323.24 158.81C314.48 149.17 305.42 139.2 294.78 131.15C282.02 121.51 267.43 117.85 251.36 120.24C218.86 125.12 185.38 154.96 168.03 180.63C162.7 188.52 158.7 196.98 154.82 205.18C153.39 208.19 151.94 211.3 150.41 214.35C147.33 220.54 144.29 224.98 140.82 228.31C138.66 230.39 136.33 232.01 133.86 233.19C131.12 234.46 128.14 235.21 125 235.37C124.47 235.43 123.96 235.46 123.43 235.46H123.41Z" stroke="#004000" stroke-width="3" stroke-miterlimit="6.38"/>
</g>
</svg>
