<?xml version="1.0" encoding="UTF-8"?>
<svg id="_Слой_2" data-name="Слой 2" xmlns="http://www.w3.org/2000/svg" viewBox="0 0 782.04 687.86">
  <defs>
    <style>
      .cls-1 {
        fill: none;
        stroke: #fff;
        stroke-miterlimit: 6.71;
        stroke-width: .67px;
      }
    </style>
  </defs>
  <g id="_Слой_1-2" data-name="Слой 1">
    <g>
      <path class="cls-1" d="M700.3,396.97c-.07,3.78,2.37,6.58,4.98,6.77,1.95.15,4.07-1.15,4.6-2.81.8-2.52-1.9-6.45-7.41-8.68,1.25.43,6.29,2.01,9.96-.64.21-.15,3.09-2.27,2.56-4.09-.38-1.27-2.26-1.72-3.07-1.92-3.81-.91-7.35,1.17-8.81,2.17,2.82-3.48,3.34-6.59,3.45-8.17.04-.62.3-4.44-1.15-4.98-1.5-.56-3.86,2.75-4.09,3.07-1.64,2.34-1.97,4.78-2.05,6.13-.89-3.91-2.84-6-3.83-6.9-.98-.89-2.7-2.44-4.09-1.92-1.53.58-1.89,3.38-1.53,5.23.48,2.53,2.39,3.96,2.94,4.34-.77-.68-2.89-2.37-5.88-2.43-1.54-.03-4.44.35-4.85,1.78-.46,1.58,2.35,3.62,3.7,4.6,2.04,1.48,4.03,2.19,5.37,2.56-1.34.41-4.11,1.5-5.75,4.21-.42.68-1.68,2.78-.89,3.96.93,1.38,4.19.67,5.88,0,2.52-1,3.96-2.87,4.6-3.83-.68,2.05-1.42,5.48,0,8.81.34.78,1.36,3.2,2.81,3.19,1.32,0,2.25-2.01,2.56-2.68,1.41-3.04.55-6.24,0-7.79h-.01Z"/>
      <path class="cls-1" d="M756.21,623.63c-.07,3.78,2.37,6.58,4.98,6.77,1.95.15,4.07-1.15,4.6-2.81.8-2.52-1.9-6.45-7.41-8.68,1.25.43,6.29,2.01,9.96-.64.21-.15,3.09-2.27,2.56-4.09-.38-1.27-2.26-1.72-3.07-1.92-3.81-.91-7.35,1.17-8.81,2.17,2.82-3.48,3.34-6.59,3.45-8.17.04-.62.3-4.44-1.15-4.98-1.5-.56-3.86,2.75-4.09,3.07-1.64,2.34-1.97,4.78-2.05,6.13-.89-3.91-2.84-6-3.83-6.9-.98-.89-2.7-2.44-4.09-1.92-1.53.58-1.89,3.38-1.53,5.23.48,2.53,2.39,3.96,2.94,4.34-.77-.68-2.89-2.37-5.88-2.43-1.54-.03-4.44.35-4.85,1.78-.46,1.58,2.35,3.62,3.7,4.6,2.04,1.48,4.03,2.19,5.37,2.56-1.34.41-4.11,1.5-5.75,4.21-.42.68-1.68,2.78-.89,3.96.93,1.38,4.19.67,5.88,0,2.52-1,3.96-2.87,4.6-3.83-.68,2.05-1.42,5.48,0,8.81.34.78,1.36,3.2,2.81,3.19,1.32,0,2.25-2.01,2.56-2.68,1.41-3.04.55-6.24,0-7.79h-.01Z"/>
      <path class="cls-1" d="M105.62,107.93c-.13,6.21,3.9,10.83,8.2,11.15,3.21.24,6.7-1.89,7.57-4.63,1.32-4.15-3.13-10.64-12.2-14.3,2.05.7,10.36,3.31,16.41-1.05.36-.25,5.09-3.75,4.21-6.73-.62-2.1-3.72-2.84-5.05-3.15-6.28-1.5-12.1,1.93-14.51,3.58,4.65-5.72,5.5-10.86,5.68-13.46.07-1.02.5-7.32-1.89-8.2-2.47-.91-6.37,4.53-6.73,5.05-2.71,3.84-3.25,7.88-3.37,10.1-1.46-6.43-4.67-9.87-6.31-11.36-1.62-1.46-4.44-4.02-6.73-3.15-2.52.95-3.11,5.56-2.52,8.62.79,4.17,3.94,6.52,4.84,7.15-1.27-1.13-4.75-3.9-9.68-4-2.54-.05-7.31.58-7.99,2.95-.75,2.61,3.87,5.96,6.1,7.57,3.35,2.43,6.63,3.6,8.84,4.21-2.2.68-6.76,2.46-9.47,6.94-.68,1.13-2.78,4.59-1.47,6.52,1.54,2.27,6.89,1.11,9.68,0,4.14-1.64,6.52-4.72,7.57-6.31-1.13,3.38-2.34,9.02,0,14.51.55,1.29,2.24,5.27,4.63,5.26,2.17-.01,3.7-3.31,4.21-4.42,2.32-5.01.91-10.27,0-12.83h0Z"/>
      <path class="cls-1" d="M739.03,65.17c-.22,10.92,6.84,19.02,14.41,19.58,5.63.42,11.78-3.31,13.3-8.13,2.31-7.29-5.5-18.67-21.42-25.12,3.6,1.23,18.2,5.82,28.82-1.85.62-.45,8.95-6.59,7.39-11.82-1.1-3.69-6.54-4.99-8.86-5.54-11.03-2.63-21.25,3.4-25.49,6.28,8.17-10.04,9.66-19.07,9.98-23.65.12-1.79.88-12.86-3.33-14.41-4.34-1.6-11.18,7.96-11.82,8.86-4.76,6.76-5.7,13.84-5.91,17.73-2.56-11.29-8.2-17.34-11.08-19.95-2.83-2.56-7.8-7.06-11.82-5.54-4.43,1.67-5.46,9.77-4.44,15.14,1.39,7.31,6.91,11.45,8.49,12.56-2.23-1.98-8.35-6.85-17-7.02-4.46-.09-12.84,1.01-14.04,5.17-1.32,4.59,6.8,10.47,10.72,13.3,5.9,4.27,11.65,6.33,15.51,7.39-3.86,1.19-11.87,4.32-16.63,12.19-1.2,1.99-4.87,8.07-2.58,11.45,2.7,3.99,12.11,1.94,17,0,7.27-2.89,11.45-8.29,13.3-11.08-1.98,5.94-4.1,15.84,0,25.49.97,2.27,3.93,9.27,8.13,9.23,3.81-.03,6.49-5.82,7.39-7.76,4.07-8.8,1.6-18.04,0-22.54h0Z"/>
      <path class="cls-1" d="M731.76,265.5c4.46,3.89,1.35,9.47,5.68,13.86,3.37,3.4,8.4,3.23,9.24,3.2,4.73-.17,7.92-2.84,8.88-3.73,2.8-2.58,1.84-3.93,4.62-6.58,3.32-3.17,5.39-1.91,8.35-4.97.67-.7,3.34-3.64,3.38-7.99,0-.6-.02-4.14-2.49-7.11-2.33-2.8-4.18-1.9-5.86-4.26-2.25-3.17.28-5.94-1.6-9.41-1.67-3.09-5.82-4.86-9.24-4.8-5.17.09-5.86,4.31-13.33,6.39-4.44,1.23-4.97-.05-8.35,1.42-1.24.54-7.9,3.64-8.88,10.48-.51,3.56.6,7.58,3.2,10.13,2.47,2.43,3.95,1.25,6.39,3.38h0Z"/>
      <path class="cls-1" d="M648.49,665.15c5.85,5.11,1.77,12.42,7.45,18.16,4.42,4.46,11.02,4.23,12.1,4.19,6.21-.22,10.37-3.72,11.64-4.89,3.67-3.38,2.42-5.15,6.05-8.62,4.35-4.15,7.07-2.5,10.94-6.52.88-.91,4.38-4.77,4.42-10.47,0-.78-.03-5.43-3.26-9.31-3.05-3.66-5.48-2.49-7.68-5.59-2.96-4.16.37-7.78-2.09-12.34-2.19-4.05-7.62-6.37-12.1-6.29-6.78.12-7.68,5.66-17.46,8.38-5.82,1.62-6.51-.06-10.94,1.87-1.62.7-10.36,4.77-11.64,13.74-.66,4.66.79,9.93,4.19,13.27,3.23,3.18,5.19,1.64,8.38,4.42h0Z"/>
      <path class="cls-1" d="M721.92,440.49c1.63,1.42.5,3.47,2.08,5.07,1.23,1.25,3.07,1.18,3.38,1.17,1.73-.06,2.9-1.04,3.25-1.36,1.03-.95.67-1.44,1.69-2.4,1.21-1.16,1.97-.7,3.05-1.82.25-.25,1.22-1.33,1.23-2.93,0-.22,0-1.52-.91-2.6-.85-1.02-1.53-.7-2.15-1.56-.83-1.16.1-2.17-.58-3.44-.61-1.13-2.13-1.78-3.38-1.76-1.89.03-2.15,1.58-4.87,2.34-1.62.45-1.82-.02-3.05.52-.46.19-2.89,1.33-3.25,3.83-.19,1.3.22,2.77,1.17,3.7.9.89,1.45.46,2.34,1.23h0Z"/>
      <path class="cls-1" d="M725.26,138.1c-.64,1.03-1.42,2.27-1.48,3.83-.07,1.98,1.1,2.12,1.63,4.68.45,2.16-.3,2.5.21,5.36.44,2.48,1.15,3.09,1.54,3.33.07.05,1.29.82,2.45.27.98-.46,1.38-1.62,1.37-2.45-.02-.97-.6-1.22-.42-1.77.32-.96,2.18-.48,2.91-1.58.71-1.08-.54-2.34.19-3.33.7-.95,2.18-.26,2.81-1.19.62-.93-.59-1.96-.04-3.13.62-1.32,2.52-.83,3.14-2.13.55-1.15-.7-1.93-.23-3.37.49-1.48,2.08-1.42,2.36-2.8.19-.96-.34-2.13-1.15-2.5-.7-.32-1.4.04-3.12.88-2.85,1.39-4.27,2.08-4.65,2.2-2.68.85-3.46-.03-5.18,1.07-1.13.72-1.74,1.7-2.34,2.64h0Z"/>
      <path class="cls-1" d="M37.5,648.48c-1.86-1.66-4.11-3.68-7.27-4.33-4-.84-4.7,1.5-10.08,1.68-4.55.16-4.97-1.48-10.96-1.43-5.18.04-6.66,1.27-7.31,1.97-.13.13-2.11,2.34-1.4,4.88.6,2.15,2.8,3.38,4.51,3.63,1.98.3,2.69-.81,3.74-.23,1.84.99.21,4.6,2.2,6.45,1.95,1.82,4.93-.28,6.69,1.54,1.68,1.74-.22,4.52,1.46,6.12,1.66,1.58,4.18-.52,6.38,1,2.46,1.71.81,5.39,3.25,7.13,2.13,1.51,4.17-.76,6.92.7,2.85,1.51,2.17,4.72,4.88,5.77,1.89.73,4.44.04,5.48-1.48.89-1.3.41-2.85-.7-6.64-1.83-6.27-2.74-9.4-2.86-10.21-.79-5.74,1.25-7.03-.39-10.9-1.07-2.54-2.85-4.13-4.56-5.66h0Z"/>
      <path class="cls-1" d="M719.76,596.22c-.75-1.52-1.77-3.84-2.65-6.8-1.52-5.12-4.09-13.75-.17-21.71.93-1.89,2.98-5.27,7.45-8.29-1.3,4.09-2.54,9.18-3.15,15.08-.43,4.1-.48,7.84-.33,11.1,1.18-2.42,2.55-4.97,4.14-7.62,1.21-2.02,2.44-3.9,3.64-5.64-.08-.54-1-7.51,4.31-12.27,4.31-3.85,9.56-3.4,10.44-3.31-1.91,1.33-4.29,3.26-6.63,5.96-2.13,2.46-3.62,4.85-4.64,6.8,3.45-1.91,7.26-3.82,11.43-5.64,2.56-1.11,5.06-2.11,7.45-2.99-.46-.36-1.88-1.56-2.32-3.64-.5-2.34.48-4.68,1.99-5.96,1.47-1.24,2.21-.44,4.97-1.66,3.21-1.42,3.48-3.08,5.64-3.15,1.46-.05,2.92.65,3.81,1.66,1.3,1.47.45,2.54,1.49,4.97,1.28,2.99,3.23,2.89,3.64,5.3.25,1.48-.16,3.36-1.33,4.48-1.13,1.08-2.05.56-3.81,1.83-1.51,1.08-1.22,1.74-2.48,2.65-1.5,1.09-4.01,1.69-6.29.66-2.58-1.16-3.36-3.74-3.48-4.14-6.29,1.64-10.94,4.11-13.92,5.96-4.41,2.75-11.72,7.32-14.75,15.91-.55,1.56-.84,2.91-.99,3.81v11.43c-.5.07-1.05.13-1.66.17-.6.03-1.17.03-1.68,0-.05-1.66-.09-3.31-.15-4.97h.02Z"/>
      <path class="cls-1" d="M745.11,322.62c-2.7,1.17-6.84,2.76-12.04,4.05-9.02,2.22-24.26,5.97-37.78-1.52-3.21-1.78-8.92-5.62-13.8-13.66,7.01,2.6,15.76,5.17,25.97,6.73,7.1,1.08,13.59,1.48,19.28,1.5-4.11-2.25-8.44-4.85-12.92-7.84-3.42-2.28-6.58-4.56-9.5-6.81-.94.09-13.16,1.12-20.97-8.51-6.34-7.82-5.13-16.92-4.9-18.44,2.16,3.44,5.32,7.73,9.83,12.02,4.11,3.91,8.14,6.7,11.43,8.64-3.03-6.16-6.04-12.95-8.85-20.36-1.73-4.56-3.24-8.97-4.57-13.22-.66.76-2.88,3.14-6.54,3.73-4.11.66-8.11-1.22-10.21-3.95-2.04-2.66-.57-3.89-2.47-8.78-2.21-5.7-5.07-6.3-5.01-10.06.04-2.53,1.38-5.03,3.2-6.5,2.66-2.14,4.46-.56,8.77-2.18,5.3-1.99,5.29-5.38,9.53-5.9,2.6-.32,5.84.56,7.68,2.68,1.78,2.06.81,3.61,2.85,6.78,1.75,2.72,2.92,2.27,4.41,4.54,1.76,2.7,2.61,7.13.63,11.01-2.23,4.39-6.78,5.54-7.49,5.71,2.34,11.07,6.23,19.38,9.22,24.71,4.42,7.89,11.76,20.99,26.45,26.98,2.68,1.09,5,1.7,6.55,2.05,6.63.32,13.26.63,19.89.95.09.88.15,1.85.15,2.9s-.05,2.03-.14,2.92c-2.89-.05-5.77-.11-8.66-.16h0Z"/>
    </g>
  </g>
</svg>