<svg width="153" height="313" viewBox="0 0 153 313" fill="none" xmlns="http://www.w3.org/2000/svg">
<path d="M107.981 132.79C107.871 131.07 108.921 129.75 110.111 129.6C110.991 129.49 111.99 130.04 112.26 130.78C112.68 131.91 111.531 133.76 109.071 134.89C109.631 134.67 111.89 133.84 113.62 134.97C113.72 135.04 115.08 135.94 114.87 136.78C114.72 137.37 113.88 137.61 113.51 137.72C111.79 138.21 110.141 137.34 109.451 136.92C110.811 138.44 111.111 139.85 111.191 140.57C111.221 140.85 111.42 142.59 110.77 142.86C110.1 143.14 108.95 141.69 108.84 141.55C108.04 140.52 107.841 139.41 107.781 138.8C107.461 140.6 106.61 141.59 106.18 142.02C105.75 142.44 105.001 143.19 104.361 142.98C103.651 142.75 103.43 141.48 103.55 140.63C103.72 139.47 104.56 138.78 104.8 138.59C104.46 138.92 103.54 139.73 102.17 139.82C101.47 139.87 100.14 139.75 99.9203 139.11C99.6803 138.4 100.91 137.41 101.51 136.94C102.41 136.22 103.301 135.86 103.901 135.66C103.281 135.5 102.001 135.07 101.191 133.86C100.991 133.56 100.361 132.63 100.701 132.08C101.101 131.43 102.59 131.69 103.38 131.96C104.55 132.36 105.24 133.18 105.55 133.61C105.19 132.69 104.79 131.15 105.37 129.6C105.51 129.23 105.92 128.11 106.58 128.09C107.18 128.07 107.65 128.96 107.8 129.26C108.5 130.62 108.18 132.09 107.96 132.81L107.981 132.79Z" stroke="white" stroke-width="0.5" stroke-miterlimit="10"/>
<path d="M128.691 28.3702C128.581 26.6502 129.631 25.3302 130.821 25.1802C131.701 25.0702 132.7 25.6202 132.97 26.3602C133.39 27.4902 132.241 29.3402 129.781 30.4702C130.341 30.2502 132.6 29.4202 134.33 30.5502C134.43 30.6202 135.79 31.5202 135.58 32.3602C135.43 32.9502 134.59 33.1902 134.22 33.3002C132.5 33.7902 130.851 32.9202 130.161 32.5002C131.521 34.0202 131.821 35.4302 131.901 36.1502C131.931 36.4302 132.131 38.1702 131.481 38.4402C130.811 38.7202 129.66 37.2702 129.55 37.1302C128.75 36.1002 128.551 34.9902 128.491 34.3802C128.171 36.1802 127.32 37.1702 126.89 37.6002C126.46 38.0202 125.711 38.7702 125.071 38.5602C124.361 38.3302 124.14 37.0602 124.26 36.2102C124.43 35.0502 125.27 34.3603 125.51 34.1703C125.17 34.5003 124.25 35.3102 122.88 35.4002C122.18 35.4502 120.85 35.3302 120.63 34.6902C120.39 33.9802 121.62 32.9902 122.22 32.5202C123.12 31.8002 124.011 31.4402 124.611 31.2402C123.991 31.0802 122.711 30.6502 121.901 29.4402C121.701 29.1402 121.071 28.2102 121.411 27.6602C121.811 27.0102 123.3 27.2702 124.09 27.5402C125.26 27.9402 125.95 28.7602 126.26 29.1902C125.9 28.2702 125.5 26.7302 126.08 25.1802C126.22 24.8102 126.63 23.6903 127.29 23.6703C127.89 23.6503 128.36 24.5402 128.51 24.8402C129.21 26.2002 128.89 27.6703 128.67 28.3903L128.691 28.3702Z" stroke="white" stroke-width="0.5" stroke-miterlimit="10"/>
<path d="M13.6499 202.32C13.4599 199.49 15.1999 197.31 17.1499 197.07C18.5999 196.89 20.2402 197.79 20.7002 199.02C21.3802 200.88 19.5 203.93 15.44 205.79C16.36 205.43 20.0902 204.06 22.9302 205.92C23.1002 206.03 25.3303 207.52 24.9903 208.9C24.7503 209.87 23.3498 210.27 22.7598 210.44C19.9298 211.25 17.2099 209.81 16.0699 209.12C18.3099 211.63 18.8 213.95 18.94 215.13C18.99 215.59 19.32 218.45 18.25 218.91C17.14 219.38 15.2601 216.98 15.0801 216.75C13.7701 215.05 13.4299 213.23 13.3399 212.22C12.8099 215.18 11.4202 216.81 10.7002 217.53C10.0002 218.23 8.76022 219.45 7.70022 219.11C6.53022 218.73 6.17015 216.64 6.37015 215.24C6.64015 213.33 8.02995 212.19 8.41995 211.88C7.85995 212.42 6.34013 213.76 4.10013 213.9C2.94013 213.98 0.759931 213.79 0.399931 212.73C-6.87316e-05 211.56 2.04005 209.93 3.02005 209.15C4.50005 207.97 5.96999 207.37 6.95999 207.05C5.93999 206.79 3.83003 206.07 2.50003 204.09C2.16003 203.59 1.13997 202.06 1.68997 201.15C2.33997 200.08 4.81013 200.5 6.10013 200.95C8.02013 201.61 9.1702 202.96 9.6802 203.67C9.1002 202.15 8.42991 199.61 9.37991 197.06C9.59991 196.46 10.2899 194.61 11.3799 194.57C12.3699 194.53 13.1302 196 13.3902 196.49C14.5502 198.72 14.0202 201.15 13.6602 202.33L13.6499 202.32Z" stroke="white" stroke-width="0.5" stroke-miterlimit="10"/>
<path d="M132.58 283.12C132.25 278.15 135.3 274.31 138.73 273.9C141.29 273.59 144.16 275.16 144.96 277.32C146.16 280.59 142.85 285.94 135.73 289.21C137.35 288.57 143.899 286.18 148.889 289.45C149.179 289.64 153.1 292.26 152.5 294.68C152.08 296.38 149.62 297.09 148.58 297.39C143.61 298.82 138.83 296.29 136.84 295.06C140.77 299.47 141.64 303.54 141.88 305.62C141.97 306.43 142.55 311.46 140.67 312.25C138.73 313.07 135.409 308.86 135.099 308.46C132.789 305.48 132.21 302.27 132.04 300.51C131.11 305.71 128.67 308.58 127.41 309.83C126.17 311.06 124.009 313.21 122.139 312.6C120.089 311.93 119.45 308.27 119.8 305.79C120.28 302.43 122.71 300.43 123.41 299.89C122.43 300.84 119.75 303.18 115.82 303.44C113.79 303.57 109.95 303.25 109.32 301.38C108.62 299.32 112.2 296.47 113.92 295.1C116.52 293.03 119.09 291.97 120.83 291.41C119.05 290.95 115.33 289.69 113 286.21C112.41 285.33 110.61 282.64 111.58 281.05C112.72 279.17 117.05 279.91 119.32 280.69C122.7 281.85 124.71 284.23 125.61 285.46C124.58 282.8 123.41 278.33 125.08 273.85C125.47 272.79 126.68 269.55 128.59 269.47C130.33 269.4 131.67 271.99 132.12 272.85C134.16 276.77 133.23 281.04 132.59 283.12H132.58Z" stroke="white" stroke-width="0.5" stroke-miterlimit="10"/>
<path d="M125.07 192.01C127.02 190.14 125.49 187.67 127.37 185.58C128.83 183.96 131.13 183.93 131.51 183.93C133.67 183.91 135.18 185.06 135.63 185.44C136.96 186.56 136.55 187.19 137.87 188.34C139.45 189.71 140.36 189.1 141.78 190.43C142.1 190.73 143.38 192.02 143.49 194C143.5 194.27 143.57 195.89 142.51 197.29C141.51 198.61 140.64 198.24 139.93 199.35C138.97 200.84 140.181 202.05 139.401 203.67C138.701 205.11 136.85 206 135.29 206.05C132.93 206.12 132.53 204.21 129.09 203.42C127.04 202.95 126.83 203.55 125.26 202.95C124.68 202.73 121.58 201.46 120.99 198.36C120.68 196.75 121.111 194.9 122.231 193.68C123.301 192.52 124.01 193.03 125.07 192.01Z" stroke="white" stroke-width="0.5" stroke-miterlimit="10"/>
<path d="M78.7496 11.7203C81.3096 9.27032 79.2993 6.03033 81.7593 3.29033C83.6793 1.17033 86.69 1.13032 87.19 1.13032C90.02 1.10032 91.9892 2.6103 92.5992 3.1103C94.3392 4.5703 93.8096 5.40032 95.5396 6.91032C97.6096 8.71032 98.8097 7.90031 100.66 9.65031C101.08 10.0503 102.759 11.7303 102.889 14.3303C102.909 14.6903 102.989 16.8003 101.599 18.6403C100.289 20.3703 99.1493 19.8903 98.2193 21.3503C96.9593 23.3103 98.5491 24.8903 97.5191 27.0103C96.6091 28.9003 94.1792 30.0703 92.1392 30.1303C89.0492 30.2203 88.5193 27.7103 84.0093 26.6803C81.3193 26.0603 81.0498 26.8403 78.9898 26.0603C78.2298 25.7703 74.17 24.1103 73.4 20.0503C73 17.9403 73.5498 15.5103 75.0298 13.9203C76.4398 12.4003 77.3593 13.0703 78.7593 11.7303L78.7496 11.7203Z" stroke="white" stroke-width="0.5" stroke-miterlimit="10"/>
<path d="M116.92 112.511C117.63 111.831 117.069 110.921 117.759 110.161C118.299 109.571 119.139 109.561 119.269 109.561C120.059 109.561 120.61 109.971 120.78 110.111C121.27 110.521 121.119 110.751 121.599 111.171C122.179 111.671 122.51 111.451 123.03 111.931C123.15 112.041 123.62 112.511 123.65 113.241C123.65 113.341 123.68 113.931 123.29 114.441C122.92 114.921 122.609 114.791 122.349 115.201C121.999 115.751 122.44 116.191 122.16 116.781C121.91 117.311 121.23 117.631 120.66 117.651C119.8 117.671 119.649 116.981 118.389 116.691C117.639 116.521 117.56 116.741 116.99 116.521C116.78 116.441 115.639 115.971 115.429 114.841C115.319 114.251 115.469 113.571 115.889 113.131C116.279 112.711 116.539 112.891 116.929 112.521L116.92 112.511Z" stroke="white" stroke-width="0.5" stroke-miterlimit="10"/>
<path d="M124.78 250.18C124.47 249.73 124.08 249.18 124.03 248.47C123.95 247.57 124.49 247.48 124.67 246.3C124.83 245.31 124.481 245.17 124.651 243.85C124.801 242.71 125.11 242.42 125.28 242.3C125.31 242.28 125.85 241.9 126.39 242.13C126.85 242.32 127.05 242.84 127.06 243.22C127.07 243.66 126.81 243.79 126.91 244.04C127.08 244.47 127.91 244.21 128.27 244.7C128.62 245.18 128.08 245.78 128.43 246.21C128.77 246.63 129.431 246.28 129.731 246.7C130.031 247.11 129.5 247.6 129.78 248.13C130.09 248.72 130.94 248.45 131.26 249.04C131.53 249.55 130.98 249.93 131.22 250.58C131.47 251.25 132.201 251.18 132.361 251.81C132.471 252.24 132.25 252.79 131.89 252.97C131.58 253.13 131.25 252.98 130.45 252.64C129.12 252.07 128.46 251.78 128.29 251.74C127.05 251.41 126.71 251.82 125.91 251.36C125.38 251.06 125.08 250.62 124.79 250.2L124.78 250.18Z" stroke="white" stroke-width="0.5" stroke-miterlimit="10"/>
<path d="M40.6903 178.44C39.8803 179.23 38.8896 180.2 37.4696 180.57C35.6696 181.03 35.2994 179.99 32.8494 180.01C30.7794 180.03 30.6195 180.79 27.8895 180.89C25.5295 180.98 24.8299 180.45 24.5199 180.15C24.4599 180.09 23.5096 179.13 23.7796 177.96C24.0096 176.97 24.9796 176.36 25.7596 176.21C26.6596 176.03 26.9996 176.52 27.4696 176.24C28.2896 175.75 27.4697 174.14 28.3397 173.25C29.1897 172.38 30.5902 173.27 31.3602 172.41C32.0902 171.58 31.1702 170.36 31.9002 169.59C32.6202 168.83 33.8199 169.74 34.7899 169C35.8799 168.17 35.05 166.52 36.12 165.69C37.06 164.96 38.0296 165.95 39.2596 165.23C40.5296 164.48 40.1502 163.03 41.3602 162.5C42.2002 162.13 43.3795 162.39 43.8895 163.06C44.3195 163.63 44.1298 164.35 43.7098 166.1C43.0098 168.99 42.66 170.44 42.62 170.81C42.38 173.44 43.3398 173.99 42.6698 175.78C42.2398 176.96 41.4598 177.72 40.7098 178.45L40.6903 178.44Z" stroke="white" stroke-width="0.5" stroke-miterlimit="10"/>
<path d="M112.66 41.6203C112.35 42.3303 111.93 43.4103 111.59 44.7703C111 47.1303 110.02 51.1203 111.97 54.6603C112.43 55.5003 113.44 57.0003 115.54 58.2803C114.86 56.4403 114.19 54.1503 113.79 51.4803C113.51 49.6203 113.41 47.9203 113.41 46.4303C114 47.5103 114.68 48.6403 115.46 49.8203C116.06 50.7103 116.65 51.5403 117.24 52.3103C117.21 52.5603 116.94 55.7603 119.46 57.8103C121.5 59.4703 123.89 59.1603 124.29 59.1003C123.39 58.5303 122.27 57.7003 121.15 56.5203C120.13 55.4403 119.399 54.3903 118.889 53.5203C120.499 54.3203 122.28 55.1103 124.22 55.8503C125.41 56.3003 126.57 56.7003 127.68 57.0503C127.48 57.2203 126.86 57.8003 126.7 58.7603C126.52 59.8303 127.02 60.8803 127.73 61.4403C128.42 61.9703 128.75 61.5903 130.03 62.0903C131.52 62.6703 131.68 63.4203 132.66 63.4103C133.32 63.4103 133.98 63.0503 134.36 62.5803C134.92 61.8803 134.51 61.4103 134.94 60.2803C135.46 58.8903 136.35 58.9003 136.49 57.7903C136.58 57.1103 136.35 56.2603 135.79 55.7803C135.25 55.3103 134.849 55.5703 134.019 55.0303C133.309 54.5703 133.43 54.2603 132.83 53.8703C132.12 53.4103 130.97 53.1803 129.95 53.7003C128.8 54.2803 128.5 55.4703 128.45 55.6603C125.55 55.0403 123.38 54.0203 121.98 53.2303C119.92 52.0703 116.49 50.1403 114.93 46.2903C114.65 45.5903 114.49 44.9803 114.4 44.5703C114.32 42.8303 114.24 41.1003 114.16 39.3603C113.93 39.3403 113.68 39.3203 113.4 39.3203C113.12 39.3203 112.869 39.3303 112.639 39.3603C112.649 40.1203 112.67 40.8703 112.68 41.6303L112.66 41.6203Z" stroke="white" stroke-width="0.5" stroke-miterlimit="10"/>
<path d="M129.95 165.72C128.69 165.24 126.78 164.6 124.38 164.13C120.22 163.31 113.21 161.92 107.2 165.61C105.77 166.49 103.26 168.36 101.2 172.12C104.34 170.79 108.269 169.43 112.889 168.51C116.099 167.87 119.049 167.55 121.639 167.42C119.819 168.53 117.9 169.81 115.92 171.26C114.41 172.37 113.02 173.48 111.74 174.56C111.31 174.54 105.72 174.33 102.36 178.88C99.64 182.57 100.379 186.7 100.519 187.38C101.429 185.77 102.78 183.75 104.74 181.7C106.53 179.83 108.309 178.48 109.769 177.53C108.519 180.4 107.29 183.56 106.17 186.99C105.48 189.1 104.88 191.14 104.37 193.11C104.05 192.77 102.99 191.74 101.32 191.55C99.44 191.33 97.6497 192.28 96.7497 193.57C95.8797 194.82 96.5692 195.35 95.8092 197.62C94.9192 200.26 93.6399 200.6 93.7399 202.31C93.8099 203.46 94.4697 204.57 95.3297 205.2C96.5897 206.12 97.3698 205.36 99.3698 206.01C101.83 206.8 101.89 208.35 103.83 208.5C105.02 208.59 106.479 208.12 107.269 207.12C108.039 206.15 107.559 205.46 108.429 203.97C109.169 202.7 109.71 202.87 110.34 201.81C111.09 200.54 111.38 198.51 110.4 196.78C109.29 194.83 107.2 194.4 106.87 194.34C107.7 189.25 109.299 185.38 110.549 182.89C112.399 179.2 115.47 173.08 122.03 170.05C123.23 169.5 124.269 169.17 124.969 168.98C127.979 168.7 130.999 168.41 134.009 168.13C134.029 167.73 134.039 167.29 134.009 166.81C133.989 166.33 133.939 165.88 133.889 165.48C132.579 165.56 131.26 165.65 129.95 165.73V165.72Z" stroke="white" stroke-width="0.5" stroke-miterlimit="10"/>
</svg>
