<svg width="114" height="135" viewBox="0 0 114 135" fill="none" xmlns="http://www.w3.org/2000/svg">
<path d="M57.9504 91.06C57.4204 93 58.3099 94.76 59.6399 95.2C60.6299 95.53 61.8901 95.14 62.3801 94.35C63.1201 93.15 62.2406 90.77 59.6906 88.9C60.2806 89.28 62.6704 90.76 64.9104 89.87C65.0404 89.82 66.8 89.1 66.76 88.09C66.73 87.38 65.8199 86.9 65.4299 86.7C63.5799 85.73 61.4898 86.35 60.5998 86.67C62.5098 85.25 63.1804 83.7 63.4504 82.9C63.5504 82.59 64.19 80.65 63.51 80.18C62.81 79.7 61.1602 81.1 61.0002 81.23C59.8502 82.22 59.3606 83.44 59.1506 84.13C59.2006 82 58.4705 80.67 58.0705 80.07C57.6805 79.48 57.0002 78.46 56.2102 78.55C55.3402 78.65 54.8005 80.05 54.7405 81.05C54.6605 82.42 55.4606 83.41 55.6906 83.67C55.3806 83.22 54.5099 82.07 52.9699 81.65C52.1799 81.43 50.6307 81.25 50.2307 81.94C49.7907 82.7 50.9703 84.11 51.5403 84.8C52.4003 85.83 53.3307 86.46 53.9807 86.82C53.2407 86.86 51.6702 87.06 50.4602 88.25C50.1602 88.55 49.2307 89.47 49.4807 90.18C49.7807 91.01 51.55 91.07 52.51 90.95C53.94 90.76 54.9301 89.99 55.3801 89.57C54.7601 90.54 53.9307 92.21 54.2307 94.12C54.3007 94.57 54.51 95.95 55.26 96.13C55.94 96.3 56.6799 95.38 56.9299 95.08C58.0499 93.69 58.0304 91.93 57.9504 91.06Z" stroke="white" stroke-width="0.5" stroke-linejoin="round"/>
<path d="M91.3498 27.3099C93.1498 29.8999 90.8106 32.3799 92.4806 35.1999C93.7706 37.3999 96.4002 37.9599 96.8302 38.0599C99.2902 38.5899 101.291 37.6299 101.901 37.2899C103.681 36.3199 103.36 35.4999 105.14 34.4999C107.27 33.2999 108.17 34.2198 110.1 33.0198C110.54 32.7498 112.3 31.5799 112.89 29.3399C112.97 29.0299 113.42 27.1999 112.53 25.3499C111.69 23.5999 110.62 23.8199 110.06 22.3799C109.31 20.4499 110.98 19.3499 110.46 17.3099C110 15.4999 108.09 14.0399 106.32 13.6299C103.64 12.9999 102.731 15.0899 98.6105 15.1899C96.1605 15.2499 96.0503 14.5198 94.1203 14.8298C93.4103 14.9498 89.5701 15.6798 88.1701 19.0798C87.4401 20.8498 87.4902 23.0699 88.5002 24.7199C89.4602 26.2899 90.3805 25.8798 91.3605 27.2998L91.3498 27.3099Z" stroke="white" stroke-width="0.5" stroke-miterlimit="10"/>
<path d="M63.4299 116.34C64.0899 117.29 63.2301 118.19 63.8401 119.23C64.3101 120.03 65.2699 120.24 65.4299 120.27C66.3299 120.46 67.0603 120.11 67.2903 119.99C67.9403 119.64 67.8307 119.34 68.4807 118.97C69.2607 118.53 69.5903 118.87 70.2903 118.43C70.4503 118.33 71.0898 117.9 71.3098 117.08C71.3398 116.97 71.4999 116.3 71.1799 115.62C70.8699 114.98 70.4805 115.06 70.2805 114.54C70.0105 113.83 70.6199 113.43 70.4299 112.69C70.2599 112.03 69.5604 111.5 68.9104 111.34C67.9304 111.11 67.6001 111.88 66.0901 111.91C65.1901 111.93 65.1504 111.66 64.4504 111.78C64.1904 111.82 62.7797 112.09 62.2697 113.33C61.9997 113.98 62.0199 114.79 62.3899 115.39C62.7399 115.97 63.0806 115.81 63.4406 116.33L63.4299 116.34Z" stroke="white" stroke-width="0.5" stroke-miterlimit="10"/>
<path d="M38.2398 115.87C37.4998 114.77 36.5991 113.44 35.0591 112.69C33.1091 111.74 32.4392 112.85 29.6392 112.25C27.2692 111.74 27.2695 110.84 24.1695 110.08C21.4895 109.43 20.5592 109.87 20.1392 110.14C20.0592 110.19 18.7498 111.07 18.7798 112.48C18.8098 113.67 19.7794 114.59 20.6294 114.94C21.6094 115.35 22.1194 114.88 22.5894 115.31C23.4094 116.06 22.0994 117.71 22.8794 118.93C23.6494 120.12 25.4594 119.43 26.1294 120.6C26.7694 121.72 25.4296 122.9 26.0796 123.95C26.7296 124.98 28.3098 124.23 29.2398 125.3C30.2898 126.5 28.9498 128.19 29.9898 129.4C30.8898 130.46 32.2393 129.55 33.4693 130.66C34.7393 131.81 33.9698 133.38 35.2398 134.28C36.1198 134.9 37.5293 134.88 38.2593 134.23C38.8893 133.67 38.8391 132.81 38.7691 130.71C38.6391 127.24 38.5794 125.5 38.6294 125.07C38.9694 122 40.1891 121.61 39.8491 119.39C39.6291 117.94 38.92 116.89 38.23 115.87H38.2398Z" stroke="white" stroke-width="0.5" stroke-miterlimit="10"/>
<path d="M90.7901 58.5397C89.2401 58.7897 86.8999 59.0797 84.0499 59.0597C79.0999 59.0297 70.75 58.9697 64.75 53.3497C63.32 52.0097 60.8802 49.2797 59.4102 44.4997C62.6902 46.7597 66.8597 49.2297 71.9297 51.3597C75.4497 52.8397 78.7505 53.8997 81.6905 54.6497C79.8705 52.9497 77.9699 51.0397 76.0499 48.9197C74.5899 47.2997 73.2501 45.7097 72.0401 44.1697C71.5401 44.0997 65.1001 43.0297 62.3301 37.0397C60.0801 32.1797 61.89 27.6397 62.21 26.8897C62.88 28.9397 63.95 31.5697 65.71 34.3797C67.32 36.9297 69.0405 38.8997 70.4805 40.3297C69.7205 36.7497 69.0504 32.8597 68.5704 28.6697C68.2704 26.0897 68.0705 23.6197 67.9405 21.2497C67.5005 21.5597 66.0401 22.4897 64.0801 22.3197C61.8701 22.1297 60.0501 20.6297 59.3301 18.9497C58.6201 17.3097 59.5402 16.8697 59.2002 14.0897C58.8102 10.8597 57.4097 10.1797 57.9297 8.23971C58.2797 6.93971 59.2897 5.82972 60.4297 5.30972C62.0797 4.54972 62.8103 5.59971 65.2403 5.32971C68.2303 4.99971 68.6697 3.24972 70.9297 3.52972C72.3097 3.69972 73.8701 4.57973 74.5401 5.90973C75.1901 7.19973 74.4799 7.87972 75.1299 9.77972C75.6799 11.4097 76.3396 11.3297 76.8096 12.6997C77.3696 14.3197 77.2302 16.7197 75.7002 18.4597C73.9702 20.4297 71.4799 20.4297 71.0899 20.4297C70.8499 26.4497 71.7802 31.2497 72.6202 34.3897C73.8702 39.0397 75.95 46.7597 82.75 51.7597C83.99 52.6697 85.1104 53.2897 85.8604 53.6697C89.2404 54.6997 92.62 55.7297 96 56.7597C95.93 57.2197 95.8402 57.7297 95.7002 58.2697C95.5602 58.8197 95.41 59.3097 95.25 59.7597C93.77 59.3597 92.2799 58.9497 90.7999 58.5497L90.7901 58.5397Z" stroke="white" stroke-width="0.5" stroke-miterlimit="10"/>
<path d="M76.4102 128.17C76.8851 128.17 77.2695 127.785 77.2695 127.31C77.2695 126.835 76.8851 126.45 76.4102 126.45C75.9352 126.45 75.5498 126.835 75.5498 127.31C75.5498 127.785 75.9352 128.17 76.4102 128.17Z" stroke="white" stroke-width="0.5" stroke-miterlimit="10"/>
<path d="M31.3398 102.78C31.5166 102.78 31.6602 102.636 31.6602 102.46C31.6602 102.283 31.5166 102.14 31.3398 102.14C31.1631 102.14 31.0195 102.283 31.0195 102.46C31.0195 102.636 31.1631 102.78 31.3398 102.78Z" fill="white" stroke="white" stroke-width="0.5" stroke-miterlimit="10"/>
<path d="M56.1699 64.2299C56.3467 64.2299 56.4902 64.0866 56.4902 63.9099C56.4902 63.7331 56.3467 63.5898 56.1699 63.5898C55.9932 63.5898 55.8496 63.7331 55.8496 63.9099C55.8496 64.0866 55.9932 64.2299 56.1699 64.2299Z" fill="white" stroke="white" stroke-width="0.5" stroke-miterlimit="10"/>
<path d="M49.6504 119.91C49.8271 119.91 49.9697 119.767 49.9697 119.59C49.9697 119.413 49.8271 119.27 49.6504 119.27C49.4737 119.27 49.3301 119.413 49.3301 119.59C49.3301 119.767 49.4737 119.91 49.6504 119.91Z" fill="white" stroke="white" stroke-width="0.5" stroke-miterlimit="10"/>
<path d="M3.40039 103.77C4.64303 103.77 5.65039 102.763 5.65039 101.52C5.65039 100.277 4.64303 99.27 3.40039 99.27C2.15775 99.27 1.15039 100.277 1.15039 101.52C1.15039 102.763 2.15775 103.77 3.40039 103.77Z" stroke="white" stroke-width="0.5" stroke-miterlimit="10"/>
<path d="M93.5195 1.76988C93.6963 1.76988 93.8398 1.62661 93.8398 1.44987C93.8398 1.27314 93.6963 1.12988 93.5195 1.12988C93.3428 1.12988 93.2002 1.27314 93.2002 1.44987C93.2002 1.62661 93.3428 1.76988 93.5195 1.76988Z" fill="white" stroke="white" stroke-width="0.5" stroke-miterlimit="10"/>
<path d="M76.2197 100.75C76.4572 100.75 76.6504 100.557 76.6504 100.32C76.6504 100.082 76.4572 99.8896 76.2197 99.8896C75.9822 99.8896 75.79 100.082 75.79 100.32C75.79 100.557 75.9822 100.75 76.2197 100.75Z" stroke="white" stroke-width="0.5" stroke-miterlimit="10"/>
<path d="M76.9404 30.2299C77.1172 30.2299 77.2598 30.0866 77.2598 29.9099C77.2598 29.7331 77.1172 29.5898 76.9404 29.5898C76.7637 29.5898 76.6201 29.7331 76.6201 29.9099C76.6201 30.0866 76.7637 30.2299 76.9404 30.2299Z" fill="white" stroke="white" stroke-width="0.5" stroke-miterlimit="10"/>
<path d="M87.5898 74.9699C87.8273 74.9699 88.0195 74.7774 88.0195 74.5399C88.0195 74.3024 87.8273 74.1099 87.5898 74.1099C87.3524 74.1099 87.1602 74.3024 87.1602 74.5399C87.1602 74.7774 87.3524 74.9699 87.5898 74.9699Z" stroke="white" stroke-width="0.5" stroke-miterlimit="10"/>
</svg>
