<svg width="146" height="11" viewBox="0 0 146 11" fill="none" xmlns="http://www.w3.org/2000/svg">
<path d="M137.15 5.89008C136.94 5.89008 136.76 5.89004 136.55 5.92004C136.43 5.92004 136.37 5.92008 136.28 5.89008H136.19C135.98 5.89008 135.8 5.92004 135.59 5.92004C135.53 5.95004 135.5 5.95005 135.41 5.99005H134.72C134.66 5.99005 134.6 5.99008 134.57 6.02008H134.63C134.72 6.05008 134.78 6.05005 134.87 6.05005H135.14C135.28 6.07005 135.4 6.08008 135.5 6.08008H135.98C136.07 6.08008 136.13 6.11005 136.25 6.11005H136.55C136.64 6.11005 136.7 6.14008 136.79 6.14008C136.88 6.14008 136.91 6.17004 136.85 6.17004C136.82 6.17004 136.76 6.20007 136.67 6.20007H136.37C136.29 6.20007 136.17 6.19004 136.01 6.17004H135.74C135.68 6.17004 135.62 6.14008 135.59 6.14008H135.2C135.14 6.14008 135.08 6.17004 135.11 6.17004H135.38C135.44 6.17004 135.5 6.17007 135.56 6.20007C135.65 6.23007 135.74 6.20007 135.83 6.20007C135.92 6.20007 135.98 6.23004 136.07 6.23004H136.46C136.55 6.26004 136.64 6.26007 136.7 6.26007C136.82 6.29007 136.97 6.29004 137.15 6.29004H137.42C137.51 6.32004 137.6 6.32004 137.69 6.29004H137.99C138.13 6.31004 138.28 6.32007 138.44 6.32007H138.62C138.68 6.32007 138.74 6.35004 138.77 6.35004H139.07C139.19 6.35004 139.28 6.35007 139.31 6.38007C139.31 6.38007 139.33 6.39003 139.37 6.41003H139.55C139.61 6.41003 139.67 6.41007 139.7 6.38007C139.7 6.38007 139.73 6.38004 139.76 6.35004H139.91C139.97 6.3967 140.04 6.42004 140.12 6.42004C140.24 6.45004 140.36 6.45005 140.45 6.49005C140.54 6.52005 140.63 6.49005 140.72 6.49005C140.78 6.49005 140.84 6.49008 140.84 6.52008C140.84 6.52008 140.81 6.55005 140.78 6.55005C140.57 6.55005 140.39 6.58008 140.18 6.58008H140.09C140.03 6.58008 139.97 6.55005 139.91 6.55005H139.49C139.43 6.55005 139.37 6.55008 139.34 6.52008H139.25C139.1 6.52008 139.01 6.52005 138.89 6.49005H138.8C138.56 6.49005 138.35 6.52008 138.11 6.52008C138.02 6.52008 137.93 6.52005 137.93 6.49005C137.93 6.49005 137.9 6.46004 137.9 6.42004C137.9 6.38004 137.78 6.39008 137.72 6.39008H137.06C136.97 6.36008 136.88 6.36008 136.79 6.39008C136.73 6.39008 136.7 6.42008 136.7 6.46008C136.7 6.50008 136.67 6.49009 136.55 6.53009C136.4 6.53009 136.22 6.53006 136.04 6.56006H135.95C135.89 6.56006 135.83 6.53009 135.77 6.53009H135.35C135.29 6.53009 135.23 6.50006 135.2 6.50006H135.11C134.99 6.50006 134.84 6.50009 134.72 6.53009C134.62 6.53009 134.5 6.52006 134.36 6.50006H133.79C133.73 6.50006 133.67 6.47003 133.61 6.47003C133.43 6.47003 133.28 6.50006 133.1 6.50006H133.01C132.89 6.47006 132.8 6.47003 132.65 6.47003C132.53 6.47003 132.38 6.47006 132.26 6.50006C132.2 6.50006 132.17 6.53009 132.17 6.53009H132.44C132.56 6.53009 132.62 6.56006 132.8 6.56006H133.19C133.28 6.56006 133.34 6.59009 133.46 6.59009H133.76C133.86 6.59009 133.98 6.60006 134.12 6.62006H134.6C134.69 6.62006 134.75 6.65009 134.84 6.65009H135.14C135.2 6.65009 135.26 6.65005 135.32 6.68005C135.38 6.68005 135.44 6.71008 135.5 6.71008H135.89C135.95 6.71008 136.01 6.74005 136.04 6.74005H136.52C136.61 6.74005 136.67 6.77008 136.79 6.77008H137.18C137.27 6.80008 137.42 6.80005 137.54 6.80005C137.69 6.80005 137.78 6.80008 137.9 6.83008C137.98 6.85008 138.05 6.87342 138.11 6.90009C138.11 6.90009 138.2 6.93005 138.26 6.93005C138.35 6.93005 138.44 6.93008 138.53 6.96008C138.62 6.99008 138.71 6.96008 138.8 6.96008H139.16C139.22 6.96008 139.28 6.99008 139.34 6.96008C139.55 6.96008 139.73 6.93005 139.94 6.93005C140.06 6.93005 140.12 6.93008 140.21 6.96008C140.33 6.96008 140.45 6.99009 140.45 7.03009C140.45 7.03009 140.48 7.03006 140.51 7.06006C140.57 7.06006 140.63 7.09009 140.66 7.09009C140.75 7.12009 140.81 7.12006 140.93 7.12006H141.5C141.59 7.15006 141.71 7.15006 141.83 7.19006H142.1C142.16 7.19006 142.22 7.22003 142.25 7.22003H142.73C142.79 7.22003 142.82 7.25006 142.88 7.25006C142.97 7.25006 143.06 7.22006 143.15 7.25006C143.21 7.25006 143.24 7.28009 143.3 7.28009H143.54C143.54 7.28009 143.51 7.31006 143.48 7.31006C143.27 7.31006 143.09 7.31009 142.88 7.34009C142.8 7.34009 142.68 7.33006 142.52 7.31006H142.04C141.92 7.28006 141.74 7.28009 141.59 7.28009H141.41C141.29 7.25009 141.17 7.25008 141.08 7.21008C140.99 7.18008 140.96 7.18008 140.93 7.21008C140.93 7.21008 140.9 7.21005 140.9 7.24005C140.9 7.27005 140.93 7.31006 140.96 7.31006C140.96 7.31006 140.96 7.34009 140.93 7.34009C140.9 7.37009 140.87 7.37009 140.78 7.34009C140.72 7.31009 140.63 7.31006 140.51 7.31006H140.21C140.06 7.31006 139.97 7.31009 139.85 7.28009H139.76C139.46 7.28009 139.16 7.31006 138.85 7.31006C138.79 7.31006 138.73 7.31009 138.67 7.28009C138.61 7.28009 138.55 7.25006 138.49 7.25006C138.22 7.25006 137.95 7.28009 137.7 7.28009C137.58 7.28009 137.52 7.28006 137.43 7.25006C137.37 7.25006 137.31 7.22003 137.25 7.22003C137.16 7.22003 137.13 7.22006 137.07 7.25006C137.04 7.25006 137.07 7.28009 137.13 7.28009C137.22 7.28009 137.31 7.31006 137.37 7.31006H137.67C137.76 7.31006 137.82 7.34009 137.94 7.34009H138.24C138.34 7.34009 138.46 7.35006 138.6 7.37006H138.78C138.84 7.37006 138.9 7.37009 138.96 7.40009C138.99 7.40009 138.96 7.40005 138.93 7.43005C138.93 7.46005 138.96 7.43005 138.99 7.43005C139.02 7.40005 138.96 7.40009 138.9 7.40009C138.84 7.40009 138.81 7.43005 138.84 7.43005H138.96C139.14 7.40005 139.26 7.40009 139.41 7.40009H139.59C139.65 7.43009 139.74 7.43005 139.86 7.43005C139.98 7.43005 140.13 7.43009 140.25 7.40009C140.37 7.40009 140.43 7.43005 140.52 7.43005H140.79C140.88 7.43005 140.94 7.46008 141.03 7.46008C141.18 7.46008 141.27 7.46005 141.39 7.49005H141.96C142.05 7.52005 142.14 7.52005 142.23 7.49005H142.59C142.68 7.52005 142.77 7.49005 142.86 7.49005C142.95 7.49005 143.01 7.52008 143.1 7.52008H143.7C143.76 7.52008 143.82 7.55005 143.85 7.55005C143.91 7.55005 143.97 7.58008 144 7.58008C144.09 7.58008 144.15 7.61005 144.27 7.61005H144.57C144.65 7.61005 144.77 7.62008 144.93 7.64008C145.05 7.67008 145.2 7.64008 145.32 7.64008C145.38 7.64008 145.44 7.64004 145.5 7.67004C145.53 7.67004 145.5 7.67007 145.53 7.70007C145.2 7.70007 144.87 7.73004 144.53 7.73004C144.41 7.73004 144.35 7.73007 144.26 7.70007C144.14 7.67007 143.99 7.70004 143.9 7.67004C143.84 7.67004 143.75 7.64008 143.63 7.64008H143.42C143.24 7.64008 143.09 7.64005 142.97 7.61005C142.91 7.61005 142.85 7.58008 142.82 7.58008C142.76 7.58008 142.7 7.55005 142.64 7.55005C142.34 7.55005 142.04 7.58008 141.73 7.58008H141.67C141.61 7.58008 141.64 7.61005 141.73 7.61005H141.82C141.88 7.61005 141.91 7.64008 141.97 7.64008H142.39C142.45 7.64008 142.51 7.67004 142.57 7.67004H143.05C143.14 7.67004 143.2 7.70007 143.29 7.70007H143.56C143.56 7.70007 143.53 7.70004 143.53 7.73004C143.44 7.76004 143.35 7.76007 143.26 7.76007H142.99C142.93 7.76007 142.87 7.73004 142.81 7.73004C142.63 7.73004 142.48 7.76007 142.3 7.76007H142.21C142.07 7.74007 141.95 7.73004 141.85 7.73004H141.49C141.49 7.73004 141.43 7.70007 141.4 7.70007C141.16 7.70007 140.95 7.73004 140.71 7.73004H140.53C140.47 7.73004 140.44 7.70007 140.38 7.70007H139.99C139.93 7.70007 139.87 7.70004 139.84 7.67004H139.66C139.5 7.67004 139.35 7.66008 139.21 7.64008H139.12C138.94 7.64008 138.79 7.64004 138.61 7.67004C138.55 7.67004 138.49 7.67008 138.43 7.64008C138.4 7.64008 138.43 7.64005 138.4 7.61005H138.49C138.55 7.61005 138.58 7.58008 138.55 7.58008H138.49C138.49 7.58008 138.4 7.58005 138.4 7.61005C138.28 7.64005 138.13 7.64008 138.01 7.64008H137.83C137.77 7.61008 137.68 7.61005 137.56 7.61005C137.44 7.61005 137.29 7.61008 137.17 7.64008C137.02 7.64008 136.96 7.61005 136.81 7.61005C136.69 7.61005 136.54 7.61008 136.42 7.64008C136.34 7.64008 136.22 7.63005 136.06 7.61005H135.79C135.73 7.61005 135.67 7.58008 135.64 7.58008H135.55C135.37 7.58008 135.22 7.58005 135.07 7.61005C134.89 7.61005 134.74 7.61008 134.62 7.58008C134.47 7.58008 134.29 7.58005 134.14 7.61005C134.02 7.61005 133.96 7.61008 133.87 7.58008H133.3C133.15 7.58008 133.09 7.55005 132.97 7.55005C132.88 7.58005 132.85 7.62006 132.67 7.62006C132.55 7.62006 132.4 7.62009 132.28 7.65009H132.07C131.95 7.65009 131.92 7.68003 131.95 7.72003L131.98 7.75006C131.98 7.75006 131.95 7.82007 131.86 7.82007C131.62 7.82007 131.41 7.85004 131.17 7.85004C131.11 7.85004 131.05 7.85007 130.99 7.82007C130.93 7.82007 130.87 7.79004 130.81 7.79004C130.57 7.79004 130.36 7.82007 130.12 7.82007H130.03C129.97 7.82007 129.91 7.79004 129.88 7.79004H129.49C129.35 7.79004 129.23 7.78007 129.13 7.76007H128.74C128.54 7.78007 128.41 7.78007 128.35 7.76007C128.26 7.76007 128.2 7.73004 128.08 7.73004C127.96 7.73004 127.81 7.73007 127.69 7.76007H127.3C127.21 7.73007 127.15 7.73004 127.03 7.73004H126.82C126.7 7.73004 126.55 7.72007 126.37 7.70007H126.28C126.04 7.70007 125.83 7.73004 125.59 7.73004H125.5C125.28 7.71004 125.06 7.71004 124.84 7.73004C124.76 7.73004 124.67 7.72007 124.57 7.70007C124.51 7.70007 124.45 7.67007 124.39 7.70007C124.12 7.70007 123.85 7.73004 123.6 7.73004C123.48 7.73004 123.42 7.73007 123.33 7.70007H123.24C122.97 7.70007 122.7 7.73004 122.45 7.73004H122.36C122.3 7.73004 122.24 7.70007 122.18 7.70007H121.97C121.85 7.70007 121.73 7.69004 121.61 7.67004H121.52C121.25 7.67004 120.98 7.70007 120.73 7.70007C120.58 7.70007 120.49 7.70004 120.37 7.67004H120.28C119.98 7.67004 119.68 7.70007 119.37 7.70007C119.31 7.70007 119.25 7.70004 119.19 7.67004C119.1 7.64004 119.01 7.67004 118.92 7.67004H118.38C118.26 7.67004 118.11 7.67007 117.99 7.70007C117.87 7.70007 117.72 7.70004 117.6 7.73004C117.45 7.73004 117.36 7.70007 117.24 7.70007C117.09 7.70007 116.91 7.70004 116.76 7.73004C116.64 7.73004 116.58 7.73007 116.49 7.70007H116.4C116.1 7.70007 115.8 7.73004 115.49 7.73004H115.31C115.19 7.70004 115.16 7.70007 114.95 7.70007H114.68C114.62 7.67007 114.53 7.67004 114.41 7.67004C114.29 7.67004 114.14 7.67007 114.02 7.70007H113.63C113.51 7.70007 113.45 7.67004 113.39 7.67004H113.3C113.18 7.67004 113.03 7.67007 112.91 7.70007C112.76 7.70007 112.67 7.67004 112.55 7.67004H112.46C112.22 7.67004 112.01 7.70007 111.77 7.70007C111.68 7.67007 111.59 7.67004 111.53 7.67004H111.14C111.05 7.67004 110.93 7.67007 110.84 7.70007C110.72 7.70007 110.66 7.67004 110.57 7.67004H110.48C110.3 7.67004 110.15 7.67007 109.97 7.70007C109.82 7.70007 109.76 7.67004 109.61 7.67004C109.49 7.67004 109.34 7.67007 109.22 7.70007C109.07 7.70007 108.98 7.70004 108.86 7.67004H108.77C108.59 7.67004 108.44 7.67007 108.26 7.70007H108.17C107.95 7.68007 107.8 7.67004 107.72 7.67004H107.33C107.19 7.65004 107.07 7.64008 106.97 7.64008C106.85 7.64008 106.7 7.64004 106.58 7.67004C106.49 7.67004 106.4 7.64008 106.34 7.64008C106.19 7.64008 106.01 7.64004 105.83 7.67004H105.65C105.59 7.64004 105.5 7.64008 105.38 7.64008C105.26 7.64008 105.11 7.64004 104.99 7.67004C104.84 7.67004 104.78 7.64008 104.63 7.64008C104.51 7.64008 104.36 7.64004 104.24 7.67004C104.09 7.67004 104 7.67008 103.88 7.64008H103.79C103.43 7.64008 103.07 7.67004 102.7 7.67004C102.56 7.67004 102.34 7.66008 102.04 7.64008H101.95C101.83 7.64008 101.68 7.64004 101.56 7.67004C101.41 7.67004 101.32 7.67008 101.2 7.64008H100.81C100.69 7.64008 100.54 7.64004 100.42 7.67004C100.33 7.67004 100.24 7.64008 100.18 7.64008C100.03 7.64008 99.8502 7.64004 99.7002 7.67004C99.5802 7.67004 99.5202 7.67008 99.4302 7.64008H99.3398C99.0398 7.64008 98.7402 7.67004 98.4302 7.67004C98.3102 7.67004 98.2502 7.67008 98.1602 7.64008H98.0698C97.8598 7.64008 97.6802 7.67004 97.4702 7.67004C97.3902 7.67004 97.2699 7.66008 97.1099 7.64008H97.02C96.39 7.67008 95.7501 7.71008 95.1201 7.71008H94.9399C94.8799 7.71008 94.8198 7.68005 94.7598 7.68005C94.4898 7.68005 94.2202 7.71008 93.9702 7.71008C93.8502 7.71008 93.7902 7.71005 93.7002 7.68005C93.6402 7.68005 93.58 7.65005 93.52 7.68005C93.4 7.68005 93.2499 7.68008 93.1299 7.71008H92.7402C92.6202 7.71008 92.4701 7.71005 92.3501 7.74005C92.2001 7.74005 92.1102 7.71008 91.9902 7.71008C91.7802 7.71008 91.6001 7.71005 91.3901 7.74005C91.1201 7.74005 90.8501 7.77008 90.6001 7.77008H90.5098C90.4198 7.77008 90.3602 7.74005 90.2402 7.74005C89.6402 7.77005 89.03 7.81006 88.46 7.81006C88.34 7.81006 88.2799 7.81009 88.1899 7.78009H88.1001C87.7701 7.78009 87.4401 7.81006 87.1001 7.81006C87.0201 7.81006 86.9002 7.80009 86.7402 7.78009H86.6499C86.2299 7.81009 85.7701 7.81004 85.3501 7.85004C85.2901 7.85004 85.2299 7.85007 85.1699 7.82007C85.1099 7.82007 85.0502 7.79004 84.9902 7.79004C84.6002 7.82004 84.1698 7.82005 83.7798 7.86005H83.5098C83.4498 7.86005 83.3901 7.83008 83.3301 7.83008C82.7301 7.86008 82.12 7.90009 81.52 7.90009C81.4 7.90009 81.34 7.90006 81.25 7.87006C81.19 7.87006 81.1298 7.84006 81.0698 7.87006C80.9798 7.87006 80.9499 7.87009 80.9199 7.90009C80.8599 7.93009 80.83 7.93005 80.71 7.93005C80.59 7.93005 80.4398 7.93008 80.3198 7.96008C80.1998 7.96008 80.1398 7.96005 80.0498 7.93005H79.8701C79.8101 7.93005 79.7502 7.93008 79.7202 7.96008C79.6602 7.98008 79.5898 7.98008 79.5098 7.96008C79.4498 7.96008 79.3901 7.93005 79.3301 7.93005C79.0601 7.93005 78.79 7.96008 78.54 7.96008C78.44 7.96008 78.35 7.95005 78.27 7.93005C78.21 7.93005 78.1498 7.90005 78.0898 7.93005C77.3698 7.96005 76.6399 8.00009 75.8799 8.03009C75.7599 8.03009 75.6999 8.03006 75.6099 8.00006H75.4302C74.8902 8.03006 74.3701 8.03007 73.8301 8.07007C73.7101 8.07007 73.6501 8.07004 73.5601 8.04004H73.3799C72.8399 8.07004 72.3198 8.07005 71.7798 8.11005C71.6598 8.11005 71.5998 8.11008 71.5098 8.08008H71.4199C71.2399 8.08008 71.0902 8.08005 70.9102 8.11005C70.5202 8.14005 70.1202 8.14005 69.7002 8.18005C69.5502 8.18005 69.4898 8.15009 69.3398 8.15009C69.1598 8.15009 69.0101 8.15005 68.8301 8.18005C68.7101 8.18005 68.5599 8.18008 68.4399 8.21008C68.3599 8.21008 68.2102 8.20005 67.9902 8.18005H67.8999C67.4499 8.21005 66.9598 8.21006 66.5098 8.25006H66.2402C66.1802 8.25006 66.1201 8.22003 66.0601 8.22003C65.3701 8.25003 64.67 8.29007 63.98 8.32007H63.8901C63.8301 8.32007 63.7702 8.29004 63.7402 8.29004C63.7102 8.29004 63.6501 8.32007 63.6201 8.32007C63.5901 8.32007 63.5302 8.35004 63.4702 8.35004H63.29C63.23 8.32004 63.14 8.32007 63.02 8.32007C62.3 8.35007 61.5701 8.39004 60.8101 8.42004C60.6901 8.42004 60.63 8.39008 60.54 8.39008H60.4502C60.1502 8.39008 59.85 8.42004 59.54 8.42004C58.69 8.45004 57.8798 8.49008 57.0298 8.52008C56.8798 8.52008 56.7899 8.52005 56.6699 8.49005H56.5801C55.4001 8.56005 54.2501 8.59003 53.0801 8.66003C53.0201 8.66003 52.9599 8.66007 52.8999 8.63007C52.8399 8.63007 52.7802 8.60004 52.7202 8.60004C52.1802 8.63004 51.6601 8.63004 51.1201 8.67004C51.0401 8.67004 50.9501 8.66008 50.8501 8.64008H50.7598C50.6998 8.64008 50.6701 8.67004 50.6401 8.67004C50.6101 8.70004 50.5502 8.70007 50.4902 8.70007H50.3101C50.2501 8.70007 50.16 8.67004 50.04 8.67004C48.5 8.74004 46.9902 8.81007 45.4502 8.88007C45.3302 8.88007 45.2702 8.85004 45.1802 8.85004H45C42.49 8.95004 40.0198 9.09007 37.5098 9.20007C37.4098 9.20007 37.31 9.22341 37.21 9.27008H37.1499C36.3899 9.30008 35.6101 9.34006 34.8501 9.37006C34.5201 9.37006 34.1901 9.40009 33.8501 9.40009C33.7701 9.40009 33.64 9.42336 33.46 9.47003H33.3701C32.0401 9.54003 30.7099 9.57008 29.3799 9.64008C29.2899 9.64008 29.2001 9.64004 29.1401 9.67004C29.1101 9.67004 29.0502 9.70007 28.9902 9.70007C28.0502 9.73007 27.1202 9.77009 26.1802 9.84009C26.0602 9.84009 25.9999 9.87006 25.9399 9.87006C25.9099 9.87006 25.9099 9.90009 25.8799 9.90009H25.79C25 9.93009 24.1899 9.97006 23.3999 10.0001C23.2799 10.0001 23.2199 10.0301 23.1899 10.0301C23.1599 10.0301 23.1599 10.0301 23.1299 10.0601H23.04C22.38 10.0901 21.7098 10.13 21.0498 10.16C20.9298 10.16 20.8998 10.1901 20.8398 10.1901C20.8098 10.1901 20.8098 10.22 20.7798 10.22H20.6899C20.1499 10.25 19.6298 10.29 19.0898 10.29C18.9698 10.29 18.9399 10.32 18.8799 10.36H18.8198C18.4898 10.36 18.1598 10.3901 17.8198 10.3901C17.7398 10.3901 17.64 10.4134 17.52 10.4601H17.4302C16.9502 10.4901 16.4299 10.4901 15.9199 10.5301C15.8599 10.5301 15.8 10.5601 15.77 10.5601C15.74 10.5901 15.6801 10.5901 15.6201 10.5901C15.2301 10.6201 14.8302 10.62 14.4102 10.66C14.2902 10.66 14.2299 10.6901 14.1699 10.6901C14.1399 10.7201 14.08 10.72 14.02 10.72C13.63 10.75 13.2301 10.75 12.8101 10.79C12.6901 10.79 12.6301 10.8201 12.6001 10.8201C12.5701 10.8501 12.5102 10.85 12.4502 10.85C11.7302 10.88 10.9702 10.9201 10.2402 10.9501C10.1202 10.9501 10.0602 10.95 9.97021 10.92C9.85021 10.89 9.75977 10.89 9.75977 10.85C9.75977 10.85 9.7302 10.8501 9.7002 10.8201C9.5802 10.8001 9.51023 10.7767 9.49023 10.7501C9.49023 10.7501 9.46018 10.6801 9.43018 10.6801C9.40018 10.6501 9.34016 10.6101 9.16016 10.6501H8.9502C8.8602 10.6501 8.77002 10.6501 8.77002 10.6201C8.77002 10.5901 8.74023 10.59 8.74023 10.55C8.80023 10.55 8.88977 10.5267 9.00977 10.48C9.12977 10.4334 9.1102 10.41 8.9502 10.41C8.89019 10.41 8.8298 10.3801 8.7998 10.3801H8.70996C8.52996 10.3801 8.37998 10.38 8.22998 10.41C8.04998 10.41 7.86994 10.4001 7.68994 10.3801H7.62988C7.62988 10.3801 7.71979 10.35 7.77979 10.35H8.29004C8.35004 10.32 8.41021 10.3201 8.47021 10.2801C8.53022 10.2601 8.51994 10.2367 8.43994 10.2101C8.34994 10.2101 8.2602 10.1801 8.2002 10.1801H7.8999C7.7799 10.1801 7.71994 10.1801 7.68994 10.1501C7.65994 10.1201 7.68979 10.0801 7.77979 10.0801C7.86979 10.0801 7.96002 10.08 8.02002 10.05C8.08002 10.02 8.13977 10.0201 8.25977 10.0201H8.47021C8.56021 10.0201 8.58984 9.99007 8.58984 9.95007C8.58984 9.91007 8.56021 9.92004 8.47021 9.92004C8.23022 9.90004 8.05996 9.8767 7.95996 9.85004C7.95996 9.85004 7.93018 9.85007 7.93018 9.82007C7.93018 9.82007 7.96023 9.79004 7.99023 9.79004C8.23023 9.79004 8.44018 9.76007 8.68018 9.76007C8.77018 9.76007 8.80008 9.76004 8.83008 9.73004C8.86008 9.70004 8.86002 9.66003 8.77002 9.66003H8.68018C8.41018 9.66003 8.14014 9.69006 7.89014 9.69006H7.7998C7.7998 9.69006 7.80014 9.66003 7.89014 9.66003C7.98014 9.66003 8.06988 9.66007 8.12988 9.63007C8.21988 9.60007 8.31018 9.56009 8.43018 9.53009C8.46018 9.53009 8.45996 9.50006 8.45996 9.50006C8.39996 9.50006 8.34006 9.50003 8.31006 9.47003C8.22006 9.47003 8.22 9.44009 8.25 9.40009C8.28 9.37009 8.3399 9.37006 8.3999 9.37006H8.49023C8.55023 9.37006 8.5798 9.34009 8.5498 9.34009H8.45996C8.03996 9.34009 7.58016 9.37003 7.16016 9.41003C7.04016 9.41003 6.98014 9.41007 6.89014 9.38007C6.83014 9.38007 6.76996 9.35007 6.70996 9.38007C6.64996 9.38007 6.58979 9.38004 6.52979 9.35004C6.49978 9.35004 6.55996 9.32007 6.70996 9.32007H6.7998C6.9598 9.2734 7.08994 9.25006 7.18994 9.25006C7.28994 9.25006 7.37018 9.24003 7.43018 9.22003C7.43018 9.22003 7.5198 9.19006 7.5498 9.19006L7.58008 9.16003C7.58008 9.16003 7.4899 9.13003 7.3999 9.16003C7.2499 9.16003 7.06998 9.16004 6.97998 9.23004C6.94998 9.23004 6.89008 9.26007 6.83008 9.26007C6.11008 9.29007 5.38012 9.33005 4.62012 9.36005C4.50012 9.36005 4.44016 9.39008 4.41016 9.39008C4.38016 9.39008 4.31977 9.42004 4.25977 9.42004H4.08008C4.08008 9.42004 4.08014 9.39008 4.14014 9.39008C4.23014 9.36008 4.19992 9.36007 4.16992 9.32007C4.13992 9.28007 4.08002 9.29004 4.02002 9.29004H3.75C3.69 9.29004 3.6301 9.26007 3.6001 9.26007C3.5101 9.23007 3.39023 9.23004 3.24023 9.23004C3.15023 9.23004 3.06 9.20007 3 9.20007C2.88 9.17007 2.84994 9.17007 2.93994 9.13007C3.05994 9.10007 2.96979 9.06009 3.02979 9.03009C3.08979 9.00009 3.18002 8.96005 3.27002 8.93005C3.27002 8.93005 3.29008 8.92009 3.33008 8.90009C3.27008 8.90009 3.24018 8.87006 3.18018 8.87006C3.12018 8.87006 3.05984 8.84005 3.08984 8.80005H3.18018C3.24018 8.80005 3.27023 8.77008 3.24023 8.77008H3.18018C3.18018 8.77008 3.08984 8.77005 3.08984 8.80005C2.87984 8.83005 2.6399 8.83008 2.3999 8.83008H2.31006C2.25006 8.81008 2.1302 8.80005 1.9502 8.80005H1.85986C1.79986 8.77005 1.80002 8.73007 1.77002 8.70007C1.83002 8.67007 1.85992 8.67007 1.91992 8.63007C2.03992 8.60007 2.16 8.56005 2.25 8.49005C2.22 8.46005 2.22006 8.42004 2.31006 8.42004C2.47006 8.40004 2.58014 8.3767 2.64014 8.35004C2.82014 8.28004 3.03023 8.21008 3.24023 8.14008C3.30023 8.14008 3.29996 8.11005 3.20996 8.11005H2.81982C2.72982 8.11005 2.64008 8.08008 2.58008 8.08008C2.49008 8.05008 2.42984 8.05005 2.33984 8.05005H2.06982C2.00982 8.02005 1.92008 8.02008 1.83008 8.02008C1.89008 7.99008 2.0101 7.95004 2.1001 7.92004C2.1601 7.90004 2.2599 7.8767 2.3999 7.85004C2.4899 7.85004 2.54996 7.78009 2.45996 7.78009C2.33996 7.75009 2.24988 7.75008 2.12988 7.71008C2.03988 7.71008 1.94986 7.74008 1.85986 7.71008C1.79986 7.71008 1.70984 7.68005 1.58984 7.68005C1.37984 7.68005 1.20023 7.71008 0.990234 7.71008H0.810059C0.810059 7.71008 0.839902 7.68005 0.899902 7.68005C0.989902 7.68005 1.08014 7.68009 1.14014 7.65009C1.20014 7.62009 1.28988 7.62006 1.37988 7.62006H1.43994C1.49994 7.59006 1.59023 7.55005 1.74023 7.55005C1.80023 7.55005 1.83008 7.52008 1.83008 7.52008H1.74023C1.56023 7.52008 1.40977 7.52005 1.25977 7.55005H1.08008C1.08008 7.55005 1.05014 7.52008 1.14014 7.52008C1.20014 7.52008 1.2002 7.49005 1.2002 7.49005C1.2002 7.46005 1.14018 7.42004 0.930176 7.42004C0.780176 7.42004 0.750215 7.42008 0.720215 7.39008C0.720215 7.39008 0.690215 7.36005 0.720215 7.36005C0.810215 7.33005 0.87002 7.29007 1.02002 7.26007C1.08002 7.26007 1.1402 7.26004 1.2002 7.23004C1.2302 7.23004 1.28982 7.20007 1.31982 7.20007C1.37982 7.20007 1.40988 7.17004 1.37988 7.17004H0.990234C0.870234 7.17004 0.78 7.17008 0.75 7.14008C0.72 7.07008 0.659883 7.04003 0.629883 6.97003L0.660156 6.94006C0.720156 6.91006 0.779844 6.91006 0.839844 6.87006C0.899844 6.83006 1.01986 6.84009 1.10986 6.84009C1.18986 6.84009 1.29016 6.81675 1.41016 6.77008C1.47016 6.74008 1.59018 6.77005 1.68018 6.74005C1.71018 6.74005 1.74023 6.74008 1.74023 6.71008H1.56006C1.20006 6.74008 0.840215 6.74005 0.470215 6.74005C0.410215 6.74005 0.349824 6.74008 0.319824 6.71008C0.289824 6.71008 0.290039 6.68005 0.290039 6.68005C0.350039 6.65005 0.410215 6.65005 0.470215 6.61005C0.500215 6.61005 0.560117 6.58008 0.620117 6.58008H0.919922C1.12992 6.51008 1.3398 6.41009 1.5498 6.34009C1.6398 6.31009 1.61014 6.27005 1.64014 6.24005C1.67014 6.21005 1.78988 6.21008 1.87988 6.21008C1.93988 6.21008 1.96994 6.18005 1.93994 6.18005H1.43018C1.37018 6.18005 1.34006 6.21008 1.31006 6.21008C1.28006 6.24008 1.22016 6.24005 1.16016 6.24005H0.859863C0.739863 6.21005 0.649785 6.21004 0.529785 6.17004C0.499785 6.17004 0.5 6.14008 0.5 6.14008C0.5 6.11008 0.470156 6.11005 0.410156 6.11005C0.350156 6.11005 0.319766 6.08008 0.259766 6.08008C0.289766 6.08008 0.349883 6.05005 0.379883 6.05005C0.439883 6.02005 0.530176 5.98004 0.680176 5.98004C0.740176 5.95004 0.799863 5.95003 0.859863 5.91003C0.919863 5.91003 1.06988 5.91007 1.12988 5.88007C1.15988 5.85007 1.19 5.85004 1.25 5.85004C1.34 5.85004 1.46023 5.85007 1.49023 5.82007C1.52023 5.79007 1.54986 5.79004 1.60986 5.79004H1.79004C1.79004 5.79004 1.8501 5.79007 1.8501 5.76007H1.31006C1.22006 5.76007 1.22006 5.73004 1.31006 5.73004C1.37006 5.70004 1.43023 5.70003 1.49023 5.66003H1.66992C1.72992 5.66003 1.7901 5.63009 1.8501 5.59009H2.06006C2.06006 5.59009 2.09012 5.59006 2.12012 5.56006C2.15012 5.56006 2.18023 5.53009 2.24023 5.53009C2.33023 5.53009 2.44998 5.53006 2.47998 5.50006C2.50998 5.50006 2.5701 5.47003 2.6001 5.47003C2.7501 5.47003 2.8099 5.44009 2.8999 5.40009C2.9599 5.37009 3.08014 5.40006 3.14014 5.37006C3.17014 5.37006 3.22977 5.34009 3.25977 5.34009H3.3501C3.5001 5.34009 3.68008 5.34006 3.83008 5.31006H3.89014C3.89014 5.31006 3.94977 5.28009 4.00977 5.28009H4.18994C4.32994 5.28009 4.44002 5.27006 4.52002 5.25006C4.61002 5.22006 4.7901 5.25005 4.8501 5.18005C4.8801 5.15005 4.94006 5.15009 5.06006 5.15009C5.24006 5.15009 5.38982 5.15006 5.56982 5.12006C5.66982 5.12006 5.77012 5.09672 5.87012 5.05005C5.93012 5.02005 6.05014 5.02008 6.14014 5.02008C6.23014 5.02008 6.31988 5.02005 6.37988 4.99005C6.43988 4.96005 6.53012 4.96008 6.62012 4.96008C6.71012 4.96008 6.83014 4.96005 6.89014 4.93005C7.01014 4.88339 7.10994 4.86005 7.18994 4.86005C7.39994 4.86005 7.58004 4.83008 7.79004 4.83008C7.91004 4.83008 8.06018 4.83005 8.18018 4.80005C8.27018 4.80005 8.29986 4.77004 8.35986 4.73004C8.50986 4.73004 8.68984 4.73007 8.83984 4.70007C9.07984 4.70007 9.28979 4.67004 9.52979 4.67004C9.61979 4.64004 9.64981 4.60004 9.7998 4.60004H10.1001C10.2801 4.60004 10.4299 4.60007 10.6099 4.57007C10.7299 4.57007 10.7598 4.54006 10.8198 4.50006H10.8799C11.1499 4.50006 11.4199 4.47003 11.6699 4.47003C11.6999 4.47003 11.73 4.47006 11.73 4.44006H11.5801C10.7301 4.47006 9.91982 4.51004 9.06982 4.54004C8.98982 4.54004 8.86018 4.56338 8.68018 4.61005H8.58984C8.46984 4.61005 8.3202 4.61008 8.2002 4.64008C8.0802 4.64008 8.02018 4.64005 7.93018 4.61005H7.75C7.66 4.61005 7.62982 4.61008 7.56982 4.64008C7.50982 4.67008 7.47986 4.67008 7.35986 4.71008C6.78986 4.74008 6.20992 4.78009 5.66992 4.78009C5.57992 4.78009 5.55008 4.78006 5.58008 4.75006C5.58008 4.75006 5.61014 4.72003 5.64014 4.72003C5.88014 4.72003 6.09008 4.69006 6.33008 4.69006H6.41992C6.50992 4.66006 6.54022 4.62006 6.72021 4.62006C6.81021 4.62006 6.90002 4.62009 7.02002 4.59009C7.05002 4.59009 7.08008 4.59006 7.08008 4.56006C7.08008 4.56006 7.05002 4.56009 7.02002 4.53009H6.66016C6.66016 4.53009 6.69021 4.53006 6.72021 4.50006H6.81006C7.08006 4.50006 7.3501 4.47003 7.6001 4.47003C7.7201 4.47003 7.77984 4.44006 7.83984 4.44006C7.86984 4.41006 7.93023 4.41003 7.99023 4.41003C8.44023 4.38003 8.92988 4.38009 9.37988 4.34009C9.49988 4.34009 9.55984 4.31006 9.58984 4.31006C9.61984 4.31006 9.68023 4.28009 9.74023 4.28009C10.4002 4.25009 11.07 4.21005 11.73 4.18005C11.85 4.18005 11.8799 4.15009 11.9399 4.15009C11.9399 4.15009 11.96 4.14006 12 4.12006H12.0898C12.6298 4.09006 13.1499 4.09005 13.6899 4.05005C13.8099 4.05005 13.8399 4.02008 13.8999 4.02008H13.96C14.35 3.99008 14.7499 3.99007 15.1699 3.95007C15.4399 3.95007 15.71 3.92004 15.96 3.92004C16.04 3.92004 16.1398 3.8967 16.2598 3.85004H16.3198C17.0798 3.82004 17.8601 3.78006 18.6201 3.75006C18.6801 3.75006 18.74 3.72003 18.77 3.72003C18.8 3.69003 18.8599 3.69006 18.9199 3.69006C19.5199 3.66006 20.13 3.62006 20.73 3.62006C20.85 3.62006 20.9102 3.62009 20.9702 3.59009C21.0002 3.59009 21.0601 3.56006 21.1201 3.56006C21.7201 3.53006 22.3302 3.49005 22.9302 3.49005C23.0502 3.49005 23.1099 3.46008 23.1699 3.46008C23.1999 3.46008 23.2 3.43005 23.23 3.43005C23.53 3.43005 23.8301 3.40009 24.1401 3.40009C24.2601 3.40009 24.3201 3.37006 24.3501 3.37006C24.3801 3.34006 24.44 3.34009 24.5 3.34009C24.68 3.34009 24.83 3.34006 24.98 3.31006C25.01 3.31006 25.04 3.31009 25.04 3.28009C25.04 3.28009 25.0099 3.25006 24.9199 3.25006C24.1299 3.28006 23.3198 3.32004 22.5298 3.35004C22.4498 3.35004 22.35 3.37338 22.23 3.42004H22.1401C21.3801 3.45004 20.5998 3.49008 19.8398 3.52008C19.7798 3.52008 19.7199 3.52005 19.6899 3.55005C19.6599 3.55005 19.6 3.58008 19.54 3.58008C18.82 3.61008 18.0901 3.65005 17.3301 3.68005C17.2101 3.68005 17.1498 3.71008 17.0898 3.71008C17.0598 3.74008 16.9999 3.74005 16.9399 3.74005C16.2499 3.77005 15.5501 3.81009 14.8301 3.84009C14.7701 3.84009 14.71 3.84006 14.71 3.81006C14.71 3.81006 14.74 3.78009 14.77 3.78009C15.13 3.75009 15.4899 3.75008 15.8599 3.71008C15.9799 3.71008 16.0098 3.68005 16.0698 3.68005C16.0998 3.68005 16.0999 3.65009 16.1299 3.65009H16.2202C17.1002 3.62009 17.9398 3.58005 18.8198 3.55005C18.9398 3.55005 18.9698 3.52008 19.0298 3.52008H19.0898C19.3598 3.52008 19.6299 3.49005 19.8799 3.49005C20.3299 3.46005 20.82 3.46004 21.27 3.42004C21.35 3.42004 21.4498 3.3967 21.5698 3.35004H21.6299C22.8699 3.28004 24.1098 3.25005 25.3198 3.18005C25.3798 3.18005 25.4402 3.15009 25.4702 3.15009C25.5002 3.15009 25.5601 3.12006 25.6201 3.12006C27.2801 3.05006 28.9401 2.98007 30.6001 2.88007C30.7201 2.88007 30.7798 2.88004 30.8398 2.85004C30.8698 2.85004 30.9302 2.82007 30.9902 2.82007C32.8302 2.75007 34.6502 2.65008 36.4902 2.58008C37.7302 2.51008 38.9702 2.48003 40.1802 2.41003C40.3002 2.41003 40.3599 2.38007 40.4199 2.38007C40.4499 2.38007 40.45 2.35004 40.48 2.35004C40.75 2.35004 40.99 2.32007 41.27 2.32007C41.36 2.32007 41.4198 2.35004 41.5098 2.35004C41.5698 2.32004 41.6299 2.32009 41.6899 2.28009C42.0799 2.28009 42.4799 2.25006 42.8999 2.25006H42.9902C43.1702 2.28006 43.2902 2.28006 43.4102 2.25006C43.4402 2.22006 43.5001 2.22003 43.5601 2.22003C43.7701 2.22003 43.9502 2.22006 44.1602 2.19006C44.2802 2.19006 44.3402 2.19003 44.4302 2.22003H44.6099C44.9699 2.22003 45.3302 2.19006 45.7002 2.19006H45.7598C45.7598 2.19006 45.8499 2.16003 45.8799 2.16003C45.9399 2.16003 45.9998 2.19006 46.0298 2.19006H46.21C47.66 2.12006 49.1401 2.05004 50.6201 1.98004C50.7401 1.98004 50.8001 1.98007 50.8901 2.01007H51.0698C52.1598 1.98007 53.2799 1.91006 54.3599 1.87006C54.4599 1.87006 54.5802 1.88009 54.7202 1.90009H54.8101C55.3201 1.87009 55.8098 1.87008 56.3198 1.83008C56.3798 1.83008 56.44 1.83005 56.5 1.86005C56.58 1.88005 56.65 1.88005 56.71 1.86005C56.71 1.86005 56.7999 1.83008 56.8599 1.83008H57.04C57.13 1.83008 57.1901 1.86005 57.3101 1.86005C57.8501 1.83005 58.3702 1.83004 58.9102 1.79004C59.0302 1.79004 59.0902 1.79007 59.1802 1.82007H59.3599C60.0199 1.79007 60.6901 1.75003 61.3501 1.72003C61.4701 1.72003 61.5301 1.72006 61.6201 1.75006H61.71C62.1 1.72006 62.5299 1.72005 62.9199 1.68005C63.0199 1.68005 63.1398 1.69008 63.2798 1.71008H63.3701C63.8201 1.68008 64.3098 1.68008 64.7598 1.64008C64.8598 1.64008 65.0398 1.65004 65.2998 1.67004H65.3901C65.9301 1.64004 66.4502 1.64004 66.9902 1.60004C67.1102 1.60004 67.1698 1.60007 67.2598 1.63007H67.4399C68.0399 1.60007 68.65 1.60006 69.25 1.56006C69.37 1.56006 69.43 1.56009 69.52 1.59009H69.7002C70.3002 1.56009 70.9098 1.52008 71.5098 1.52008C71.6298 1.52008 71.6898 1.52005 71.7798 1.55005H71.8701C72.1101 1.55005 72.3201 1.55008 72.5601 1.52008C72.6801 1.52008 72.7401 1.55005 72.8301 1.55005H72.9199C73.4299 1.52005 73.9202 1.52004 74.4302 1.48004H74.6099C74.6699 1.51004 74.7599 1.51007 74.8799 1.51007C75.1199 1.51007 75.3298 1.48004 75.5698 1.48004C75.6698 1.48004 75.8499 1.49007 76.1099 1.51007H76.2002C76.5902 1.51007 77.0202 1.48006 77.4102 1.44006C77.5302 1.44006 77.5902 1.44003 77.6802 1.47003C77.7402 1.47003 77.7999 1.50003 77.8599 1.47003C78.2199 1.47003 78.5802 1.44006 78.9502 1.44006C79.0702 1.44006 79.2198 1.41003 79.3398 1.41003C79.4298 1.41003 79.5201 1.44006 79.5801 1.44006H79.6699C80.1199 1.41006 80.6101 1.41006 81.0601 1.37006C81.1801 1.37006 81.2401 1.37009 81.3301 1.40009H81.4199C81.5999 1.40009 81.7502 1.40006 81.9302 1.37006C82.1402 1.37006 82.3198 1.37009 82.5298 1.34009C82.6798 1.34009 82.7401 1.37006 82.8901 1.37006H83.1899C83.3999 1.37006 83.58 1.34009 83.79 1.34009C83.85 1.34009 83.9099 1.34006 83.9399 1.31006C83.9399 1.31006 83.9099 1.31009 83.8799 1.28009C83.6999 1.23342 83.5198 1.22339 83.3398 1.25006C83.1598 1.25006 83.0101 1.25009 82.8301 1.28009H82.7402C82.6502 1.28009 82.6802 1.25006 82.7402 1.25006C82.8002 1.22006 82.8599 1.22005 82.9199 1.18005C83.0099 1.18005 83.0702 1.21008 83.1602 1.21008H83.3701C83.7001 1.21008 84.0301 1.18005 84.3701 1.18005H84.46C84.55 1.18005 84.61 1.21008 84.73 1.21008C85.03 1.21008 85.3301 1.18005 85.6401 1.18005C85.7201 1.18005 85.84 1.19008 86 1.21008H86.0898C86.3898 1.21008 86.69 1.18005 87 1.18005C87.06 1.18005 87.1202 1.18008 87.1802 1.21008C87.2102 1.21008 87.18 1.24006 87.27 1.31006C87.51 1.38006 87.6598 1.38007 87.8398 1.38007C87.8998 1.38007 87.96 1.38004 88.02 1.35004C88.05 1.35004 88.0801 1.35007 88.0801 1.32007H87.4502C87.3602 1.32007 87.27 1.32004 87.27 1.29004C87.27 1.29004 87.2702 1.26007 87.2402 1.26007C87.2402 1.26007 87.24 1.23004 87.21 1.23004C87.12 1.23004 87.0901 1.23007 87.0601 1.26007C87.0301 1.26007 86.9999 1.29004 86.9399 1.29004H86.5801C86.5201 1.29004 86.4602 1.26007 86.4302 1.26007H86.3398C86.0998 1.26007 85.8899 1.26004 85.6499 1.29004C85.5299 1.29004 85.4699 1.26007 85.3799 1.26007H85.2598C85.2298 1.33007 85.3198 1.33008 85.5298 1.33008C85.7098 1.33008 85.86 1.33005 85.98 1.36005H86.0698C86.2198 1.36005 86.3998 1.36008 86.5498 1.33008H86.6401C86.9201 1.35008 87.1002 1.36005 87.1802 1.36005C87.2402 1.36005 87.2998 1.36004 87.2998 1.29004C87.4198 1.22004 87.6301 1.19006 87.8101 1.19006C87.9301 1.19006 87.9901 1.22003 88.0801 1.22003H88.1699C88.5899 1.22003 89.0502 1.19009 89.4702 1.15009H89.6499C89.7099 1.15009 89.7999 1.18005 89.9199 1.18005C90.1599 1.18005 90.3699 1.15009 90.6099 1.15009C90.6899 1.15009 90.8102 1.16005 90.9702 1.18005H91.0601C91.3001 1.18005 91.51 1.15009 91.75 1.15009H91.9302C91.9902 1.18009 92.0499 1.18005 92.1099 1.18005C92.3499 1.18005 92.5598 1.15009 92.7998 1.15009H92.8901C93.0501 1.17009 93.17 1.18005 93.25 1.18005C93.4 1.18005 93.58 1.18009 93.73 1.15009C93.88 1.15009 93.9698 1.18005 94.0898 1.18005C94.3898 1.18005 94.69 1.15009 95 1.15009C95.12 1.15009 95.18 1.15005 95.27 1.18005H95.96C96.08 1.18005 96.1398 1.21008 96.3198 1.21008H97.1401C97.2601 1.21008 97.3202 1.24005 97.4102 1.24005H97.5C97.71 1.24005 97.8901 1.24008 98.1001 1.21008C98.2501 1.21008 98.34 1.21005 98.46 1.24005H98.5498C98.7898 1.24005 99.0002 1.21008 99.2402 1.21008C99.3002 1.21008 99.3599 1.21005 99.4199 1.24005C99.4799 1.24005 99.5401 1.27008 99.6001 1.27008C99.8401 1.27008 100.05 1.24005 100.29 1.24005H100.38C100.52 1.26005 100.64 1.27008 100.74 1.27008H100.83C100.98 1.27008 101.16 1.27005 101.34 1.24005C101.52 1.24005 101.67 1.24008 101.79 1.27008C101.94 1.27008 102.12 1.27005 102.27 1.24005C102.39 1.24005 102.45 1.24008 102.54 1.27008H102.63C102.87 1.27008 103.08 1.27005 103.32 1.24005C103.44 1.24005 103.5 1.24008 103.59 1.27008H104.07C104.17 1.27008 104.29 1.28005 104.43 1.30005C104.52 1.33005 104.61 1.30005 104.73 1.30005H105C105.06 1.30005 105.12 1.33008 105.18 1.33008C105.3 1.33008 105.45 1.33005 105.57 1.30005H105.84C105.9 1.30005 105.96 1.33008 106.02 1.33008C106.32 1.33008 106.62 1.30005 106.93 1.30005H107.02C107.08 1.30005 107.14 1.33008 107.17 1.33008C107.29 1.33008 107.44 1.33005 107.56 1.30005C107.71 1.30005 107.83 1.30008 107.92 1.33008H108.61C108.73 1.33008 108.79 1.36005 108.97 1.36005H109.76C109.85 1.36005 109.91 1.39008 110.03 1.39008H110.33C110.41 1.39008 110.53 1.40004 110.69 1.42004H110.96C111.02 1.42004 111.08 1.45007 111.11 1.45007H111.2C111.32 1.45007 111.47 1.45004 111.59 1.42004C111.71 1.42004 111.77 1.42007 111.86 1.45007C111.92 1.45007 111.98 1.48007 112.04 1.45007C112.37 1.45007 112.7 1.42004 113.04 1.42004C113.16 1.42004 113.25 1.42007 113.31 1.45007C113.43 1.48007 113.58 1.45004 113.67 1.48004C113.73 1.48004 113.82 1.51007 113.94 1.51007C114.18 1.48007 114.39 1.48004 114.63 1.48004C114.72 1.48004 114.78 1.51007 114.87 1.51007C114.99 1.51007 115.14 1.51004 115.26 1.48004H115.65C115.65 1.48004 115.71 1.48007 115.74 1.51007C115.84 1.53007 115.96 1.53007 116.1 1.51007H116.37C116.46 1.54007 116.55 1.54004 116.64 1.54004C116.85 1.54004 117.03 1.51007 117.24 1.51007H117.42C117.51 1.54007 117.6 1.54007 117.69 1.51007H118.14C118.29 1.51007 118.47 1.51004 118.62 1.48004C118.77 1.48004 118.86 1.51007 118.98 1.51007C119.13 1.51007 119.31 1.51004 119.49 1.48004H119.58C119.7 1.48004 119.76 1.55007 119.94 1.51007H120.33V1.54004C120.33 1.54004 120.24 1.57007 120.21 1.57007H120.45C120.51 1.57007 120.57 1.57004 120.63 1.60004C120.66 1.60004 120.63 1.60004 120.6 1.67004C120.6 1.70004 120.63 1.67004 120.66 1.67004C120.69 1.64004 120.63 1.64008 120.57 1.64008C120.51 1.64008 120.48 1.67004 120.51 1.67004H120.63C120.81 1.64004 120.93 1.64008 121.08 1.64008H121.17C121.26 1.64008 121.35 1.67004 121.41 1.67004H121.68C121.8 1.70004 121.83 1.70007 121.95 1.70007H122.16C122.22 1.70007 122.28 1.70004 122.34 1.73004C122.42 1.75004 122.49 1.75004 122.55 1.73004C122.61 1.70004 122.64 1.70004 122.7 1.73004C122.82 1.75004 122.94 1.76007 123.06 1.76007C123.21 1.76007 123.33 1.76004 123.42 1.79004C123.48 1.82004 123.51 1.79004 123.57 1.79004C123.72 1.72004 123.78 1.72004 124.05 1.79004C124.17 1.82004 124.32 1.79004 124.44 1.79004C124.56 1.79004 124.62 1.79007 124.62 1.82007C124.62 1.85007 124.65 1.85004 124.71 1.85004H124.8C124.98 1.85004 125.13 1.85007 125.31 1.82007C125.4 1.82007 125.43 1.79006 125.43 1.75006C125.4 1.72006 125.43 1.72005 125.55 1.68005H125.73C125.79 1.68005 125.79 1.71008 125.73 1.71008C125.61 1.74008 125.61 1.78006 125.79 1.81006C125.85 1.81006 125.91 1.84009 125.91 1.84009C125.91 1.84009 125.91 1.87006 125.94 1.87006C126.03 1.90006 126.18 1.94006 126.33 1.94006C126.48 1.94006 126.57 1.94003 126.69 1.97003C126.78 2.00003 126.87 1.97003 126.99 1.97003C127.11 1.97003 127.17 1.97006 127.26 2.00006C127.32 2.00006 127.38 2.03006 127.44 2.00006H127.83C127.95 2.00006 128.04 2.00009 128.1 2.03009C128.19 2.06009 128.28 2.03009 128.37 2.03009C128.49 2.03009 128.55 2.06006 128.73 2.06006H129.12C129.24 2.09006 129.36 2.09009 129.48 2.09009H129.75C129.9 2.12009 130.08 2.16006 130.23 2.19006C130.26 2.22006 130.23 2.26007 130.35 2.26007C130.41 2.26007 130.47 2.26004 130.5 2.29004C130.56 2.29004 130.62 2.32004 130.68 2.29004C130.8 2.29004 130.95 2.29007 131.07 2.26007C131.19 2.26007 131.25 2.26004 131.34 2.29004C131.4 2.29004 131.46 2.32004 131.52 2.29004H131.7C131.76 2.31004 131.88 2.32007 132.06 2.32007H132.15L132.12 2.35004H132.06C131.76 2.35004 131.46 2.38007 131.15 2.38007H131.06C131.06 2.38007 131 2.38003 131 2.41003C131 2.44003 131.03 2.41003 131.06 2.41003H131.33C131.39 2.41003 131.45 2.44006 131.48 2.44006H131.96C132.08 2.46006 132.2 2.47003 132.32 2.47003H132.53C132.59 2.47003 132.65 2.50006 132.71 2.50006C132.83 2.53006 132.92 2.53007 132.95 2.57007C132.95 2.57007 133.01 2.60004 133.1 2.60004H133.31C133.41 2.60004 133.53 2.61007 133.67 2.63007H133.94C134 2.63007 134.01 2.64003 133.97 2.66003C133.91 2.68003 133.97 2.70337 134.15 2.73004C134.24 2.73004 134.33 2.76007 134.39 2.76007C134.47 2.78007 134.48 2.80341 134.42 2.83008C134.42 2.83008 134.39 2.83005 134.36 2.86005C134.3 2.89005 134.27 2.89008 134.15 2.89008H133.76C133.64 2.89008 133.61 2.92008 133.61 2.96008C133.61 3.00008 133.64 2.99005 133.88 2.99005C133.94 2.99005 134 2.99008 134.06 3.02008C134.03 3.02008 134 3.05005 133.94 3.05005C133.79 3.05005 133.61 3.05008 133.46 3.08008C133.34 3.08008 133.19 3.08005 133.07 3.11005C132.98 3.11005 132.95 3.14005 132.95 3.18005C132.95 3.22005 132.98 3.21006 132.98 3.25006C133.01 3.28006 133.04 3.28009 133.19 3.28009H133.28C133.4 3.28009 133.46 3.31006 133.64 3.31006H134.03C134.15 3.31006 134.21 3.31009 134.3 3.34009H134.39C134.57 3.34009 134.72 3.34006 134.87 3.31006H135.05C135.15 3.33006 135.27 3.34009 135.41 3.34009C135.51 3.34009 135.63 3.35006 135.77 3.37006H136.34C136.34 3.37006 136.31 3.37009 136.28 3.40009C136.1 3.43009 135.89 3.43005 135.71 3.43005C135.65 3.43005 135.59 3.43009 135.53 3.40009C135.47 3.40009 135.41 3.37006 135.35 3.37006C135.23 3.37006 135.08 3.37009 134.96 3.40009C134.84 3.40009 134.78 3.40006 134.69 3.37006H134.6C134.3 3.37006 134 3.40009 133.69 3.40009C133.57 3.40009 133.51 3.40006 133.42 3.37006H133.03C132.67 3.37006 132.31 3.40009 131.94 3.40009H131.85C131.79 3.40009 131.73 3.37006 131.67 3.37006H131.37C131.31 3.37006 131.22 3.37009 131.22 3.40009C131.22 3.40009 131.28 3.43005 131.34 3.43005H131.52C131.7 3.45005 131.85 3.46008 131.97 3.46008C132.07 3.46008 132.16 3.47005 132.24 3.49005H132.42C132.57 3.49005 132.75 3.49008 132.93 3.46008H133.02C133.16 3.48008 133.28 3.49005 133.38 3.49005C133.52 3.49005 133.64 3.50008 133.74 3.52008C133.83 3.55008 133.92 3.52008 134.01 3.52008C134.13 3.55008 134.25 3.55009 134.34 3.59009C134.46 3.62009 134.58 3.62009 134.7 3.59009H134.97C135.06 3.62009 135.15 3.62009 135.24 3.59009H135.54C135.54 3.59009 135.6 3.59006 135.6 3.62006C135.6 3.62006 135.57 3.65009 135.54 3.65009C135.36 3.68009 135.15 3.68005 134.97 3.68005H134.88C134.82 3.68005 134.76 3.65009 134.73 3.65009H134.25C134.19 3.65009 134.16 3.62006 134.1 3.62006H133.71C133.65 3.62006 133.62 3.65009 133.59 3.65009C133.56 3.65009 133.5 3.68005 133.41 3.68005H133.05C132.75 3.68005 132.45 3.71008 132.14 3.71008C132.04 3.71008 131.89 3.70005 131.69 3.68005H131.6C131.42 3.68005 131.27 3.68008 131.09 3.71008C130.97 3.71008 130.82 3.70005 130.64 3.68005H130.46C130.34 3.68005 130.25 3.65009 130.1 3.65009C129.98 3.65009 129.83 3.65005 129.71 3.68005C129.59 3.68005 129.53 3.68009 129.44 3.65009C129.41 3.65009 129.38 3.62009 129.35 3.65009C129.05 3.65009 128.75 3.68005 128.35 3.68005C128.26 3.68005 128.29 3.68005 128.35 3.68005C128.44 3.68005 128.47 3.68009 128.41 3.65009C128.38 3.65009 128.32 3.62006 128.29 3.62006C128.26 3.62006 128.23 3.62009 128.35 3.65009C128.41 3.67009 128.45 3.68005 128.47 3.68005C128.47 3.68005 128.59 3.71005 128.65 3.68005H129.04C129.18 3.70005 129.33 3.71008 129.49 3.71008H129.67C129.76 3.71008 129.82 3.74005 129.94 3.74005C130.09 3.74005 130.27 3.74008 130.42 3.71008H130.51C130.6 3.71008 130.66 3.74005 130.78 3.74005H131.17C131.17 3.74005 131.17 3.77008 131.11 3.77008H130.63C130.57 3.77008 130.48 3.77005 130.48 3.80005C130.48 3.80005 130.54 3.83008 130.6 3.83008H130.9C131.08 3.83008 131.23 3.83005 131.35 3.86005C131.44 3.89005 131.44 3.86005 131.56 3.93005C131.59 3.96005 131.65 3.96008 131.74 3.96008C131.89 3.96008 131.98 3.96005 131.98 3.99005C131.95 4.02005 131.89 4.02008 131.83 4.02008C131.71 4.02008 131.56 4.02005 131.44 4.05005H131.26C131.2 4.05005 131.17 4.02008 131.11 4.02008H130.69C130.63 4.02008 130.57 3.99005 130.54 3.99005H130.45C130.33 3.99005 130.18 3.99008 130.06 4.02008C129.96 4.02008 129.84 4.01005 129.7 3.99005H129.52C129.42 3.99005 129.27 3.98008 129.07 3.96008H128.98C128.68 3.96008 128.38 3.99005 128.07 3.99005C127.91 3.99005 127.78 4.01339 127.68 4.06006C127.59 4.09006 127.56 4.09007 127.68 4.13007C127.77 4.13007 127.83 4.16003 127.92 4.16003C128.01 4.16003 128.1 4.13003 128.19 4.16003C128.25 4.16003 128.31 4.19006 128.34 4.19006H128.61C128.61 4.19006 128.73 4.22003 128.79 4.22003H129.18C129.18 4.22003 129.24 4.22006 129.27 4.25006C129.36 4.25006 129.45 4.28006 129.54 4.25006C129.72 4.25006 129.87 4.25009 129.99 4.28009H130.32C130.32 4.28009 130.29 4.31006 130.26 4.31006C130.08 4.31006 129.87 4.34009 129.69 4.34009H129.6C129.54 4.34009 129.51 4.31006 129.45 4.31006H129.03C128.97 4.31006 128.91 4.31009 128.88 4.28009H128.4C128.34 4.28009 128.28 4.25006 128.25 4.25006H128.16C128.04 4.25006 127.89 4.25009 127.77 4.28009C127.69 4.28009 127.57 4.27006 127.41 4.25006H127.32C127.14 4.25006 126.99 4.25009 126.81 4.28009C126.75 4.28009 126.69 4.28006 126.63 4.25006C126.57 4.25006 126.51 4.22003 126.45 4.22003C126.18 4.22003 125.91 4.25006 125.66 4.25006C125.54 4.25006 125.45 4.25003 125.39 4.22003C125.3 4.19003 125.21 4.22003 125.12 4.22003C124.98 4.22003 124.86 4.21006 124.76 4.19006H124.67C124.43 4.19006 124.22 4.22003 123.98 4.22003C123.86 4.22003 123.8 4.22006 123.71 4.19006H123.62C123.44 4.19006 123.29 4.19003 123.11 4.22003C122.93 4.25003 122.9 4.19006 122.75 4.19006C122.57 4.19006 122.42 4.19003 122.27 4.22003C122.15 4.22003 122 4.22006 121.88 4.25006C121.76 4.25006 121.61 4.25009 121.49 4.28009H121.31C121.25 4.25009 121.16 4.25006 121.07 4.25006C120.99 4.23006 120.9 4.23006 120.8 4.25006H120.71C120.55 4.25006 120.37 4.24003 120.17 4.22003H120.11C120.11 4.22003 120.02 4.25006 119.99 4.25006C119.93 4.25006 119.87 4.25003 119.84 4.22003C119.75 4.19003 119.57 4.22003 119.48 4.22003C119.45 4.22003 119.39 4.19006 119.33 4.19006H119.12C119 4.19006 118.9 4.2134 118.82 4.26007C118.76 4.29007 118.64 4.29004 118.55 4.29004H118.28C118.22 4.26004 118.13 4.26007 118.01 4.26007C117.89 4.26007 117.74 4.26004 117.62 4.29004H117.53C117.33 4.27004 117.18 4.26007 117.08 4.26007H116.87C116.75 4.26007 116.69 4.26004 116.6 4.23004H115.81C115.66 4.23004 115.57 4.20007 115.45 4.20007C115.3 4.20007 115.12 4.20004 114.97 4.23004H114.79C114.73 4.23004 114.64 4.20007 114.52 4.20007C114.37 4.20007 114.19 4.20004 114.04 4.23004C113.92 4.20004 113.86 4.20007 113.68 4.20007H113.38C113.26 4.20007 113.11 4.20004 112.99 4.23004C112.89 4.23004 112.77 4.22007 112.63 4.20007C112.51 4.17007 112.36 4.20007 112.24 4.20007C112.15 4.20007 112.09 4.23008 112.12 4.27008C112.15 4.31008 112.09 4.34009 112 4.34009C111.76 4.34009 111.55 4.37006 111.31 4.37006H111.22C111.06 4.35006 110.94 4.34009 110.86 4.34009C110.71 4.34009 110.53 4.34006 110.38 4.37006C110.26 4.37006 110.2 4.37009 110.11 4.34009C110.05 4.34009 109.99 4.31009 109.93 4.34009C109.14 4.37009 108.33 4.41006 107.54 4.44006C107.42 4.44006 107.36 4.44003 107.27 4.41003H106.97C106.67 4.41003 106.37 4.44006 106.06 4.44006C105.94 4.44006 105.91 4.47003 105.85 4.47003C105.82 4.47003 105.76 4.50006 105.7 4.50006H105.52C105.46 4.47006 105.37 4.47003 105.25 4.47003C105.13 4.47003 104.98 4.47006 104.86 4.50006C104.8 4.50006 104.74 4.50009 104.71 4.53009C104.71 4.53009 104.74 4.53006 104.77 4.56006C104.86 4.56006 104.92 4.59009 105.01 4.59009H105.49C105.58 4.62009 105.7 4.62006 105.85 4.62006C105.97 4.62006 106.03 4.69009 106.21 4.65009H106.6C106.69 4.65009 106.75 4.68005 106.87 4.68005C106.99 4.68005 107.14 4.68009 107.26 4.65009H107.44C107.5 4.65009 107.59 4.68005 107.71 4.68005H108.01C108.09 4.68005 108.21 4.69008 108.37 4.71008H108.46C108.64 4.71008 108.79 4.71005 108.97 4.68005C109.03 4.68005 109.09 4.68008 109.15 4.71008C109.18 4.71008 109.15 4.74005 109.18 4.74005C108.85 4.77005 108.52 4.77008 108.18 4.77008C108.06 4.77008 108 4.77005 107.91 4.74005H107.82C107.58 4.74005 107.37 4.77008 107.13 4.77008H106.95C106.8 4.74008 106.65 4.74008 106.5 4.77008C106.38 4.77008 106.35 4.80009 106.35 4.84009C106.38 4.87009 106.44 4.91006 106.62 4.87006H106.83C106.89 4.87006 106.95 4.87009 107.01 4.90009C107.07 4.90009 107.13 4.93005 107.19 4.93005C107.31 4.93005 107.46 4.93009 107.58 4.90009C107.7 4.90009 107.76 4.90005 107.85 4.93005C107.94 4.96005 108.03 4.96005 108.12 4.93005H108.48C108.48 4.93005 108.54 4.96005 108.57 4.93005C108.81 4.93005 109.02 4.93009 109.26 4.90009C109.38 4.90009 109.44 4.90005 109.53 4.93005H109.62C109.8 4.93005 109.95 4.93009 110.13 4.90009H110.31C110.41 4.92009 110.53 4.93005 110.67 4.93005H110.85C110.91 4.93005 110.97 4.93008 111 4.96008H111.09C111.21 4.96008 111.36 4.96005 111.48 4.93005C111.56 4.93005 111.68 4.94008 111.84 4.96008H112.41C112.5 4.99008 112.59 4.99008 112.68 4.96008H112.98C113.12 4.98008 113.24 4.99005 113.34 4.99005C113.55 4.99005 113.73 4.96008 113.94 4.96008H114.03C114.09 4.96008 114.12 4.99005 114.18 4.99005H114.36C114.5 4.99005 114.62 5.00008 114.72 5.02008C114.84 5.05008 114.99 5.02005 115.08 5.05005C115.14 5.08005 115.23 5.08008 115.35 5.08008H115.65C115.75 5.08008 115.87 5.09005 116.01 5.11005H116.49C116.64 5.11005 116.73 5.11008 116.85 5.14008H117.15C117.24 5.14008 117.33 5.14004 117.42 5.17004C117.51 5.20004 117.6 5.17004 117.69 5.17004H117.99C118.13 5.19004 118.25 5.20007 118.35 5.20007H118.83C118.89 5.20007 118.92 5.23004 118.98 5.23004H119.4C119.46 5.23004 119.52 5.23007 119.55 5.26007H120.03C120.09 5.26007 120.15 5.29004 120.18 5.29004H120.36C120.52 5.29004 120.67 5.30007 120.81 5.32007H121.11C121.2 5.32007 121.29 5.32004 121.38 5.35004C121.47 5.35004 121.56 5.38004 121.65 5.35004H121.95C122.07 5.38004 122.16 5.38007 122.31 5.38007C122.43 5.38007 122.49 5.41003 122.67 5.41003C122.79 5.41003 122.94 5.41007 123.06 5.38007C123.18 5.38007 123.27 5.38003 123.33 5.41003C123.45 5.44003 123.6 5.41006 123.69 5.44006C123.75 5.47006 123.84 5.47003 123.96 5.47003C124.08 5.47003 124.14 5.47006 124.17 5.50006C124.2 5.53006 124.2 5.53009 124.14 5.53009H123.99C123.93 5.50009 123.84 5.50006 123.72 5.50006C123.63 5.50006 123.54 5.47003 123.48 5.47003H123.21C123.07 5.45003 122.95 5.44006 122.85 5.44006H122.55C122.43 5.44006 122.37 5.44003 122.28 5.41003H122.19C121.95 5.41003 121.74 5.44006 121.5 5.44006C121.38 5.44006 121.32 5.44003 121.23 5.41003H121.14C120.93 5.41003 120.75 5.44006 120.54 5.44006C120.51 5.44006 120.45 5.47003 120.42 5.47003C120.39 5.47003 120.33 5.50006 120.24 5.50006C120.12 5.50006 120 5.53006 119.85 5.50006C119.73 5.47006 119.7 5.47006 119.58 5.50006C119.43 5.50006 119.25 5.50009 119.1 5.53009C119.07 5.53009 119.04 5.53006 119.04 5.56006H119.37C119.43 5.56006 119.49 5.59009 119.52 5.59009H119.79C119.91 5.62009 120.03 5.62003 120.12 5.66003C120.21 5.69003 120.3 5.66003 120.39 5.66003C120.65 5.68003 120.86 5.69006 121.02 5.69006H121.32C121.41 5.69006 121.47 5.72003 121.59 5.72003H121.89C121.97 5.72003 122.09 5.73006 122.25 5.75006H122.43C122.49 5.75006 122.55 5.75009 122.61 5.78009C122.64 5.78009 122.61 5.78006 122.64 5.81006C122.43 5.81006 122.25 5.81009 122.04 5.84009C121.92 5.84009 121.86 5.84006 121.77 5.81006H121.68C121.47 5.81006 121.29 5.84009 121.08 5.84009C121.05 5.84009 121.02 5.84006 121.02 5.87006C121.02 5.87006 121.08 5.90009 121.14 5.90009H121.41C121.47 5.93009 121.56 5.93005 121.68 5.93005H121.89C122.07 5.93005 122.22 5.93008 122.34 5.96008H122.82C122.94 5.99008 123.03 5.99005 123.18 5.99005C123.33 5.99005 123.45 6.02006 123.6 6.06006C123.66 6.06006 123.72 6.09006 123.78 6.06006H124.08C124.14 6.06006 124.2 6.09009 124.23 6.09009H124.92C125.01 6.09009 125.1 6.12006 125.16 6.12006C125.28 6.12006 125.43 6.12009 125.55 6.09009C125.65 6.09009 125.77 6.10006 125.91 6.12006H126.18C126.33 6.12006 126.42 6.12009 126.54 6.15009H126.63C126.72 6.15009 126.81 6.15005 126.9 6.18005C126.96 6.18005 127.02 6.21005 127.08 6.18005C127.32 6.18005 127.53 6.15009 127.77 6.15009H127.86C128 6.17009 128.12 6.18005 128.22 6.18005C128.34 6.18005 128.49 6.18008 128.58 6.21008H128.67C128.82 6.21008 129 6.21005 129.15 6.18005H129.33C129.39 6.18005 129.48 6.21008 129.6 6.21008C129.93 6.18008 129.93 6.21005 130.36 6.24005H130.63C130.75 6.27005 130.78 6.27008 130.9 6.27008H131.2C131.35 6.27008 131.44 6.27005 131.56 6.30005H132.1C132.16 6.30005 132.22 6.33008 132.28 6.33008C132.52 6.33008 132.73 6.30005 132.97 6.30005H133.06C133.22 6.32005 133.37 6.33008 133.51 6.33008H133.69C133.75 6.33008 133.81 6.36005 133.84 6.36005H134.32C134.41 6.36005 134.47 6.39008 134.59 6.39008H134.98C135.04 6.39008 135.13 6.42004 135.25 6.42004C135.37 6.42004 135.52 6.42008 135.64 6.39008H135.82C135.88 6.42008 135.97 6.42004 136.09 6.42004C136.25 6.42004 136.4 6.43007 136.54 6.45007H136.72C136.78 6.45007 136.84 6.45004 136.9 6.48004C136.87 5.58004 136.87 5.61005 136.87 5.61005L137.15 5.89008ZM119.12 1.09009C119.06 1.09009 119 1.09006 118.88 1.06006C118.88 1.06006 118.88 1.03009 118.85 1.03009C118.82 1.03009 118.76 1.00006 118.7 1.00006C118.58 1.00006 118.46 1.03009 118.46 1.03009C118.46 1.03009 118.49 1.06006 118.55 1.06006H118.64C118.73 1.06006 118.79 1.09009 118.88 1.09009C118.85 1.06009 118.88 1.06009 118.88 1.09009C118.88 1.12009 118.91 1.12006 118.97 1.12006H119.03C119.15 1.12006 119.18 1.12009 119.12 1.09009H119.21C119.27 1.09009 119.3 1.06006 119.27 1.06006H119.21C119.21 1.06006 119.15 1.06009 119.12 1.09009ZM135.52 7.28009C135.37 7.28009 135.22 7.28006 135.07 7.31006C135.04 7.31006 135.01 7.31009 135.01 7.34009H135.25C135.37 7.34009 135.43 7.37006 135.49 7.37006H135.58C135.73 7.37006 135.91 7.37009 136.06 7.34009H136.15C136.24 7.34009 136.21 7.31006 136.15 7.31006C136.06 7.31006 136 7.28009 135.91 7.28009C135.79 7.25009 135.64 7.28009 135.52 7.28009ZM124.07 7.70007H123.68C123.62 7.70007 123.56 7.73004 123.53 7.73004C123.59 7.73004 123.62 7.76007 123.68 7.76007H123.98C124.1 7.76007 124.16 7.79004 124.22 7.79004H124.31C124.46 7.79004 124.55 7.76003 124.52 7.72003C124.49 7.69003 124.43 7.69006 124.34 7.69006C124.25 7.66006 124.16 7.66006 124.07 7.69006V7.70007ZM136.18 6.48004C136.18 6.48004 136.24 6.48007 136.24 6.45007C136.24 6.45007 136.23 6.42673 136.21 6.38007C136.12 6.35007 136.03 6.38007 135.94 6.38007H135.88V6.41003C135.97 6.44003 136.09 6.44004 136.18 6.48004ZM118.66 4.95007H118.36C118.36 4.95007 118.3 4.95004 118.3 4.98004C118.27 4.98004 118.3 5.01007 118.39 5.01007H118.69C118.81 5.01007 118.9 4.98004 118.84 4.98004C118.81 4.91004 118.75 4.91007 118.66 4.95007ZM12.4199 4.01007H12.6001C12.6601 4.01007 12.72 4.01004 12.75 3.98004C12.69 3.98004 12.6298 3.95007 12.5698 3.95007H12.27C12.21 3.95007 12.1499 3.98004 12.1499 3.98004C12.1499 4.01004 12.2999 4.01007 12.4199 4.01007ZM110.11 3.73004H110.38C110.38 3.73004 110.44 3.73007 110.44 3.70007V3.67004C110.38 3.67004 110.14 3.70005 110.11 3.74005V3.73004ZM103.74 0.810059C103.77 0.840059 103.83 0.840066 103.89 0.880066C103.95 0.880066 103.98 0.850037 103.95 0.850037L103.92 0.820068C103.92 0.820068 103.86 0.790039 103.8 0.790039C103.74 0.790039 103.74 0.820068 103.74 0.820068V0.810059ZM140.86 7.73004C140.86 7.73004 140.83 7.73007 140.8 7.76007C140.86 7.76007 140.89 7.79007 140.95 7.76007C140.95 7.76007 140.97 7.75004 141.01 7.73004H140.86ZM139.62 7.80005H139.71C139.77 7.80005 139.8 7.80008 139.83 7.77008H139.74C139.68 7.80008 139.65 7.80005 139.62 7.80005ZM140.41 7.73004C140.41 7.73004 140.41 7.76007 140.5 7.76007C140.5 7.76007 140.52 7.75004 140.56 7.73004C140.56 7.73004 140.56 7.70007 140.47 7.70007C140.47 7.70007 140.45 7.71004 140.41 7.73004ZM136.15 7.14008C136.15 7.14008 136.15 7.17004 136.24 7.17004C136.24 7.17004 136.26 7.16008 136.3 7.14008C136.3 7.14008 136.3 7.11005 136.21 7.11005C136.18 7.14005 136.15 7.14008 136.15 7.14008ZM130.29 3.38007H130.23C130.29 3.41007 130.32 3.41007 130.38 3.38007C130.38 3.38007 130.4 3.37004 130.44 3.35004C130.38 3.38004 130.35 3.38007 130.29 3.38007ZM124.73 1.40009C124.79 1.40009 124.82 1.40006 124.85 1.37006H124.76C124.7 1.37006 124.67 1.37009 124.64 1.40009C124.67 1.37009 124.7 1.37009 124.73 1.40009ZM121.77 1.26007C121.77 1.26007 121.74 1.26004 121.71 1.29004C121.77 1.29004 121.8 1.32004 121.86 1.29004C121.86 1.29004 121.88 1.28007 121.92 1.26007H121.77ZM101.74 0.810059C101.74 0.810059 101.71 0.810088 101.68 0.840088C101.74 0.840088 101.77 0.870088 101.83 0.840088C101.83 0.840088 101.85 0.830059 101.89 0.810059H101.74ZM2.08984 5.37006H2C1.94 5.37006 1.91021 5.40009 1.97021 5.40009H2.06006C2.12006 5.40009 2.11984 5.37006 2.08984 5.37006Z" fill="#FFE492"/>
</svg>
